{"glyphs":{"0":{"ha":789,"x_min":71,"x_max":718,"o":"m 718 353 q 630 84 718 182 q 395 -14 543 -14 q 159 84 248 -14 q 71 353 71 183 l 71 633 q 159 903 71 804 q 394 1002 247 1002 q 630 903 541 1002 q 718 633 718 804 l 718 353 m 553 659 q 511 813 553 758 q 394 869 469 869 q 277 813 318 869 q 235 659 235 758 l 235 330 q 277 173 235 229 q 395 117 319 117 q 512 173 471 117 q 553 330 553 229 l 553 659 z "},"1":{"ha":789,"x_min":135,"x_max":509,"o":"m 509 0 l 345 0 l 345 836 l 135 836 l 135 966 l 509 1002 l 509 0 z "},"2":{"ha":789,"x_min":75,"x_max":728,"o":"m 728 0 l 91 0 l 91 113 l 399 470 q 504 616 475 559 q 533 727 533 674 q 498 830 533 790 q 397 869 463 869 q 279 820 320 869 q 239 695 239 770 l 79 695 l 78 699 q 162 914 75 826 q 397 1002 249 1002 q 618 926 538 1002 q 698 726 698 850 q 653 570 698 643 q 507 374 609 496 l 299 135 l 300 132 l 728 132 l 728 0 z "},"3":{"ha":789,"x_min":69,"x_max":724,"o":"m 393 572 q 509 612 473 572 q 544 724 544 652 q 506 829 544 789 q 396 869 468 869 q 286 830 330 869 q 241 730 241 790 l 83 730 l 82 734 q 169 925 78 848 q 396 1002 259 1002 q 624 931 541 1002 q 708 724 708 860 q 671 600 708 656 q 568 511 634 543 q 684 421 644 481 q 724 277 724 361 q 632 63 724 140 q 396 -14 541 -14 q 168 59 266 -14 q 73 260 69 133 l 74 264 l 233 264 q 278 160 233 202 q 396 117 324 117 q 515 162 471 117 q 559 276 559 206 q 518 401 559 360 q 393 443 477 443 l 283 443 l 283 572 l 393 572 z "},"4":{"ha":789,"x_min":44,"x_max":750,"o":"m 625 352 l 750 352 l 750 219 l 625 219 l 625 0 l 461 0 l 461 219 l 48 219 l 44 320 l 456 987 l 625 987 l 625 352 m 205 352 l 461 352 l 461 755 l 457 755 l 441 718 l 205 352 z "},"5":{"ha":789,"x_min":89,"x_max":721,"o":"m 107 437 l 164 987 l 685 987 l 685 845 l 301 845 l 271 593 q 341 629 300 614 q 430 644 381 643 q 644 557 568 645 q 721 315 721 470 q 640 77 721 169 q 399 -14 559 -14 q 179 56 269 -14 q 92 256 89 126 l 94 260 l 248 264 q 290 156 248 195 q 399 117 332 117 q 516 170 476 117 q 556 314 556 222 q 515 457 556 403 q 397 511 473 511 q 296 489 329 511 q 248 425 263 467 l 107 437 z "},"6":{"ha":789,"x_min":79,"x_max":733,"o":"m 444 1002 q 555 990 501 1002 q 651 961 608 979 l 619 833 q 538 859 578 850 q 444 868 498 868 q 299 795 354 868 q 243 604 243 723 l 243 552 q 339 614 283 592 q 460 637 394 637 q 660 549 587 637 q 733 320 733 462 q 646 78 733 170 q 414 -14 558 -14 q 174 91 269 -14 q 79 378 79 196 l 79 593 q 183 888 79 775 q 444 1002 288 1002 m 407 509 q 307 487 348 509 q 243 429 266 466 l 243 370 q 292 184 243 252 q 414 117 340 117 q 528 174 487 117 q 569 320 569 231 q 526 458 569 407 q 407 509 483 509 z "},"7":{"ha":789,"x_min":58,"x_max":731,"o":"m 731 855 q 490 483 553 645 q 427 116 427 321 l 427 0 l 262 0 l 262 116 q 341 503 262 330 q 571 855 420 676 l 58 855 l 58 987 l 731 987 l 731 855 z "},"8":{"ha":789,"x_min":63,"x_max":730,"o":"m 700 732 q 660 601 700 658 q 551 512 620 543 q 681 418 633 480 q 730 274 730 355 q 638 61 730 136 q 404 -14 546 -14 q 158 61 254 -14 q 63 274 63 136 q 113 418 63 355 q 248 512 163 480 q 135 601 176 543 q 94 732 94 658 q 179 932 94 863 q 403 1002 264 1002 q 617 932 534 1002 q 700 732 700 863 m 566 280 q 519 399 566 353 q 403 446 472 446 q 277 399 327 446 q 228 280 228 353 q 277 162 228 206 q 404 117 326 117 q 519 162 473 117 q 566 280 566 206 m 535 726 q 498 830 535 790 q 403 869 460 869 q 298 831 338 869 q 258 726 258 793 q 299 619 258 660 q 404 578 340 578 q 498 619 461 578 q 535 726 535 660 z "},"9":{"ha":789,"x_min":60,"x_max":706,"o":"m 349 117 q 488 178 435 117 q 541 347 541 238 l 541 418 q 462 350 509 373 q 360 327 415 327 q 140 416 220 327 q 60 661 60 505 q 150 905 60 809 q 374 1002 239 1002 q 614 905 522 1002 q 706 633 706 808 l 706 353 q 606 84 706 182 q 349 -14 506 -14 q 242 -3 297 -14 q 140 28 188 7 l 167 154 q 253 126 211 134 q 349 117 295 117 m 376 455 q 477 480 435 455 q 541 545 519 505 l 541 662 q 497 815 541 762 q 376 869 454 869 q 268 810 311 869 q 224 661 224 751 q 263 511 224 568 q 376 455 302 455 z "},"\u0000":{"ha":0,"x_min":0,"x_max":0,"o":""},"\r":{"ha":346,"x_min":0,"x_max":0,"o":""}," ":{"ha":346,"x_min":0,"x_max":0,"o":""},"!":{"ha":372,"x_min":104,"x_max":269,"o":"m 269 333 l 104 333 l 104 987 l 269 987 l 269 333 m 269 0 l 104 0 l 104 159 l 269 159 l 269 0 z "},"\"":{"ha":530,"x_min":90,"x_max":456,"o":"m 235 801 l 166 632 l 90 632 l 90 987 l 235 987 l 235 801 m 456 801 l 387 632 l 311 632 l 311 987 l 456 987 l 456 801 z "},"#":{"ha":848,"x_min":41,"x_max":798,"o":"m 463 278 l 311 278 l 259 0 l 146 0 l 197 278 l 41 278 l 41 385 l 218 385 l 257 597 l 92 597 l 92 705 l 277 705 l 330 987 l 444 987 l 391 705 l 543 705 l 595 987 l 709 987 l 656 705 l 798 705 l 798 597 l 636 597 l 597 385 l 747 385 l 747 278 l 576 278 l 525 0 l 412 0 l 463 278 m 331 385 l 484 385 l 523 597 l 370 597 l 331 385 z "},"$":{"ha":817,"x_min":79,"x_max":735,"o":"m 570 258 q 533 353 570 315 q 404 422 495 391 q 189 538 260 469 q 117 728 117 608 q 185 913 117 841 q 373 999 254 985 l 373 1147 l 481 1147 l 481 998 q 664 904 599 982 q 728 699 729 826 l 726 695 l 566 695 q 528 820 566 774 q 422 865 490 865 q 315 828 350 865 q 281 729 281 791 q 317 635 281 671 q 450 564 353 600 q 664 448 593 517 q 735 259 735 379 q 664 72 735 142 q 467 -11 592 2 l 467 -143 l 359 -143 l 359 -12 q 158 75 237 1 q 82 292 79 149 l 83 296 l 243 296 q 290 161 243 201 q 410 121 338 121 q 529 158 488 121 q 570 258 570 195 z "},"%":{"ha":1020,"x_min":68,"x_max":961,"o":"m 68 798 q 124 943 68 884 q 277 1002 180 1002 q 430 943 374 1002 q 486 798 486 885 l 486 745 q 430 601 486 659 q 278 543 374 543 q 124 601 180 543 q 68 745 68 659 l 68 798 m 182 745 q 207 672 182 702 q 278 642 232 642 q 347 671 323 642 q 371 745 371 701 l 371 798 q 346 872 371 842 q 277 903 321 903 q 207 872 231 903 q 182 798 182 842 l 182 745 m 543 242 q 599 387 543 328 q 751 446 655 446 q 905 387 849 446 q 961 242 961 329 l 961 189 q 905 44 961 102 q 753 -14 849 -14 q 599 44 655 -14 q 543 189 543 102 l 543 242 m 657 189 q 683 115 657 146 q 753 85 708 85 q 823 114 800 85 q 846 189 846 144 l 846 242 q 822 316 846 286 q 751 347 797 347 q 682 316 706 347 q 657 242 657 286 l 657 189 m 312 74 l 227 123 l 709 895 l 794 846 l 312 74 z "},"&":{"ha":888,"x_min":42,"x_max":859,"o":"m 42 267 q 87 408 42 348 q 225 531 133 468 q 152 646 176 595 q 128 752 128 698 q 197 937 128 871 q 387 1002 267 1002 q 562 937 494 1002 q 629 781 629 872 q 596 662 629 712 q 500 564 564 611 l 430 513 l 635 269 q 677 363 662 312 q 692 471 692 414 l 831 471 q 805 298 831 377 q 729 158 780 219 l 859 3 l 858 0 l 672 0 l 617 64 q 498 6 562 26 q 364 -14 435 -14 q 130 64 217 -14 q 42 267 42 142 m 369 117 q 452 130 411 117 q 531 165 494 142 l 311 426 l 293 413 q 224 339 241 375 q 207 272 207 304 q 250 161 207 204 q 369 117 292 117 m 283 754 q 299 688 283 722 q 347 612 315 654 l 421 662 q 473 714 460 687 q 486 775 486 742 q 458 841 486 812 q 384 869 430 869 q 310 836 336 869 q 283 754 283 802 z "},"'":{"ha":301,"x_min":74,"x_max":229,"o":"m 229 819 l 160 627 l 74 627 l 74 987 l 229 987 l 229 819 z "},"(":{"ha":471,"x_min":87,"x_max":457,"o":"m 87 401 q 193 856 87 669 q 422 1101 299 1044 l 427 1101 l 457 1010 q 301 788 366 941 q 237 403 237 635 l 237 389 q 301 4 237 157 q 457 -222 366 -149 l 427 -309 l 422 -309 q 193 -64 298 -251 q 87 391 87 123 l 87 401 z "},")":{"ha":475,"x_min":12,"x_max":387,"o":"m 387 391 q 279 -62 387 127 q 47 -309 171 -252 l 43 -309 l 12 -222 q 167 1 102 -153 q 232 389 232 156 l 232 403 q 165 788 232 633 q 12 1014 98 943 l 43 1101 l 47 1101 q 279 854 170 1044 q 387 401 387 665 l 387 391 z "},"*":{"ha":591,"x_min":47,"x_max":545,"o":"m 205 460 l 47 509 l 82 621 l 243 564 l 240 733 l 355 733 l 353 559 l 510 615 l 545 502 l 383 452 l 482 317 l 389 248 l 291 391 l 196 253 l 102 320 l 205 460 z "},"+":{"ha":774,"x_min":46,"x_max":723,"o":"m 465 543 l 723 543 l 723 393 l 465 393 l 465 99 l 305 99 l 305 393 l 46 393 l 46 543 l 305 543 l 305 818 l 465 818 l 465 543 z "},",":{"ha":313,"x_min":37,"x_max":246,"o":"m 246 21 l 141 -191 l 37 -191 l 84 27 l 84 161 l 246 161 l 246 21 z "},"-":{"ha":617,"x_min":107,"x_max":507,"o":"m 507 353 l 107 353 l 107 486 l 507 486 l 507 353 z "},".":{"ha":388,"x_min":104,"x_max":268,"o":"m 268 0 l 104 0 l 104 158 l 268 158 l 268 0 z "},"/":{"ha":569,"x_min":1,"x_max":541,"o":"m 153 -85 l 1 -85 l 390 987 l 541 987 l 153 -85 z "},":":{"ha":372,"x_min":104,"x_max":268,"o":"m 268 0 l 104 0 l 104 158 l 268 158 l 268 0 m 268 594 l 104 594 l 104 752 l 268 752 l 268 594 z "},";":{"ha":369,"x_min":71,"x_max":281,"o":"m 269 594 l 104 594 l 104 752 l 269 752 l 269 594 m 281 21 l 176 -191 l 71 -191 l 119 27 l 119 161 l 281 161 l 281 21 z "},"<":{"ha":706,"x_min":43,"x_max":610,"o":"m 218 379 l 205 377 l 205 373 l 218 371 l 610 223 l 610 58 l 43 311 l 43 441 l 610 694 l 610 530 l 218 379 z "},"=":{"ha":791,"x_min":98,"x_max":683,"o":"m 683 536 l 98 536 l 98 673 l 683 673 l 683 536 m 683 248 l 98 248 l 98 385 l 683 385 l 683 248 z "},">":{"ha":723,"x_min":87,"x_max":673,"o":"m 87 522 l 87 684 l 673 432 l 673 301 l 87 49 l 87 211 l 497 364 l 509 366 l 510 370 l 497 372 l 87 522 z "},"?":{"ha":675,"x_min":30,"x_max":629,"o":"m 231 279 q 253 418 231 376 q 349 523 275 460 q 433 622 402 574 q 465 726 465 669 q 429 828 465 791 q 328 864 393 864 q 232 833 271 864 q 193 742 193 802 l 34 742 l 32 746 q 113 934 30 867 q 328 1002 196 1002 q 550 929 470 1002 q 629 728 629 857 q 579 568 629 642 q 454 433 530 494 q 405 369 415 399 q 395 279 395 338 l 231 279 m 398 0 l 230 0 l 230 158 l 398 158 l 398 0 z "},"@":{"ha":1238,"x_min":50,"x_max":1185,"o":"m 1174 344 q 1090 92 1168 197 q 857 -14 1012 -14 q 769 14 806 -14 q 715 95 732 43 q 637 14 684 41 q 528 -13 590 -13 q 389 68 437 -13 q 353 282 340 149 q 448 561 369 456 q 640 666 527 666 q 760 648 714 666 q 860 594 806 631 l 858 591 l 861 591 l 827 199 q 839 104 821 130 q 886 79 857 79 q 1015 154 966 79 q 1069 344 1063 229 q 974 732 1080 593 q 646 871 868 871 q 314 721 438 871 q 179 324 189 571 q 279 -66 167 77 q 602 -208 391 -208 q 722 -195 661 -208 q 826 -159 783 -181 l 852 -247 q 736 -291 806 -275 q 599 -307 666 -307 q 193 -138 336 -307 q 62 324 50 31 q 233 789 74 612 q 648 966 391 966 q 1046 799 908 966 q 1174 344 1185 632 m 489 282 q 503 145 482 192 q 570 98 523 98 q 644 115 610 98 q 704 174 677 132 q 704 185 704 180 q 705 199 705 191 l 736 548 q 703 558 720 554 q 666 562 685 562 q 544 492 586 562 q 489 282 502 422 z "},"A":{"ha":882,"x_min":22,"x_max":863,"o":"m 618 231 l 268 231 l 192 0 l 22 0 l 366 987 l 523 987 l 863 0 l 693 0 l 618 231 m 313 368 l 573 368 l 446 758 l 442 758 l 313 368 z "},"B":{"ha":884,"x_min":104,"x_max":833,"o":"m 104 0 l 104 987 l 427 987 q 683 920 591 987 q 775 718 775 852 q 738 601 775 653 q 635 522 701 549 q 782 439 730 506 q 833 283 833 373 q 742 72 833 144 q 491 0 651 0 l 104 0 m 269 449 l 269 132 l 491 132 q 623 171 576 132 q 669 283 669 210 q 623 402 669 358 q 496 449 578 446 l 487 449 l 269 449 m 269 572 l 445 572 q 566 608 522 572 q 610 711 610 644 q 564 820 610 784 q 427 855 517 855 l 269 855 l 269 572 z "},"C":{"ha":882,"x_min":74,"x_max":830,"o":"m 825 323 l 827 319 q 730 78 829 170 q 460 -14 630 -14 q 181 102 288 -14 q 74 399 74 218 l 74 587 q 180 885 74 768 q 456 1002 286 1002 q 730 913 630 1002 q 827 669 830 824 l 826 665 l 667 665 q 613 817 667 764 q 456 869 559 869 q 297 790 355 869 q 238 589 238 710 l 238 399 q 298 197 238 277 q 460 117 357 117 q 614 170 562 117 q 667 323 667 223 l 825 323 z "},"D":{"ha":930,"x_min":104,"x_max":853,"o":"m 104 0 l 104 987 l 430 987 q 735 870 618 987 q 853 568 853 753 l 853 418 q 735 117 853 233 q 430 0 618 0 l 104 0 m 269 855 l 269 132 l 430 132 q 618 212 549 132 q 688 418 688 292 l 688 570 q 618 775 688 694 q 430 855 549 855 l 269 855 z "},"E":{"ha":769,"x_min":104,"x_max":724,"o":"m 655 444 l 269 444 l 269 132 l 724 132 l 724 0 l 104 0 l 104 987 l 720 987 l 720 855 l 269 855 l 269 576 l 655 576 l 655 444 z "},"F":{"ha":769,"x_min":104,"x_max":736,"o":"m 667 421 l 269 421 l 269 0 l 104 0 l 104 987 l 736 987 l 736 855 l 269 855 l 269 553 l 667 553 l 667 421 z "},"G":{"ha":933,"x_min":75,"x_max":836,"o":"m 836 134 q 706 31 795 76 q 475 -14 616 -14 q 188 99 300 -14 q 75 391 75 212 l 75 597 q 184 889 75 776 q 465 1002 293 1002 q 733 915 637 1002 q 827 688 829 828 l 825 684 l 668 684 q 616 819 668 768 q 467 869 564 869 q 302 793 365 869 q 239 598 239 716 l 239 391 q 305 194 239 271 q 475 117 370 117 q 601 135 555 117 q 671 179 647 153 l 671 383 l 464 383 l 464 507 l 836 507 l 836 134 z "},"H":{"ha":979,"x_min":104,"x_max":875,"o":"m 875 0 l 710 0 l 710 421 l 269 421 l 269 0 l 104 0 l 104 987 l 269 987 l 269 553 l 710 553 l 710 987 l 875 987 l 875 0 z "},"I":{"ha":399,"x_min":117,"x_max":282,"o":"m 282 0 l 117 0 l 117 987 l 282 987 l 282 0 z "},"J":{"ha":766,"x_min":37,"x_max":664,"o":"m 500 987 l 664 987 l 664 296 q 577 70 664 154 q 353 -14 491 -14 q 122 60 208 -14 q 40 278 37 135 l 41 282 l 201 282 q 241 158 201 198 q 353 117 281 117 q 459 166 418 117 q 500 296 500 215 l 500 987 z "},"K":{"ha":884,"x_min":104,"x_max":880,"o":"m 349 427 l 269 427 l 269 0 l 104 0 l 104 987 l 269 987 l 269 569 l 333 569 l 654 987 l 847 987 l 849 984 l 479 520 l 880 0 l 671 0 l 349 427 z "},"L":{"ha":767,"x_min":104,"x_max":731,"o":"m 269 132 l 731 132 l 731 0 l 104 0 l 104 987 l 269 987 l 269 132 z "},"M":{"ha":1208,"x_min":104,"x_max":1103,"o":"m 604 228 l 608 228 l 893 987 l 1103 987 l 1103 0 l 939 0 l 939 709 l 935 710 l 663 0 l 549 0 l 273 724 l 269 722 l 269 0 l 104 0 l 104 987 l 320 987 l 604 228 z "},"N":{"ha":979,"x_min":104,"x_max":875,"o":"m 875 0 l 710 0 l 273 711 l 269 710 l 269 0 l 104 0 l 104 987 l 269 987 l 706 276 l 710 277 l 710 987 l 875 987 l 875 0 z "},"O":{"ha":951,"x_min":71,"x_max":880,"o":"m 880 405 q 766 105 880 224 q 471 -14 652 -14 q 182 105 294 -14 q 71 405 71 224 l 71 583 q 182 882 71 763 q 471 1002 293 1002 q 766 882 652 1002 q 880 583 880 763 l 880 405 m 715 584 q 649 787 715 707 q 471 866 583 866 q 299 787 361 866 q 236 584 236 707 l 236 405 q 299 200 236 280 q 471 121 362 121 q 649 200 584 121 q 715 405 715 279 l 715 584 z "},"P":{"ha":884,"x_min":104,"x_max":831,"o":"m 269 374 l 269 0 l 104 0 l 104 987 l 482 987 q 738 903 646 987 q 831 681 831 819 q 738 458 831 542 q 482 374 646 374 l 269 374 m 269 507 l 482 507 q 620 555 574 507 q 666 680 666 604 q 620 805 666 755 q 482 855 574 855 l 269 855 l 269 507 z "},"Q":{"ha":972,"x_min":71,"x_max":943,"o":"m 880 405 q 858 262 880 329 q 797 141 837 195 l 943 -4 l 833 -102 l 686 42 q 585 0 640 14 q 471 -14 531 -14 q 182 105 294 -14 q 71 405 71 224 l 71 583 q 182 882 71 763 q 471 1002 293 1002 q 766 882 652 1002 q 880 583 880 763 l 880 405 m 715 584 q 649 787 715 707 q 471 866 583 866 q 299 787 361 866 q 236 584 236 707 l 236 405 q 299 200 236 280 q 471 121 362 121 q 649 200 584 121 q 715 405 715 279 l 715 584 z "},"R":{"ha":884,"x_min":104,"x_max":838,"o":"m 269 410 l 269 0 l 104 0 l 104 987 l 444 987 q 699 913 608 987 q 789 700 789 838 q 749 568 789 623 q 633 479 709 513 q 754 393 717 453 q 791 245 791 334 l 791 163 q 802 79 791 120 q 838 16 812 37 l 838 0 l 668 0 q 633 70 641 22 q 626 165 626 117 l 626 244 q 582 365 626 320 q 463 410 538 410 l 269 410 m 269 542 l 435 542 q 579 580 534 542 q 625 696 625 618 q 580 813 625 770 q 444 855 535 855 l 269 855 l 269 542 z "},"S":{"ha":854,"x_min":65,"x_max":789,"o":"m 624 254 q 580 355 624 315 q 425 425 536 394 q 179 541 266 469 q 93 728 93 612 q 188 924 93 847 q 432 1002 283 1002 q 688 916 592 1002 q 781 704 784 830 l 779 700 l 621 700 q 569 824 621 778 q 431 870 517 870 q 302 831 347 870 q 257 729 257 791 q 307 635 257 672 q 471 565 356 598 q 707 447 626 522 q 789 255 789 372 q 692 59 789 132 q 439 -14 596 -14 q 177 66 289 -14 q 68 292 65 146 l 70 296 l 229 296 q 290 162 229 207 q 439 117 351 117 q 575 154 527 117 q 624 254 624 191 z "},"T":{"ha":815,"x_min":23,"x_max":793,"o":"m 793 855 l 488 855 l 488 0 l 323 0 l 323 855 l 23 855 l 23 987 l 793 987 l 793 855 z "},"U":{"ha":947,"x_min":91,"x_max":858,"o":"m 858 987 l 858 337 q 750 79 858 172 q 471 -14 642 -14 q 197 79 302 -14 q 91 337 91 172 l 91 987 l 256 987 l 256 337 q 315 175 256 232 q 471 117 374 117 q 632 175 571 117 q 693 337 693 232 l 693 987 l 858 987 z "},"V":{"ha":882,"x_min":10,"x_max":871,"o":"m 421 268 l 439 196 l 443 196 l 460 267 l 696 987 l 871 987 l 519 0 l 362 0 l 10 987 l 186 987 l 421 268 z "},"W":{"ha":1208,"x_min":20,"x_max":1188,"o":"m 865 275 l 869 275 l 1015 987 l 1188 987 l 954 0 l 804 0 l 606 703 l 602 703 l 404 0 l 254 0 l 20 987 l 193 987 l 339 276 l 343 276 l 531 987 l 676 987 l 865 275 z "},"X":{"ha":882,"x_min":34,"x_max":856,"o":"m 441 623 l 649 987 l 844 987 l 541 498 l 856 0 l 658 0 l 444 371 l 229 0 l 34 0 l 345 498 l 41 987 l 235 987 l 441 623 z "},"Y":{"ha":882,"x_min":18,"x_max":861,"o":"m 439 507 l 677 987 l 861 987 l 519 345 l 519 0 l 355 0 l 355 355 l 18 987 l 201 987 l 439 507 z "},"Z":{"ha":811,"x_min":60,"x_max":755,"o":"m 254 132 l 755 132 l 755 0 l 60 0 l 60 103 l 542 855 l 64 855 l 64 987 l 737 987 l 737 888 l 254 132 z "},"[":{"ha":380,"x_min":90,"x_max":366,"o":"m 366 1009 l 254 1009 l 254 -92 l 366 -92 l 366 -220 l 90 -220 l 90 1138 l 366 1138 l 366 1009 z "},"\\":{"ha":580,"x_min":14,"x_max":587,"o":"m 14 987 l 174 987 l 587 -85 l 427 -85 l 14 987 z "},"]":{"ha":380,"x_min":8,"x_max":286,"o":"m 8 1138 l 286 1138 l 286 -220 l 8 -220 l 8 -92 l 121 -92 l 121 1009 l 8 1009 l 8 1138 z "},"^":{"ha":593,"x_min":36,"x_max":557,"o":"m 176 494 l 36 494 l 239 987 l 355 987 l 557 494 l 418 494 l 306 774 l 298 811 l 294 811 l 286 774 l 176 494 z "},"_":{"ha":627,"x_min":2,"x_max":624,"o":"m 624 -130 l 2 -130 l 2 0 l 624 0 l 624 -130 z "},"`":{"ha":448,"x_min":47,"x_max":360,"o":"m 360 849 l 223 849 l 47 1025 l 48 1029 l 235 1029 l 360 849 z "},"a":{"ha":755,"x_min":56,"x_max":696,"o":"m 529 0 q 514 54 520 28 q 507 107 509 81 q 418 21 473 56 q 294 -14 362 -14 q 118 45 179 -14 q 56 207 56 104 q 140 373 56 313 q 377 432 224 432 l 505 432 l 505 496 q 472 587 505 554 q 374 619 438 619 q 285 592 318 619 q 252 523 252 566 l 93 522 l 92 526 q 170 680 87 613 q 385 747 252 747 q 591 682 513 747 q 670 495 670 617 l 670 169 q 676 82 670 123 q 696 0 682 40 l 529 0 m 328 118 q 439 149 389 118 q 505 220 489 180 l 505 329 l 374 329 q 262 293 302 329 q 221 210 221 258 q 249 143 221 168 q 328 118 276 118 z "},"b":{"ha":787,"x_min":87,"x_max":731,"o":"m 731 342 q 656 84 731 182 q 445 -14 581 -14 q 325 14 376 -14 q 240 97 274 43 l 220 0 l 87 0 l 87 1058 l 252 1058 l 252 650 q 333 722 286 697 q 444 747 380 747 q 656 640 581 747 q 731 357 731 533 l 731 342 m 566 357 q 527 542 566 471 q 402 612 488 612 q 310 588 347 612 q 252 520 273 564 l 252 212 q 310 144 273 168 q 404 120 347 120 q 528 180 489 120 q 566 342 566 240 l 566 357 z "},"c":{"ha":722,"x_min":55,"x_max":673,"o":"m 386 117 q 481 153 442 117 q 520 242 520 188 l 669 242 l 671 238 q 589 60 673 135 q 386 -14 505 -14 q 141 91 227 -14 q 55 355 55 195 l 55 378 q 141 642 55 537 q 385 747 227 747 q 593 670 513 747 q 671 475 673 593 l 669 471 l 520 471 q 483 573 520 531 q 385 615 446 615 q 258 547 297 615 q 220 378 220 479 l 220 355 q 258 185 220 252 q 386 117 296 117 z "},"d":{"ha":787,"x_min":56,"x_max":696,"o":"m 56 357 q 132 640 56 532 q 343 747 207 747 q 450 723 403 747 q 532 654 497 699 l 532 1058 l 696 1058 l 696 0 l 563 0 l 543 93 q 458 13 508 41 q 342 -14 408 -14 q 132 84 207 -14 q 56 342 56 182 l 56 357 m 221 342 q 260 180 221 241 q 384 120 299 120 q 472 142 436 120 q 532 206 509 165 l 532 526 q 472 590 509 567 q 385 612 435 612 q 261 542 301 612 q 221 357 221 471 l 221 342 z "},"e":{"ha":727,"x_min":56,"x_max":680,"o":"m 398 -14 q 147 87 237 -14 q 56 350 56 189 l 56 377 q 147 643 56 538 q 380 747 237 748 q 604 656 528 747 q 680 412 680 565 l 680 323 l 227 323 l 225 320 q 273 174 228 230 q 408 117 317 117 q 524 134 475 117 q 615 180 573 150 l 669 73 q 557 11 627 36 q 398 -14 488 -14 m 380 615 q 277 569 316 615 q 229 448 239 522 l 231 444 l 517 444 l 517 457 q 485 571 517 528 q 380 615 452 615 z "},"f":{"ha":470,"x_min":28,"x_max":495,"o":"m 140 0 l 140 612 l 28 612 l 28 734 l 140 734 l 140 819 q 207 1006 140 941 q 392 1072 273 1072 q 440 1068 416 1072 q 495 1058 465 1065 l 478 930 q 448 935 465 933 q 412 937 431 937 q 332 907 359 937 q 305 819 305 876 l 305 734 l 441 734 l 441 612 l 305 612 l 305 0 l 140 0 z "},"g":{"ha":787,"x_min":61,"x_max":701,"o":"m 61 357 q 136 640 61 532 q 348 747 212 747 q 464 719 414 747 q 548 638 513 691 l 564 734 l 701 734 l 701 0 q 614 -219 701 -142 q 366 -296 526 -296 q 250 -281 312 -296 q 138 -241 188 -266 l 164 -111 q 258 -144 206 -132 q 364 -156 310 -156 q 495 -118 454 -156 q 536 0 536 -79 l 536 75 q 455 8 502 31 q 347 -14 408 -14 q 136 84 212 -14 q 61 342 61 182 l 61 357 m 225 342 q 264 180 225 241 q 389 120 304 120 q 478 142 441 120 q 536 205 514 164 l 536 527 q 477 590 513 567 q 390 612 441 612 q 265 542 305 612 q 225 357 225 471 l 225 342 z "},"h":{"ha":787,"x_min":85,"x_max":703,"o":"m 250 639 q 339 719 286 690 q 455 747 391 747 q 637 674 572 747 q 703 447 703 600 l 703 0 l 538 0 l 538 448 q 504 573 538 534 q 404 612 471 612 q 313 594 351 612 q 250 542 274 575 l 250 0 l 85 0 l 85 1058 l 250 1058 l 250 639 z "},"i":{"ha":360,"x_min":98,"x_max":262,"o":"m 262 0 l 98 0 l 98 734 l 262 734 l 262 0 m 262 913 l 98 913 l 98 1058 l 262 1058 l 262 913 z "},"j":{"ha":364,"x_min":-54,"x_max":270,"o":"m 270 734 l 270 -43 q 207 -230 270 -164 q 31 -296 144 -296 q -13 -294 7 -296 q -54 -285 -33 -291 l -45 -153 q -16 -159 -33 -157 q 15 -161 1 -161 q 81 -133 57 -161 q 105 -43 105 -104 l 105 734 l 270 734 m 266 916 l 101 916 l 101 1058 l 266 1058 l 266 916 z "},"k":{"ha":727,"x_min":87,"x_max":728,"o":"m 313 321 l 252 321 l 252 0 l 87 0 l 87 1058 l 252 1058 l 252 453 l 308 453 l 507 734 l 700 734 l 448 396 l 728 0 l 536 0 l 313 321 z "},"l":{"ha":360,"x_min":98,"x_max":262,"o":"m 262 0 l 98 0 l 98 1058 l 262 1058 l 262 0 z "},"m":{"ha":1208,"x_min":87,"x_max":1121,"o":"m 237 734 l 246 638 q 336 719 282 690 q 462 747 391 747 q 585 715 534 747 q 663 617 637 682 q 752 713 696 678 q 882 747 808 747 q 1057 670 993 747 q 1121 437 1121 593 l 1121 0 l 956 0 l 956 438 q 924 573 956 534 q 827 612 892 612 q 738 584 774 612 q 685 507 701 555 q 686 490 685 497 q 686 475 686 482 l 686 0 l 522 0 l 522 438 q 489 572 522 531 q 392 612 456 612 q 307 593 342 612 q 252 538 272 574 l 252 0 l 87 0 l 87 734 l 237 734 z "},"n":{"ha":787,"x_min":85,"x_max":702,"o":"m 236 734 l 245 628 q 336 716 281 684 q 459 747 391 747 q 638 677 574 747 q 702 456 702 606 l 702 0 l 537 0 l 537 455 q 504 576 537 541 q 404 612 471 612 q 312 592 351 612 q 250 537 273 572 l 250 0 l 85 0 l 85 734 l 236 734 z "},"o":{"ha":787,"x_min":56,"x_max":730,"o":"m 56 374 q 146 643 56 538 q 392 747 236 747 q 640 643 550 747 q 730 374 730 538 l 730 359 q 640 90 730 194 q 393 -14 550 -14 q 146 90 236 -14 q 56 359 56 195 l 56 374 m 221 359 q 263 184 221 252 q 393 117 305 117 q 523 185 479 117 q 566 359 566 252 l 566 374 q 523 547 566 479 q 392 615 479 615 q 263 547 306 615 q 221 374 221 479 l 221 359 z "},"p":{"ha":787,"x_min":87,"x_max":730,"o":"m 730 342 q 654 84 730 182 q 445 -14 579 -14 q 334 8 382 -14 q 252 74 286 31 l 252 -282 l 87 -282 l 87 734 l 226 734 l 242 642 q 327 720 277 693 q 443 747 377 747 q 654 640 578 747 q 730 357 730 532 l 730 342 m 566 357 q 523 541 566 469 q 397 612 481 612 q 309 590 345 612 q 252 529 273 568 l 252 197 q 309 138 273 159 q 398 117 345 117 q 524 179 482 117 q 566 342 566 241 l 566 357 z "},"q":{"ha":787,"x_min":56,"x_max":692,"o":"m 56 357 q 132 640 56 532 q 343 747 207 747 q 456 721 407 747 q 539 645 505 694 l 558 734 l 692 734 l 692 -282 l 527 -282 l 527 69 q 447 7 493 28 q 342 -14 401 -14 q 132 84 207 -14 q 56 342 56 182 l 56 357 m 221 342 q 260 179 221 241 q 384 117 299 117 q 469 137 434 117 q 527 195 504 157 l 527 537 q 469 594 504 574 q 385 615 433 615 q 261 543 301 615 q 221 357 221 471 l 221 342 z "},"r":{"ha":488,"x_min":87,"x_max":472,"o":"m 452 585 l 382 588 q 301 568 334 588 q 252 510 269 547 l 252 0 l 87 0 l 87 734 l 237 734 l 248 627 q 320 715 276 684 q 420 747 363 747 q 448 745 435 747 q 472 739 461 743 l 452 585 z "},"s":{"ha":722,"x_min":56,"x_max":661,"o":"m 499 201 q 467 263 499 239 q 345 308 435 288 q 147 386 216 334 q 79 524 79 437 q 157 682 79 616 q 362 747 235 747 q 574 680 494 747 q 651 517 654 612 l 650 513 l 492 513 q 456 591 492 558 q 362 624 421 624 q 271 597 302 624 q 240 530 240 570 q 269 471 240 493 q 389 431 298 448 q 593 351 524 404 q 661 210 661 298 q 579 48 661 111 q 364 -14 498 -14 q 138 59 221 -14 q 60 227 56 132 l 61 231 l 214 231 q 260 138 217 168 q 366 109 304 109 q 464 134 429 109 q 499 201 499 159 z "},"t":{"ha":475,"x_min":22,"x_max":438,"o":"m 298 912 l 298 734 l 429 734 l 429 612 l 298 612 l 298 206 q 317 141 298 161 q 370 122 337 122 q 396 124 383 122 q 420 131 409 127 l 438 10 q 388 -8 417 -1 q 328 -14 359 -14 q 185 39 237 -14 q 134 206 134 92 l 134 612 l 22 612 l 22 734 l 134 734 l 134 912 l 298 912 z "},"u":{"ha":787,"x_min":83,"x_max":701,"o":"m 545 109 q 457 18 511 50 q 334 -14 404 -14 q 150 63 216 -14 q 83 304 83 141 l 83 734 l 248 734 l 248 303 q 278 159 248 198 q 373 120 309 120 q 473 141 433 120 q 536 203 513 163 l 536 734 l 701 734 l 701 0 l 559 0 l 545 109 z "},"v":{"ha":704,"x_min":22,"x_max":687,"o":"m 342 248 l 354 189 l 358 189 l 371 248 l 517 734 l 687 734 l 427 0 l 283 0 l 22 734 l 192 734 l 342 248 z "},"w":{"ha":1038,"x_min":25,"x_max":1009,"o":"m 733 218 l 737 218 l 844 734 l 1009 734 l 808 0 l 673 0 l 518 486 l 514 486 l 361 0 l 226 0 l 25 734 l 190 734 l 300 224 l 304 224 l 457 734 l 577 734 l 733 218 z "},"x":{"ha":704,"x_min":22,"x_max":682,"o":"m 350 482 l 486 734 l 675 734 l 444 371 l 682 0 l 494 0 l 353 258 l 211 0 l 22 0 l 260 371 l 29 734 l 216 734 l 350 482 z "},"y":{"ha":704,"x_min":11,"x_max":692,"o":"m 330 294 l 347 221 l 351 221 l 511 734 l 692 734 l 388 -111 q 306 -242 359 -188 q 156 -296 253 -296 q 112 -292 136 -296 q 67 -283 89 -288 l 85 -155 q 111 -157 94 -156 q 135 -159 127 -159 q 207 -128 180 -159 q 250 -58 233 -98 l 277 9 l 11 734 l 191 734 l 330 294 z "},"z":{"ha":704,"x_min":58,"x_max":654,"o":"m 262 132 l 654 132 l 654 0 l 58 0 l 58 108 l 428 601 l 65 601 l 65 734 l 636 734 l 636 629 l 262 132 z "},"{":{"ha":466,"x_min":38,"x_max":446,"o":"m 413 -244 q 225 -125 281 -207 q 169 72 169 -44 l 169 210 q 137 319 169 280 q 38 359 104 359 l 38 479 q 137 519 104 479 q 169 630 169 558 l 169 768 q 225 965 169 884 q 413 1083 281 1046 l 446 988 q 352 909 379 966 q 324 768 324 852 l 324 630 q 295 505 324 559 q 207 420 266 450 q 295 333 266 388 q 324 210 324 279 l 324 72 q 352 -69 324 -12 q 446 -149 379 -126 l 413 -244 z "},"|":{"ha":349,"x_min":98,"x_max":243,"o":"m 243 -183 l 98 -183 l 98 987 l 243 987 l 243 -183 z "},"}":{"ha":466,"x_min":18,"x_max":427,"o":"m 18 -149 q 112 -69 84 -126 q 140 72 140 -12 l 140 210 q 171 335 140 281 q 264 419 201 389 q 171 503 201 448 q 140 630 140 557 l 140 768 q 112 909 140 852 q 18 988 84 966 l 51 1083 q 239 965 182 1046 q 295 768 295 884 l 295 630 q 327 519 295 558 q 427 479 359 479 l 427 359 q 327 319 359 359 q 295 210 295 280 l 295 72 q 239 -125 295 -44 q 51 -244 182 -207 l 18 -149 z "},"~":{"ha":923,"x_min":79,"x_max":844,"o":"m 844 509 q 784 334 844 406 q 634 262 724 262 q 526 284 575 262 q 420 355 477 307 q 353 401 383 386 q 292 416 323 416 q 223 381 252 416 q 195 297 195 346 l 79 312 q 138 483 79 414 q 288 553 196 553 q 397 530 346 553 q 503 461 448 507 q 568 414 539 429 q 629 400 597 400 q 699 437 669 400 q 728 524 728 474 l 844 509 z "}," ":{"ha":346,"x_min":0,"x_max":0,"o":"z "},"¡":{"ha":368,"x_min":97,"x_max":262,"o":"m 262 -254 l 97 -254 l 97 400 l 262 400 l 262 -254 m 262 574 l 97 574 l 97 734 l 262 734 l 262 574 z "},"¢":{"ha":779,"x_min":55,"x_max":675,"o":"m 386 117 q 481 153 442 117 q 520 242 520 188 l 670 242 l 671 239 q 615 86 673 154 q 466 -4 557 19 l 466 -166 l 330 -166 l 330 -10 q 126 109 197 8 q 55 355 55 210 l 55 378 q 126 623 55 522 q 330 743 197 724 l 330 894 l 466 894 l 466 738 q 618 643 561 715 q 675 471 675 571 l 520 471 q 483 573 520 531 q 385 615 446 615 q 258 547 297 615 q 220 378 220 479 l 220 355 q 258 185 220 252 q 386 117 296 117 z "},"£":{"ha":817,"x_min":55,"x_max":767,"o":"m 330 406 l 334 330 q 318 222 334 274 q 275 132 303 171 l 767 132 l 766 0 l 98 0 l 98 132 l 104 132 q 152 200 136 140 q 168 324 168 260 l 165 406 l 55 406 l 55 539 l 160 539 l 154 701 q 233 921 154 841 q 444 1002 311 1002 q 661 928 584 1002 q 736 734 739 854 l 734 730 l 575 730 q 538 835 575 801 q 444 869 501 869 q 352 825 385 869 q 319 701 319 781 l 325 539 l 589 539 l 589 406 l 330 406 z "},"¤":{"ha":975,"x_min":63,"x_max":922,"o":"m 736 73 q 621 9 684 31 q 490 -14 558 -14 q 359 8 422 -14 q 246 72 297 31 l 159 -18 l 63 80 l 155 173 q 104 285 121 224 q 87 412 87 346 q 106 544 87 481 q 161 660 125 606 l 63 760 l 159 857 l 255 759 q 365 817 305 796 q 490 837 425 837 q 616 816 555 837 q 727 758 676 795 l 825 858 l 922 760 l 821 657 q 875 542 856 604 q 894 412 894 480 q 877 287 894 347 q 827 176 859 227 l 922 80 l 825 -18 l 736 73 m 212 412 q 293 199 212 287 q 490 112 374 112 q 687 199 606 112 q 768 412 768 287 q 687 624 768 537 q 490 711 606 711 q 293 624 374 711 q 212 412 212 537 z "},"¥":{"ha":846,"x_min":18,"x_max":823,"o":"m 420 553 l 640 987 l 823 987 l 554 503 l 741 503 l 741 404 l 500 404 l 500 307 l 741 307 l 741 208 l 500 208 l 500 0 l 336 0 l 336 208 l 94 208 l 94 307 l 336 307 l 336 404 l 94 404 l 94 503 l 288 503 l 18 987 l 202 987 l 420 553 z "},"¦":{"ha":345,"x_min":92,"x_max":248,"o":"m 92 -183 l 92 356 l 248 356 l 248 -183 l 92 -183 m 248 473 l 92 473 l 92 987 l 248 987 l 248 473 z "},"§":{"ha":863,"x_min":62,"x_max":789,"o":"m 789 309 q 759 199 789 245 q 673 123 729 152 q 742 43 719 90 q 765 -70 765 -4 q 672 -256 765 -189 q 423 -323 580 -323 q 166 -254 270 -323 q 66 -38 62 -186 l 67 -34 l 225 -33 q 283 -153 225 -116 q 423 -191 340 -191 q 553 -157 506 -191 q 601 -71 601 -123 q 555 12 601 -19 q 383 80 510 42 q 141 186 219 123 q 64 368 64 250 q 93 476 64 429 q 178 553 123 524 q 111 634 133 587 q 88 747 88 682 q 181 932 88 862 q 431 1002 275 1002 q 683 926 592 1002 q 770 714 774 850 l 769 710 l 610 710 q 563 824 610 779 q 431 869 515 869 q 298 835 342 869 q 253 749 253 801 q 294 661 253 690 q 469 597 336 632 q 712 489 634 552 q 789 309 789 427 m 408 456 q 353 472 379 463 q 301 490 326 480 q 246 447 264 475 q 228 378 228 418 q 270 287 228 318 q 444 219 312 256 q 503 201 479 208 q 549 186 527 194 q 606 230 586 201 q 627 298 627 259 q 581 385 627 352 q 408 456 534 418 z "},"¨":{"ha":715,"x_min":111,"x_max":603,"o":"m 603 849 l 439 849 l 439 987 l 603 987 l 603 849 m 275 849 l 111 849 l 111 987 l 275 987 l 275 849 z "},"©":{"ha":1088,"x_min":59,"x_max":1021,"o":"m 753 404 l 754 400 q 697 244 757 298 q 531 191 637 191 q 358 263 422 191 q 294 454 294 335 l 294 534 q 358 724 294 652 q 531 797 422 797 q 697 743 637 797 q 755 588 758 689 l 753 584 l 653 584 q 623 676 653 648 q 531 705 592 705 q 433 659 467 705 q 399 535 399 612 l 399 454 q 433 329 399 376 q 531 283 467 283 q 622 311 592 283 q 652 404 652 339 l 753 404 m 142 494 q 258 193 142 315 q 541 71 374 71 q 822 193 706 71 q 939 494 939 315 q 822 794 939 673 q 541 916 706 916 q 258 794 374 916 q 142 494 142 673 m 59 494 q 199 854 59 708 q 541 1001 340 1001 q 881 854 741 1001 q 1021 494 1021 708 q 881 133 1021 280 q 541 -14 740 -14 q 199 133 340 -14 q 59 494 59 280 z "},"ª":{"ha":619,"x_min":79,"x_max":532,"o":"m 412 479 q 404 509 407 493 q 398 543 400 525 q 338 490 376 511 q 248 469 300 469 q 123 511 167 469 q 79 624 79 552 q 136 740 79 699 q 303 781 193 781 l 396 781 l 396 815 q 376 879 396 857 q 317 901 356 901 q 248 884 273 901 q 224 834 224 866 l 112 843 l 111 847 q 165 958 107 913 q 317 1002 222 1002 q 461 954 408 1002 q 515 814 515 905 l 515 602 q 519 537 515 567 q 532 479 523 507 l 412 479 m 277 567 q 348 587 311 567 q 396 630 384 606 l 396 701 l 304 701 q 225 680 254 701 q 197 627 197 658 q 217 582 197 597 q 277 567 237 567 z "},"«":{"ha":674,"x_min":66,"x_max":602,"o":"m 207 349 l 374 79 l 261 79 l 66 343 l 66 356 l 261 621 l 374 621 l 207 349 m 434 349 l 602 79 l 488 79 l 293 343 l 293 356 l 488 621 l 602 621 l 434 349 z "},"¬":{"ha":768,"x_min":86,"x_max":652,"o":"m 652 254 l 517 254 l 517 430 l 86 430 l 86 546 l 652 546 l 652 254 z "},"­":{"ha":617,"x_min":107,"x_max":507,"o":"m 507 353 l 107 353 l 107 486 l 507 486 l 507 353 z "},"®":{"ha":1088,"x_min":59,"x_max":1021,"o":"m 59 494 q 199 854 59 708 q 541 1001 340 1001 q 881 854 741 1001 q 1021 494 1021 708 q 881 133 1021 280 q 541 -14 740 -14 q 199 133 340 -14 q 59 494 59 280 m 142 494 q 258 193 142 315 q 541 71 374 71 q 822 193 706 71 q 939 494 939 315 q 822 794 939 673 q 541 916 706 916 q 258 794 374 916 q 142 494 142 673 m 443 443 l 443 214 l 340 214 l 340 791 l 531 791 q 692 746 633 791 q 751 614 751 701 q 731 544 751 574 q 670 492 710 513 q 731 437 712 473 q 749 349 749 400 l 749 311 q 752 261 749 283 q 761 225 754 239 l 761 214 l 656 214 q 648 256 650 229 q 647 312 647 283 l 647 349 q 624 420 647 397 q 550 443 602 443 l 443 443 m 443 534 l 540 534 q 618 554 586 534 q 650 612 650 575 q 623 681 650 661 q 531 701 597 701 l 443 701 l 443 534 z "},"¯":{"ha":669,"x_min":92,"x_max":585,"o":"m 585 880 l 92 880 l 92 987 l 585 987 l 585 880 z "},"°":{"ha":528,"x_min":86,"x_max":441,"o":"m 86 819 q 139 948 86 894 q 265 1002 191 1002 q 390 948 338 1002 q 441 819 441 894 q 390 692 441 745 q 265 640 338 640 q 139 692 191 640 q 86 819 86 745 m 180 819 q 205 759 180 783 q 265 735 230 735 q 324 759 300 735 q 348 819 348 783 q 324 881 348 856 q 265 906 300 906 q 205 881 230 906 q 180 819 180 856 z "},"±":{"ha":745,"x_min":64,"x_max":686,"o":"m 453 614 l 686 614 l 686 479 l 453 479 l 453 212 l 307 212 l 307 479 l 64 479 l 64 614 l 307 614 l 307 875 l 453 875 l 453 614 m 652 -16 l 85 -16 l 85 117 l 652 117 l 652 -16 z "},"²":{"ha":587,"x_min":73,"x_max":492,"o":"m 492 452 l 80 452 l 80 551 l 287 724 q 344 785 330 761 q 357 836 357 808 q 340 885 357 866 q 286 904 323 904 q 223 884 245 904 q 201 831 201 863 l 79 831 l 77 835 q 132 954 73 905 q 288 1003 190 1003 q 435 959 382 1003 q 488 836 488 915 q 455 741 488 781 q 340 629 422 701 l 253 555 l 254 551 l 492 551 l 492 452 z "},"³":{"ha":588,"x_min":66,"x_max":507,"o":"m 283 772 q 348 790 327 772 q 368 841 368 808 q 346 885 368 867 q 282 903 324 903 q 225 888 246 903 q 203 850 203 873 l 81 850 l 79 854 q 134 962 75 921 q 280 1002 192 1002 q 439 962 381 1002 q 498 847 498 922 q 474 779 498 810 q 408 731 450 748 q 481 683 456 715 q 507 604 507 650 q 446 486 507 528 q 283 444 385 444 q 129 485 192 444 q 71 602 66 526 l 72 606 l 195 606 q 218 560 195 577 q 283 543 241 543 q 352 560 326 543 q 378 608 378 578 q 354 665 378 646 q 283 684 330 684 l 199 684 l 199 772 l 283 772 z "},"´":{"ha":467,"x_min":84,"x_max":401,"o":"m 214 1029 l 400 1029 l 401 1025 l 216 849 l 84 849 l 214 1029 z "},"µ":{"ha":821,"x_min":99,"x_max":715,"o":"m 263 734 l 263 313 q 297 159 263 200 q 397 119 331 119 q 493 139 456 119 q 551 201 531 160 l 551 734 l 715 734 l 715 0 l 564 0 l 559 58 q 489 4 529 22 q 397 -14 448 -14 q 322 -5 356 -14 q 263 23 289 4 l 263 -282 l 99 -282 l 99 734 l 263 734 z "},"¶":{"ha":705,"x_min":42,"x_max":597,"o":"m 432 0 l 432 353 l 376 353 q 130 440 218 353 q 42 670 42 528 q 130 899 42 810 q 376 987 218 987 l 597 987 l 597 0 l 432 0 z "},"·":{"ha":392,"x_min":109,"x_max":273,"o":"m 273 403 l 109 403 l 109 566 l 273 566 l 273 403 z "},"¸":{"ha":358,"x_min":74,"x_max":310,"o":"m 216 2 l 208 -35 q 281 -70 252 -42 q 310 -152 310 -98 q 252 -262 310 -221 q 88 -303 195 -303 l 83 -210 q 151 -195 125 -210 q 176 -150 176 -180 q 153 -108 176 -120 q 74 -92 130 -96 l 96 2 l 216 2 z "},"¹":{"ha":383,"x_min":59,"x_max":275,"o":"m 275 451 l 145 451 l 145 884 l 59 884 l 59 986 l 275 1002 l 275 451 z "},"º":{"ha":634,"x_min":81,"x_max":551,"o":"m 81 774 q 144 938 81 875 q 315 1002 208 1002 q 487 938 422 1002 q 551 774 551 875 l 551 695 q 487 531 551 594 q 317 469 423 469 q 145 531 209 469 q 81 695 81 594 l 81 774 m 199 695 q 229 603 199 637 q 317 568 259 568 q 402 603 372 568 q 432 695 432 637 l 432 774 q 402 866 432 831 q 315 901 372 901 q 229 866 258 901 q 199 774 199 831 l 199 695 z "},"»":{"ha":674,"x_min":72,"x_max":615,"o":"m 239 373 l 72 644 l 185 644 l 380 380 l 380 367 l 185 102 l 72 102 l 239 373 m 474 373 l 307 644 l 420 644 l 615 380 l 615 367 l 420 102 l 307 102 l 474 373 z "},"¼":{"ha":1050,"x_min":119,"x_max":1019,"o":"m 336 450 l 205 450 l 205 884 l 119 884 l 119 985 l 336 1001 l 336 450 m 305 79 l 220 128 l 703 900 l 787 851 l 305 79 m 942 197 l 1019 197 l 1019 98 l 942 98 l 942 0 l 812 0 l 812 98 l 532 98 l 526 177 l 812 543 l 942 543 l 942 197 m 663 200 l 665 197 l 812 197 l 812 385 l 808 386 l 800 372 l 663 200 z "},"½":{"ha":1111,"x_min":119,"x_max":1042,"o":"m 314 79 l 229 128 l 711 900 l 796 851 l 314 79 m 336 450 l 205 450 l 205 884 l 119 884 l 119 985 l 336 1001 l 336 450 m 1042 0 l 630 0 l 630 98 l 837 272 q 894 332 880 309 q 907 384 907 356 q 890 433 907 414 q 836 452 873 452 q 773 431 795 452 q 751 378 751 411 l 629 378 l 627 382 q 682 502 623 452 q 838 551 740 551 q 985 507 932 551 q 1038 383 1038 463 q 1005 288 1038 328 q 890 177 972 248 l 803 102 l 804 98 l 1042 98 l 1042 0 z "},"¾":{"ha":1189,"x_min":77,"x_max":1147,"o":"m 429 79 l 345 128 l 827 900 l 911 851 l 429 79 m 1070 197 l 1147 197 l 1147 98 l 1070 98 l 1070 0 l 941 0 l 941 98 l 661 98 l 654 177 l 940 543 l 1070 543 l 1070 197 m 791 200 l 793 197 l 941 197 l 941 385 l 937 386 l 928 372 l 791 200 m 294 773 q 358 791 338 773 q 379 842 379 809 q 357 886 379 868 q 293 904 335 904 q 236 889 257 904 q 214 851 214 874 l 92 851 l 90 855 q 144 962 86 922 q 291 1003 203 1003 q 450 963 392 1003 q 509 848 509 922 q 485 780 509 810 q 419 732 460 749 q 492 683 467 715 q 517 605 517 651 q 456 487 517 529 q 294 445 395 445 q 140 486 203 445 q 81 603 77 527 l 83 607 l 205 607 q 229 561 205 578 q 294 543 252 543 q 363 561 337 543 q 389 609 389 578 q 365 666 389 647 q 294 684 340 684 l 210 684 l 210 773 l 294 773 z "},"¿":{"ha":695,"x_min":65,"x_max":664,"o":"m 464 454 q 441 315 463 356 q 345 211 420 273 q 260 111 291 157 q 230 8 230 64 q 265 -94 230 -58 q 368 -130 300 -130 q 462 -99 422 -130 q 503 -7 501 -68 l 661 -7 l 663 -12 q 581 -200 664 -132 q 368 -267 498 -267 q 145 -195 224 -267 q 65 5 65 -122 q 115 165 65 92 q 241 300 164 239 q 289 364 279 333 q 300 454 300 395 l 464 454 m 297 734 l 465 734 l 465 576 l 297 576 l 297 734 z "},"À":{"ha":882,"x_min":22,"x_max":863,"o":"m 618 231 l 268 231 l 192 0 l 22 0 l 366 987 l 523 987 l 863 0 l 693 0 l 618 231 m 313 368 l 573 368 l 446 758 l 442 758 l 313 368 m 516 1085 l 379 1085 l 203 1261 l 204 1265 l 391 1265 l 516 1085 z "},"Á":{"ha":882,"x_min":22,"x_max":863,"o":"m 618 231 l 268 231 l 192 0 l 22 0 l 366 987 l 523 987 l 863 0 l 693 0 l 618 231 m 313 368 l 573 368 l 446 758 l 442 758 l 313 368 m 494 1265 l 680 1265 l 682 1261 l 496 1084 l 364 1084 l 494 1265 z "},"Â":{"ha":882,"x_min":22,"x_max":863,"o":"m 618 231 l 268 231 l 192 0 l 22 0 l 366 987 l 523 987 l 863 0 l 693 0 l 618 231 m 313 368 l 573 368 l 446 758 l 442 758 l 313 368 m 671 1099 l 671 1083 l 538 1083 l 441 1177 l 345 1083 l 214 1083 l 214 1101 l 393 1263 l 490 1263 l 671 1099 z "},"Ã":{"ha":882,"x_min":22,"x_max":863,"o":"m 618 231 l 268 231 l 192 0 l 22 0 l 366 987 l 523 987 l 863 0 l 693 0 l 618 231 m 313 368 l 573 368 l 446 758 l 442 758 l 313 368 m 686 1256 q 646 1146 686 1192 q 544 1101 605 1101 q 440 1131 496 1101 q 349 1161 384 1161 q 304 1139 323 1161 q 286 1086 286 1117 l 197 1110 q 238 1221 197 1174 q 339 1268 278 1268 q 438 1238 377 1268 q 534 1208 498 1208 q 578 1230 559 1208 q 597 1282 597 1251 l 686 1256 z "},"Ä":{"ha":882,"x_min":22,"x_max":863,"o":"m 618 231 l 268 231 l 192 0 l 22 0 l 366 987 l 523 987 l 863 0 l 693 0 l 618 231 m 313 368 l 573 368 l 446 758 l 442 758 l 313 368 m 688 1086 l 524 1086 l 524 1224 l 688 1224 l 688 1086 m 359 1086 l 196 1086 l 196 1224 l 359 1224 l 359 1086 z "},"Å":{"ha":882,"x_min":22,"x_max":863,"o":"m 618 231 l 268 231 l 192 0 l 22 0 l 366 987 l 523 987 l 863 0 l 693 0 l 618 231 m 313 368 l 573 368 l 446 758 l 442 758 l 313 368 m 319 1180 q 355 1263 319 1230 q 442 1297 391 1297 q 528 1263 492 1297 q 563 1180 563 1230 q 528 1098 563 1130 q 442 1067 493 1067 q 354 1099 390 1067 q 319 1180 319 1131 m 392 1180 q 407 1145 392 1159 q 442 1131 421 1131 q 476 1145 462 1131 q 490 1180 490 1159 q 476 1217 490 1202 q 442 1232 463 1232 q 406 1217 420 1232 q 392 1180 392 1202 z "},"Æ":{"ha":1340,"x_min":9,"x_max":1290,"o":"m 1290 0 l 682 0 l 671 231 l 330 231 l 205 0 l 9 0 l 575 987 l 1249 987 l 1249 854 l 810 854 l 821 577 l 1194 577 l 1194 444 l 827 444 l 840 133 l 1290 133 l 1290 0 m 409 376 l 665 376 l 647 809 l 644 810 l 409 376 z "},"Ç":{"ha":882,"x_min":74,"x_max":830,"o":"m 825 323 l 827 319 q 730 78 829 170 q 460 -14 630 -14 q 181 102 288 -14 q 74 399 74 218 l 74 587 q 180 885 74 768 q 456 1002 286 1002 q 730 913 630 1002 q 827 669 830 824 l 826 665 l 667 665 q 613 817 667 764 q 456 869 559 869 q 297 790 355 869 q 238 589 238 710 l 238 399 q 298 197 238 277 q 460 117 357 117 q 614 170 562 117 q 667 323 667 223 l 825 323 m 519 -1 l 512 -38 q 585 -73 555 -45 q 614 -155 614 -101 q 556 -266 614 -224 q 392 -307 498 -307 l 387 -214 q 455 -199 429 -214 q 480 -153 480 -184 q 457 -111 480 -123 q 378 -96 433 -99 l 399 -1 l 519 -1 z "},"È":{"ha":769,"x_min":104,"x_max":724,"o":"m 655 444 l 269 444 l 269 132 l 724 132 l 724 0 l 104 0 l 104 987 l 720 987 l 720 855 l 269 855 l 269 576 l 655 576 l 655 444 m 488 1085 l 351 1085 l 175 1261 l 176 1265 l 363 1265 l 488 1085 z "},"É":{"ha":769,"x_min":104,"x_max":724,"o":"m 655 444 l 269 444 l 269 132 l 724 132 l 724 0 l 104 0 l 104 987 l 720 987 l 720 855 l 269 855 l 269 576 l 655 576 l 655 444 m 466 1265 l 652 1265 l 654 1261 l 469 1084 l 336 1084 l 466 1265 z "},"Ê":{"ha":769,"x_min":104,"x_max":724,"o":"m 655 444 l 269 444 l 269 132 l 724 132 l 724 0 l 104 0 l 104 987 l 720 987 l 720 855 l 269 855 l 269 576 l 655 576 l 655 444 m 643 1099 l 643 1083 l 511 1083 l 414 1177 l 317 1083 l 186 1083 l 186 1101 l 366 1263 l 463 1263 l 643 1099 z "},"Ë":{"ha":769,"x_min":104,"x_max":724,"o":"m 655 444 l 269 444 l 269 132 l 724 132 l 724 0 l 104 0 l 104 987 l 720 987 l 720 855 l 269 855 l 269 576 l 655 576 l 655 444 m 660 1086 l 496 1086 l 496 1224 l 660 1224 l 660 1086 m 332 1086 l 168 1086 l 168 1224 l 332 1224 l 332 1086 z "},"Ì":{"ha":399,"x_min":-39,"x_max":282,"o":"m 282 0 l 117 0 l 117 987 l 282 987 l 282 0 m 275 1085 l 138 1085 l -39 1261 l -37 1265 l 150 1265 l 275 1085 z "},"Í":{"ha":399,"x_min":117,"x_max":439,"o":"m 282 0 l 117 0 l 117 987 l 282 987 l 282 0 m 252 1265 l 438 1265 l 439 1261 l 254 1084 l 122 1084 l 252 1265 z "},"Î":{"ha":399,"x_min":-27,"x_max":429,"o":"m 282 0 l 117 0 l 117 987 l 282 987 l 282 0 m 429 1099 l 429 1083 l 297 1083 l 200 1177 l 104 1083 l -27 1083 l -27 1101 l 152 1263 l 249 1263 l 429 1099 z "},"Ï":{"ha":399,"x_min":-45,"x_max":446,"o":"m 282 0 l 117 0 l 117 987 l 282 987 l 282 0 m 446 1086 l 282 1086 l 282 1224 l 446 1224 l 446 1086 m 118 1086 l -45 1086 l -45 1224 l 118 1224 l 118 1086 z "},"Ð":{"ha":930,"x_min":-1,"x_max":853,"o":"m 104 0 l 104 446 l -1 446 l -1 561 l 104 561 l 104 987 l 430 987 q 735 870 618 987 q 853 568 853 753 l 853 418 q 735 117 853 233 q 430 0 618 0 l 104 0 m 444 446 l 269 446 l 269 132 l 430 132 q 618 212 549 132 q 688 418 688 292 l 688 570 q 618 775 688 694 q 430 855 549 855 l 269 855 l 269 561 l 444 561 l 444 446 z "},"Ñ":{"ha":979,"x_min":104,"x_max":875,"o":"m 875 0 l 710 0 l 273 711 l 269 710 l 269 0 l 104 0 l 104 987 l 269 987 l 706 276 l 710 277 l 710 987 l 875 987 l 875 0 m 733 1256 q 692 1146 733 1192 q 591 1101 652 1101 q 487 1131 543 1101 q 396 1161 431 1161 q 351 1139 370 1161 q 333 1086 333 1117 l 244 1110 q 284 1221 244 1174 q 386 1268 325 1268 q 485 1238 424 1268 q 581 1208 545 1208 q 625 1230 606 1208 q 644 1282 644 1251 l 733 1256 z "},"Ò":{"ha":951,"x_min":71,"x_max":880,"o":"m 880 405 q 766 105 880 224 q 471 -14 652 -14 q 182 105 294 -14 q 71 405 71 224 l 71 583 q 182 882 71 763 q 471 1002 293 1002 q 766 882 652 1002 q 880 583 880 763 l 880 405 m 715 584 q 649 787 715 707 q 471 866 583 866 q 299 787 361 866 q 236 584 236 707 l 236 405 q 299 200 236 280 q 471 121 362 121 q 649 200 584 121 q 715 405 715 279 l 715 584 m 550 1099 l 413 1099 l 237 1276 l 238 1280 l 425 1280 l 550 1099 z "},"Ó":{"ha":951,"x_min":71,"x_max":880,"o":"m 880 405 q 766 105 880 224 q 471 -14 652 -14 q 182 105 294 -14 q 71 405 71 224 l 71 583 q 182 882 71 763 q 471 1002 293 1002 q 766 882 652 1002 q 880 583 880 763 l 880 405 m 715 584 q 649 787 715 707 q 471 866 583 866 q 299 787 361 866 q 236 584 236 707 l 236 405 q 299 200 236 280 q 471 121 362 121 q 649 200 584 121 q 715 405 715 279 l 715 584 m 528 1279 l 714 1279 l 715 1275 l 530 1099 l 398 1099 l 528 1279 z "},"Ô":{"ha":951,"x_min":71,"x_max":880,"o":"m 880 405 q 766 105 880 224 q 471 -14 652 -14 q 182 105 294 -14 q 71 405 71 224 l 71 583 q 182 882 71 763 q 471 1002 293 1002 q 766 882 652 1002 q 880 583 880 763 l 880 405 m 715 584 q 649 787 715 707 q 471 866 583 866 q 299 787 361 866 q 236 584 236 707 l 236 405 q 299 200 236 280 q 471 121 362 121 q 649 200 584 121 q 715 405 715 279 l 715 584 m 705 1114 l 705 1097 l 572 1097 l 475 1192 l 379 1097 l 248 1097 l 248 1115 l 427 1278 l 524 1278 l 705 1114 z "},"Õ":{"ha":951,"x_min":71,"x_max":880,"o":"m 880 405 q 766 105 880 224 q 471 -14 652 -14 q 182 105 294 -14 q 71 405 71 224 l 71 583 q 182 882 71 763 q 471 1002 293 1002 q 766 882 652 1002 q 880 583 880 763 l 880 405 m 715 584 q 649 787 715 707 q 471 866 583 866 q 299 787 361 866 q 236 584 236 707 l 236 405 q 299 200 236 280 q 471 121 362 121 q 649 200 584 121 q 715 405 715 279 l 715 584 m 720 1270 q 680 1160 720 1206 q 578 1115 639 1115 q 474 1145 530 1115 q 383 1175 418 1175 q 338 1153 357 1175 q 320 1101 320 1131 l 231 1124 q 272 1235 231 1188 q 373 1282 312 1282 q 472 1252 411 1282 q 568 1222 532 1222 q 612 1244 593 1222 q 631 1297 631 1265 l 720 1270 z "},"Ö":{"ha":951,"x_min":71,"x_max":880,"o":"m 880 405 q 766 105 880 224 q 471 -14 652 -14 q 182 105 294 -14 q 71 405 71 224 l 71 583 q 182 882 71 763 q 471 1002 293 1002 q 766 882 652 1002 q 880 583 880 763 l 880 405 m 715 584 q 649 787 715 707 q 471 866 583 866 q 299 787 361 866 q 236 584 236 707 l 236 405 q 299 200 236 280 q 471 121 362 121 q 649 200 584 121 q 715 405 715 279 l 715 584 m 722 1100 l 557 1100 l 557 1238 l 722 1238 l 722 1100 m 393 1100 l 230 1100 l 230 1238 l 393 1238 l 393 1100 z "},"×":{"ha":741,"x_min":52,"x_max":681,"o":"m 52 247 l 267 465 l 52 684 l 153 785 l 366 567 l 581 785 l 681 684 l 467 465 l 681 247 l 581 145 l 366 363 l 153 145 l 52 247 z "},"Ø":{"ha":951,"x_min":71,"x_max":880,"o":"m 880 405 q 766 105 880 224 q 471 -14 652 -14 q 364 -2 414 -14 q 271 35 314 11 l 213 -64 l 113 -64 l 201 86 q 105 225 139 143 q 71 405 71 308 l 71 583 q 182 882 71 763 q 471 1002 293 1002 q 594 985 536 1002 q 701 936 652 968 l 755 1029 l 856 1029 l 768 880 q 850 747 821 823 q 880 583 880 670 l 880 405 m 236 405 q 248 307 236 353 q 281 229 259 262 l 285 229 l 627 810 q 556 851 596 837 q 471 866 517 866 q 299 787 361 866 q 236 584 236 707 l 236 405 m 715 584 q 707 663 715 626 q 684 730 699 701 l 680 730 l 344 159 q 401 130 370 140 q 471 121 433 121 q 649 200 584 121 q 715 405 715 279 l 715 584 z "},"Ù":{"ha":947,"x_min":91,"x_max":858,"o":"m 858 987 l 858 337 q 750 79 858 172 q 471 -14 642 -14 q 197 79 302 -14 q 91 337 91 172 l 91 987 l 256 987 l 256 337 q 315 175 256 232 q 471 117 374 117 q 632 175 571 117 q 693 337 693 232 l 693 987 l 858 987 m 549 1085 l 412 1085 l 236 1261 l 237 1265 l 425 1265 l 549 1085 z "},"Ú":{"ha":947,"x_min":91,"x_max":858,"o":"m 858 987 l 858 337 q 750 79 858 172 q 471 -14 642 -14 q 197 79 302 -14 q 91 337 91 172 l 91 987 l 256 987 l 256 337 q 315 175 256 232 q 471 117 374 117 q 632 175 571 117 q 693 337 693 232 l 693 987 l 858 987 m 527 1265 l 713 1265 l 715 1261 l 530 1084 l 397 1084 l 527 1265 z "},"Û":{"ha":947,"x_min":91,"x_max":858,"o":"m 858 987 l 858 337 q 750 79 858 172 q 471 -14 642 -14 q 197 79 302 -14 q 91 337 91 172 l 91 987 l 256 987 l 256 337 q 315 175 256 232 q 471 117 374 117 q 632 175 571 117 q 693 337 693 232 l 693 987 l 858 987 m 704 1099 l 704 1083 l 572 1083 l 475 1177 l 378 1083 l 248 1083 l 248 1101 l 427 1263 l 524 1263 l 704 1099 z "},"Ü":{"ha":947,"x_min":91,"x_max":858,"o":"m 858 987 l 858 337 q 750 79 858 172 q 471 -14 642 -14 q 197 79 302 -14 q 91 337 91 172 l 91 987 l 256 987 l 256 337 q 315 175 256 232 q 471 117 374 117 q 632 175 571 117 q 693 337 693 232 l 693 987 l 858 987 m 721 1086 l 557 1086 l 557 1224 l 721 1224 l 721 1086 m 393 1086 l 229 1086 l 229 1224 l 393 1224 l 393 1086 z "},"Ý":{"ha":882,"x_min":18,"x_max":861,"o":"m 439 507 l 677 987 l 861 987 l 519 345 l 519 0 l 355 0 l 355 355 l 18 987 l 201 987 l 439 507 m 494 1265 l 680 1265 l 682 1261 l 496 1084 l 364 1084 l 494 1265 z "},"Þ":{"ha":831,"x_min":100,"x_max":780,"o":"m 265 987 l 265 798 l 432 798 q 688 715 596 798 q 780 500 780 633 q 688 286 780 368 q 432 203 596 203 l 265 203 l 265 0 l 100 0 l 100 987 l 265 987 m 265 665 l 265 336 l 432 336 q 569 383 524 336 q 615 499 615 430 q 569 617 615 570 q 432 665 524 665 l 265 665 z "},"ß":{"ha":851,"x_min":92,"x_max":800,"o":"m 256 0 l 92 0 l 92 741 q 176 978 92 893 q 396 1063 259 1063 q 586 1001 511 1063 q 660 821 660 939 q 620 674 660 745 q 580 562 580 604 q 690 420 580 516 q 800 230 800 323 q 726 47 800 108 q 518 -14 652 -14 q 405 -3 463 -14 q 322 28 348 9 l 355 161 q 425 131 383 144 q 509 117 467 117 q 604 145 572 117 q 635 222 635 174 q 525 367 635 273 q 415 559 415 461 q 458 688 415 617 q 500 810 500 760 q 468 898 500 865 q 393 930 436 930 q 294 880 332 930 q 256 740 256 830 l 256 0 z "},"à":{"ha":755,"x_min":56,"x_max":696,"o":"m 529 0 q 514 54 520 28 q 507 107 509 81 q 418 21 473 56 q 294 -14 362 -14 q 118 45 179 -14 q 56 207 56 104 q 140 373 56 313 q 377 432 224 432 l 505 432 l 505 496 q 472 587 505 554 q 374 619 438 619 q 285 592 318 619 q 252 523 252 566 l 93 522 l 92 526 q 170 680 87 613 q 385 747 252 747 q 591 682 513 747 q 670 495 670 617 l 670 169 q 676 82 670 123 q 696 0 682 40 l 529 0 m 328 118 q 439 149 389 118 q 505 220 489 180 l 505 329 l 374 329 q 262 293 302 329 q 221 210 221 258 q 249 143 221 168 q 328 118 276 118 m 448 867 l 311 867 l 135 1043 l 136 1047 l 323 1047 l 448 867 z "},"á":{"ha":755,"x_min":56,"x_max":696,"o":"m 529 0 q 514 54 520 28 q 507 107 509 81 q 418 21 473 56 q 294 -14 362 -14 q 118 45 179 -14 q 56 207 56 104 q 140 373 56 313 q 377 432 224 432 l 505 432 l 505 496 q 472 587 505 554 q 374 619 438 619 q 285 592 318 619 q 252 523 252 566 l 93 522 l 92 526 q 170 680 87 613 q 385 747 252 747 q 591 682 513 747 q 670 495 670 617 l 670 169 q 676 82 670 123 q 696 0 682 40 l 529 0 m 328 118 q 439 149 389 118 q 505 220 489 180 l 505 329 l 374 329 q 262 293 302 329 q 221 210 221 258 q 249 143 221 168 q 328 118 276 118 m 426 1046 l 612 1046 l 614 1042 l 429 866 l 296 866 l 426 1046 z "},"â":{"ha":755,"x_min":56,"x_max":696,"o":"m 529 0 q 514 54 520 28 q 507 107 509 81 q 418 21 473 56 q 294 -14 362 -14 q 118 45 179 -14 q 56 207 56 104 q 140 373 56 313 q 377 432 224 432 l 505 432 l 505 496 q 472 587 505 554 q 374 619 438 619 q 285 592 318 619 q 252 523 252 566 l 93 522 l 92 526 q 170 680 87 613 q 385 747 252 747 q 591 682 513 747 q 670 495 670 617 l 670 169 q 676 82 670 123 q 696 0 682 40 l 529 0 m 328 118 q 439 149 389 118 q 505 220 489 180 l 505 329 l 374 329 q 262 293 302 329 q 221 210 221 258 q 249 143 221 168 q 328 118 276 118 m 603 881 l 603 865 l 471 865 l 374 959 l 277 865 l 146 865 l 146 882 l 326 1045 l 422 1045 l 603 881 z "},"ã":{"ha":755,"x_min":56,"x_max":696,"o":"m 529 0 q 514 54 520 28 q 507 107 509 81 q 418 21 473 56 q 294 -14 362 -14 q 118 45 179 -14 q 56 207 56 104 q 140 373 56 313 q 377 432 224 432 l 505 432 l 505 496 q 472 587 505 554 q 374 619 438 619 q 285 592 318 619 q 252 523 252 566 l 93 522 l 92 526 q 170 680 87 613 q 385 747 252 747 q 591 682 513 747 q 670 495 670 617 l 670 169 q 676 82 670 123 q 696 0 682 40 l 529 0 m 328 118 q 439 149 389 118 q 505 220 489 180 l 505 329 l 374 329 q 262 293 302 329 q 221 210 221 258 q 249 143 221 168 q 328 118 276 118 m 618 1038 q 578 928 618 973 q 476 882 537 882 q 372 912 428 882 q 281 943 316 943 q 237 921 255 943 q 218 868 218 899 l 130 892 q 170 1003 130 956 q 271 1050 210 1050 q 370 1020 309 1050 q 466 989 431 989 q 511 1011 492 989 q 530 1064 530 1033 l 618 1038 z "},"ä":{"ha":755,"x_min":56,"x_max":696,"o":"m 529 0 q 514 54 520 28 q 507 107 509 81 q 418 21 473 56 q 294 -14 362 -14 q 118 45 179 -14 q 56 207 56 104 q 140 373 56 313 q 377 432 224 432 l 505 432 l 505 496 q 472 587 505 554 q 374 619 438 619 q 285 592 318 619 q 252 523 252 566 l 93 522 l 92 526 q 170 680 87 613 q 385 747 252 747 q 591 682 513 747 q 670 495 670 617 l 670 169 q 676 82 670 123 q 696 0 682 40 l 529 0 m 328 118 q 439 149 389 118 q 505 220 489 180 l 505 329 l 374 329 q 262 293 302 329 q 221 210 221 258 q 249 143 221 168 q 328 118 276 118 m 620 867 l 456 867 l 456 1006 l 620 1006 l 620 867 m 292 867 l 128 867 l 128 1006 l 292 1006 l 292 867 z "},"å":{"ha":755,"x_min":56,"x_max":696,"o":"m 529 0 q 514 54 520 28 q 507 107 509 81 q 418 21 473 56 q 294 -14 362 -14 q 118 45 179 -14 q 56 207 56 104 q 140 373 56 313 q 377 432 224 432 l 505 432 l 505 496 q 472 587 505 554 q 374 619 438 619 q 285 592 318 619 q 252 523 252 566 l 93 522 l 92 526 q 170 680 87 613 q 385 747 252 747 q 591 682 513 747 q 670 495 670 617 l 670 169 q 676 82 670 123 q 696 0 682 40 l 529 0 m 328 118 q 439 149 389 118 q 505 220 489 180 l 505 329 l 374 329 q 262 293 302 329 q 221 210 221 258 q 249 143 221 168 q 328 118 276 118 m 251 962 q 287 1045 251 1011 q 374 1078 323 1078 q 460 1045 425 1078 q 495 962 495 1011 q 460 880 495 911 q 374 848 425 848 q 287 880 322 848 q 251 962 251 912 m 324 962 q 339 927 324 941 q 374 913 353 913 q 408 927 394 913 q 422 962 422 941 q 408 998 422 983 q 374 1013 395 1013 q 338 998 353 1013 q 324 962 324 983 z "},"æ":{"ha":1207,"x_min":57,"x_max":1153,"o":"m 872 -14 q 713 16 783 -14 q 599 102 644 46 q 486 19 559 52 q 313 -14 414 -14 q 124 46 191 -14 q 57 212 57 107 q 139 377 57 319 q 377 435 220 435 l 517 435 l 517 484 q 485 580 517 545 q 395 615 454 615 q 296 585 332 615 q 260 510 260 554 l 102 522 l 100 526 q 178 685 96 622 q 397 747 260 747 q 528 725 470 747 q 623 659 585 702 q 723 725 666 702 q 848 747 780 747 q 1073 659 993 747 q 1153 415 1153 570 l 1153 319 l 692 319 l 690 315 q 740 172 692 227 q 882 117 787 117 q 991 133 949 117 q 1089 180 1033 149 l 1138 68 q 1031 11 1099 37 q 872 -14 963 -14 m 345 111 q 439 136 390 111 q 517 194 489 161 l 517 322 l 378 322 q 263 289 304 322 q 222 209 222 256 q 253 138 222 165 q 345 111 283 111 m 848 615 q 738 567 777 615 q 692 439 699 518 l 693 435 l 990 435 l 990 456 q 955 571 990 527 q 848 615 920 615 z "},"ç":{"ha":722,"x_min":55,"x_max":673,"o":"m 386 117 q 481 153 442 117 q 520 242 520 188 l 669 242 l 671 238 q 589 60 673 135 q 386 -14 505 -14 q 141 91 227 -14 q 55 355 55 195 l 55 378 q 141 642 55 537 q 385 747 227 747 q 593 670 513 747 q 671 475 673 593 l 669 471 l 520 471 q 483 573 520 531 q 385 615 446 615 q 258 547 297 615 q 220 378 220 479 l 220 355 q 258 185 220 252 q 386 117 296 117 m 436 -1 l 429 -38 q 501 -73 472 -45 q 530 -155 530 -101 q 473 -266 530 -224 q 309 -307 415 -307 l 304 -214 q 371 -199 346 -214 q 397 -153 397 -184 q 373 -111 397 -123 q 294 -96 350 -99 l 316 -1 l 436 -1 z "},"è":{"ha":727,"x_min":56,"x_max":680,"o":"m 398 -14 q 147 87 237 -14 q 56 350 56 189 l 56 377 q 147 643 56 538 q 380 747 237 748 q 604 656 528 747 q 680 412 680 565 l 680 323 l 227 323 l 225 320 q 273 174 228 230 q 408 117 317 117 q 524 134 475 117 q 615 180 573 150 l 669 73 q 557 11 627 36 q 398 -14 488 -14 m 380 615 q 277 569 316 615 q 229 448 239 522 l 231 444 l 517 444 l 517 457 q 485 571 517 528 q 380 615 452 615 m 440 867 l 303 867 l 127 1044 l 128 1048 l 315 1048 l 440 867 z "},"é":{"ha":727,"x_min":56,"x_max":680,"o":"m 398 -14 q 147 87 237 -14 q 56 350 56 189 l 56 377 q 147 643 56 538 q 380 747 237 748 q 604 656 528 747 q 680 412 680 565 l 680 323 l 227 323 l 225 320 q 273 174 228 230 q 408 117 317 117 q 524 134 475 117 q 615 180 573 150 l 669 73 q 557 11 627 36 q 398 -14 488 -14 m 380 615 q 277 569 316 615 q 229 448 239 522 l 231 444 l 517 444 l 517 457 q 485 571 517 528 q 380 615 452 615 m 418 1047 l 604 1047 l 606 1043 l 420 867 l 288 867 l 418 1047 z "},"ê":{"ha":727,"x_min":56,"x_max":680,"o":"m 398 -14 q 147 87 237 -14 q 56 350 56 189 l 56 377 q 147 643 56 538 q 380 747 237 748 q 604 656 528 747 q 680 412 680 565 l 680 323 l 227 323 l 225 320 q 273 174 228 230 q 408 117 317 117 q 524 134 475 117 q 615 180 573 150 l 669 73 q 557 11 627 36 q 398 -14 488 -14 m 380 615 q 277 569 316 615 q 229 448 239 522 l 231 444 l 517 444 l 517 457 q 485 571 517 528 q 380 615 452 615 m 595 882 l 595 865 l 463 865 l 366 960 l 269 865 l 138 865 l 138 883 l 317 1046 l 414 1046 l 595 882 z "},"ë":{"ha":727,"x_min":56,"x_max":680,"o":"m 398 -14 q 147 87 237 -14 q 56 350 56 189 l 56 377 q 147 643 56 538 q 380 747 237 748 q 604 656 528 747 q 680 412 680 565 l 680 323 l 227 323 l 225 320 q 273 174 228 230 q 408 117 317 117 q 524 134 475 117 q 615 180 573 150 l 669 73 q 557 11 627 36 q 398 -14 488 -14 m 380 615 q 277 569 316 615 q 229 448 239 522 l 231 444 l 517 444 l 517 457 q 485 571 517 528 q 380 615 452 615 m 612 868 l 448 868 l 448 1006 l 612 1006 l 612 868 m 283 868 l 120 868 l 120 1006 l 283 1006 l 283 868 z "},"ì":{"ha":365,"x_min":-58,"x_max":262,"o":"m 262 0 l 97 0 l 97 734 l 262 734 l 262 0 m 255 852 l 118 852 l -58 1029 l -57 1033 l 130 1033 l 255 852 z "},"í":{"ha":365,"x_min":97,"x_max":420,"o":"m 262 0 l 97 0 l 97 734 l 262 734 l 262 0 m 232 1032 l 418 1032 l 420 1028 l 235 852 l 102 852 l 232 1032 z "},"î":{"ha":365,"x_min":-47,"x_max":410,"o":"m 262 0 l 97 0 l 97 734 l 262 734 l 262 0 m 410 867 l 410 850 l 277 850 l 180 945 l 84 850 l -47 850 l -47 868 l 132 1031 l 229 1031 l 410 867 z "},"ï":{"ha":365,"x_min":-65,"x_max":427,"o":"m 262 0 l 97 0 l 97 734 l 262 734 l 262 0 m 427 853 l 262 853 l 262 991 l 427 991 l 427 853 m 98 853 l -65 853 l -65 991 l 98 991 l 98 853 z "},"ð":{"ha":821,"x_min":41,"x_max":747,"o":"m 608 876 q 711 711 675 805 q 747 507 747 618 l 747 367 q 646 92 747 199 q 391 -14 544 -14 q 139 81 237 -14 q 41 317 41 176 q 133 565 41 471 q 376 660 226 660 q 485 638 434 660 q 572 582 536 617 l 574 585 q 538 702 566 649 q 467 796 511 755 l 286 694 l 233 768 l 381 852 l 381 856 q 333 878 359 867 q 280 896 307 888 l 331 1029 q 439 993 388 1016 q 536 939 491 970 l 676 1018 l 729 944 l 608 876 m 394 117 q 531 188 479 117 q 583 367 583 258 l 583 456 q 510 511 559 489 q 391 532 460 532 q 255 471 305 532 q 205 317 205 410 q 257 176 205 235 q 394 117 308 117 z "},"ñ":{"ha":787,"x_min":85,"x_max":702,"o":"m 236 734 l 245 628 q 336 716 281 684 q 459 747 391 747 q 638 677 574 747 q 702 456 702 606 l 702 0 l 537 0 l 537 455 q 504 576 537 541 q 404 612 471 612 q 312 592 351 612 q 250 537 273 572 l 250 0 l 85 0 l 85 734 l 236 734 m 636 1038 q 595 928 636 973 q 494 882 555 882 q 390 912 446 882 q 299 943 334 943 q 254 921 273 943 q 236 868 236 899 l 147 892 q 188 1003 147 956 q 289 1050 228 1050 q 388 1020 327 1050 q 484 989 448 989 q 528 1011 509 989 q 547 1064 547 1033 l 636 1038 z "},"ò":{"ha":787,"x_min":56,"x_max":730,"o":"m 56 374 q 146 643 56 538 q 392 747 236 747 q 640 643 550 747 q 730 374 730 538 l 730 359 q 640 90 730 194 q 393 -14 550 -14 q 146 90 236 -14 q 56 359 56 195 l 56 374 m 221 359 q 263 184 221 252 q 393 117 305 117 q 523 185 479 117 q 566 359 566 252 l 566 374 q 523 547 566 479 q 392 615 479 615 q 263 547 306 615 q 221 374 221 479 l 221 359 m 467 867 l 330 867 l 154 1043 l 155 1047 l 342 1047 l 467 867 z "},"ó":{"ha":787,"x_min":56,"x_max":730,"o":"m 56 374 q 146 643 56 538 q 392 747 236 747 q 640 643 550 747 q 730 374 730 538 l 730 359 q 640 90 730 194 q 393 -14 550 -14 q 146 90 236 -14 q 56 359 56 195 l 56 374 m 221 359 q 263 184 221 252 q 393 117 305 117 q 523 185 479 117 q 566 359 566 252 l 566 374 q 523 547 566 479 q 392 615 479 615 q 263 547 306 615 q 221 374 221 479 l 221 359 m 445 1046 l 631 1046 l 633 1042 l 448 866 l 315 866 l 445 1046 z "},"ô":{"ha":787,"x_min":56,"x_max":730,"o":"m 56 374 q 146 643 56 538 q 392 747 236 747 q 640 643 550 747 q 730 374 730 538 l 730 359 q 640 90 730 194 q 393 -14 550 -14 q 146 90 236 -14 q 56 359 56 195 l 56 374 m 221 359 q 263 184 221 252 q 393 117 305 117 q 523 185 479 117 q 566 359 566 252 l 566 374 q 523 547 566 479 q 392 615 479 615 q 263 547 306 615 q 221 374 221 479 l 221 359 m 622 881 l 622 865 l 490 865 l 393 959 l 296 865 l 165 865 l 165 882 l 345 1045 l 441 1045 l 622 881 z "},"õ":{"ha":787,"x_min":56,"x_max":730,"o":"m 56 374 q 146 643 56 538 q 392 747 236 747 q 640 643 550 747 q 730 374 730 538 l 730 359 q 640 90 730 194 q 393 -14 550 -14 q 146 90 236 -14 q 56 359 56 195 l 56 374 m 221 359 q 263 184 221 252 q 393 117 305 117 q 523 185 479 117 q 566 359 566 252 l 566 374 q 523 547 566 479 q 392 615 479 615 q 263 547 306 615 q 221 374 221 479 l 221 359 m 637 1038 q 597 928 637 973 q 495 882 556 882 q 391 912 447 882 q 300 943 335 943 q 256 921 274 943 q 237 868 237 899 l 149 892 q 189 1003 149 956 q 290 1050 229 1050 q 389 1020 328 1050 q 485 989 450 989 q 530 1011 511 989 q 549 1064 549 1033 l 637 1038 z "},"ö":{"ha":787,"x_min":56,"x_max":730,"o":"m 56 374 q 146 643 56 538 q 392 747 236 747 q 640 643 550 747 q 730 374 730 538 l 730 359 q 640 90 730 194 q 393 -14 550 -14 q 146 90 236 -14 q 56 359 56 195 l 56 374 m 221 359 q 263 184 221 252 q 393 117 305 117 q 523 185 479 117 q 566 359 566 252 l 566 374 q 523 547 566 479 q 392 615 479 615 q 263 547 306 615 q 221 374 221 479 l 221 359 m 639 867 l 475 867 l 475 1006 l 639 1006 l 639 867 m 311 867 l 147 867 l 147 1006 l 311 1006 l 311 867 z "},"÷":{"ha":793,"x_min":45,"x_max":732,"o":"m 732 395 l 45 395 l 45 538 l 732 538 l 732 395 m 472 668 l 307 668 l 307 818 l 472 818 l 472 668 m 472 115 l 307 115 l 307 265 l 472 265 l 472 115 z "},"ø":{"ha":787,"x_min":56,"x_max":730,"o":"m 56 374 q 146 643 56 538 q 392 747 236 747 q 461 741 428 747 q 526 723 495 734 l 574 822 l 672 822 l 602 679 q 696 550 663 629 q 730 374 730 471 l 730 359 q 640 90 730 194 q 393 -14 550 -14 q 330 -9 361 -14 q 271 5 300 -4 l 222 -94 l 125 -94 l 194 47 q 92 176 127 95 q 56 359 56 258 l 56 374 m 221 359 q 231 263 221 307 q 261 193 241 220 l 265 192 l 465 599 q 430 611 448 606 q 392 615 412 615 q 263 547 306 615 q 221 374 221 479 l 221 359 m 566 374 q 557 460 566 420 q 532 528 548 500 l 528 528 l 332 128 q 361 120 345 123 q 393 117 376 117 q 523 185 479 117 q 566 359 566 252 l 566 374 z "},"ù":{"ha":787,"x_min":83,"x_max":701,"o":"m 545 109 q 457 18 511 50 q 334 -14 404 -14 q 150 63 216 -14 q 83 304 83 141 l 83 734 l 248 734 l 248 303 q 278 159 248 198 q 373 120 309 120 q 473 141 433 120 q 536 203 513 163 l 536 734 l 701 734 l 701 0 l 559 0 l 545 109 m 467 852 l 330 852 l 153 1029 l 155 1033 l 342 1033 l 467 852 z "},"ú":{"ha":787,"x_min":83,"x_max":701,"o":"m 545 109 q 457 18 511 50 q 334 -14 404 -14 q 150 63 216 -14 q 83 304 83 141 l 83 734 l 248 734 l 248 303 q 278 159 248 198 q 373 120 309 120 q 473 141 433 120 q 536 203 513 163 l 536 734 l 701 734 l 701 0 l 559 0 l 545 109 m 444 1032 l 631 1032 l 632 1028 l 447 852 l 315 852 l 444 1032 z "},"û":{"ha":787,"x_min":83,"x_max":701,"o":"m 545 109 q 457 18 511 50 q 334 -14 404 -14 q 150 63 216 -14 q 83 304 83 141 l 83 734 l 248 734 l 248 303 q 278 159 248 198 q 373 120 309 120 q 473 141 433 120 q 536 203 513 163 l 536 734 l 701 734 l 701 0 l 559 0 l 545 109 m 621 867 l 621 850 l 489 850 l 392 945 l 296 850 l 165 850 l 165 868 l 344 1031 l 441 1031 l 621 867 z "},"ü":{"ha":787,"x_min":83,"x_max":701,"o":"m 545 109 q 457 18 511 50 q 334 -14 404 -14 q 150 63 216 -14 q 83 304 83 141 l 83 734 l 248 734 l 248 303 q 278 159 248 198 q 373 120 309 120 q 473 141 433 120 q 536 203 513 163 l 536 734 l 701 734 l 701 0 l 559 0 l 545 109 m 638 853 l 474 853 l 474 991 l 638 991 l 638 853 m 310 853 l 146 853 l 146 991 l 310 991 l 310 853 z "},"ý":{"ha":704,"x_min":11,"x_max":692,"o":"m 330 294 l 347 221 l 351 221 l 511 734 l 692 734 l 388 -111 q 306 -242 359 -188 q 156 -296 253 -296 q 112 -292 136 -296 q 67 -283 89 -288 l 85 -155 q 111 -157 94 -156 q 135 -159 127 -159 q 207 -128 180 -159 q 250 -58 233 -98 l 277 9 l 11 734 l 191 734 l 330 294 m 404 1032 l 590 1032 l 591 1028 l 406 852 l 274 852 l 404 1032 z "},"þ":{"ha":797,"x_min":94,"x_max":736,"o":"m 736 342 q 661 84 736 182 q 452 -14 586 -14 q 341 8 389 -14 q 258 74 293 31 l 258 -282 l 94 -282 l 94 1058 l 258 1058 l 258 654 q 340 723 292 699 q 450 747 388 747 q 661 640 585 747 q 736 357 736 532 l 736 342 m 572 357 q 530 541 572 469 q 404 612 488 612 q 316 590 352 612 q 258 529 280 568 l 258 197 q 316 138 280 159 q 405 117 352 117 q 531 179 489 117 q 572 342 572 241 l 572 357 z "},"ÿ":{"ha":704,"x_min":11,"x_max":692,"o":"m 330 294 l 347 221 l 351 221 l 511 734 l 692 734 l 388 -111 q 306 -242 359 -188 q 156 -296 253 -296 q 112 -292 136 -296 q 67 -283 89 -288 l 85 -155 q 111 -157 94 -156 q 135 -159 127 -159 q 207 -128 180 -159 q 250 -58 233 -98 l 277 9 l 11 734 l 191 734 l 330 294 m 598 853 l 434 853 l 434 991 l 598 991 l 598 853 m 270 853 l 106 853 l 106 991 l 270 991 l 270 853 z "},"Ā":{"ha":882,"x_min":22,"x_max":863,"o":"m 618 231 l 268 231 l 192 0 l 22 0 l 366 987 l 523 987 l 863 0 l 693 0 l 618 231 m 313 368 l 573 368 l 446 758 l 442 758 l 313 368 m 690 1101 l 197 1101 l 197 1208 l 690 1208 l 690 1101 z "},"ā":{"ha":755,"x_min":56,"x_max":696,"o":"m 529 0 q 514 54 520 28 q 507 107 509 81 q 418 21 473 56 q 294 -14 362 -14 q 118 45 179 -14 q 56 207 56 104 q 140 373 56 313 q 377 432 224 432 l 505 432 l 505 496 q 472 587 505 554 q 374 619 438 619 q 285 592 318 619 q 252 523 252 566 l 93 522 l 92 526 q 170 680 87 613 q 385 747 252 747 q 591 682 513 747 q 670 495 670 617 l 670 169 q 676 82 670 123 q 696 0 682 40 l 529 0 m 328 118 q 439 149 389 118 q 505 220 489 180 l 505 329 l 374 329 q 262 293 302 329 q 221 210 221 258 q 249 143 221 168 q 328 118 276 118 m 623 883 l 130 883 l 130 990 l 623 990 l 623 883 z "},"Ă":{"ha":882,"x_min":22,"x_max":863,"o":"m 618 231 l 268 231 l 192 0 l 22 0 l 366 987 l 523 987 l 863 0 l 693 0 l 618 231 m 313 368 l 573 368 l 446 758 l 442 758 l 313 368 m 655 1278 l 657 1274 q 601 1138 660 1190 q 442 1086 542 1086 q 283 1138 342 1086 q 227 1274 224 1190 l 229 1278 l 351 1278 q 373 1213 351 1238 q 442 1188 395 1188 q 510 1213 488 1188 q 532 1278 532 1238 l 655 1278 z "},"ă":{"ha":755,"x_min":56,"x_max":696,"o":"m 529 0 q 514 54 520 28 q 507 107 509 81 q 418 21 473 56 q 294 -14 362 -14 q 118 45 179 -14 q 56 207 56 104 q 140 373 56 313 q 377 432 224 432 l 505 432 l 505 496 q 472 587 505 554 q 374 619 438 619 q 285 592 318 619 q 252 523 252 566 l 93 522 l 92 526 q 170 680 87 613 q 385 747 252 747 q 591 682 513 747 q 670 495 670 617 l 670 169 q 676 82 670 123 q 696 0 682 40 l 529 0 m 328 118 q 439 149 389 118 q 505 220 489 180 l 505 329 l 374 329 q 262 293 302 329 q 221 210 221 258 q 249 143 221 168 q 328 118 276 118 m 587 1059 l 589 1055 q 533 920 592 972 q 374 867 474 867 q 215 920 274 867 q 159 1055 156 972 l 161 1059 l 283 1059 q 306 995 283 1020 q 374 970 328 970 q 442 995 420 970 q 465 1059 465 1020 l 587 1059 z "},"Ą":{"ha":882,"x_min":22,"x_max":892,"o":"m 618 231 l 268 231 l 192 0 l 22 0 l 366 987 l 523 987 l 863 0 l 693 0 l 618 231 m 313 368 l 573 368 l 446 758 l 442 758 l 313 368 m 827 0 q 763 -63 785 -35 q 741 -127 741 -92 q 754 -165 741 -150 q 803 -181 768 -181 q 835 -177 821 -181 q 868 -165 849 -173 l 892 -262 q 838 -283 867 -275 q 766 -292 808 -292 q 653 -253 698 -292 q 609 -146 609 -215 q 646 -45 609 -93 q 760 41 683 3 l 827 0 z "},"ą":{"ha":755,"x_min":56,"x_max":724,"o":"m 529 0 q 514 54 520 28 q 507 107 509 81 q 418 21 473 56 q 294 -14 362 -14 q 118 45 179 -14 q 56 207 56 104 q 140 373 56 313 q 377 432 224 432 l 505 432 l 505 496 q 472 587 505 554 q 374 619 438 619 q 285 592 318 619 q 252 523 252 566 l 93 522 l 92 526 q 170 680 87 613 q 385 747 252 747 q 591 682 513 747 q 670 495 670 617 l 670 169 q 676 82 670 123 q 696 0 682 40 l 529 0 m 328 118 q 439 149 389 118 q 505 220 489 180 l 505 329 l 374 329 q 262 293 302 329 q 221 210 221 258 q 249 143 221 168 q 328 118 276 118 m 660 0 q 596 -63 618 -35 q 574 -127 574 -92 q 587 -165 574 -150 q 635 -181 600 -181 q 668 -177 654 -181 q 701 -165 682 -173 l 724 -262 q 670 -283 700 -275 q 599 -292 640 -292 q 486 -253 530 -292 q 441 -146 441 -215 q 478 -45 441 -93 q 593 41 515 3 l 660 0 z "},"Ć":{"ha":882,"x_min":74,"x_max":830,"o":"m 825 323 l 827 319 q 730 78 829 170 q 460 -14 630 -14 q 181 102 288 -14 q 74 399 74 218 l 74 587 q 180 885 74 768 q 456 1002 286 1002 q 730 913 630 1002 q 827 669 830 824 l 826 665 l 667 665 q 613 817 667 764 q 456 869 559 869 q 297 790 355 869 q 238 589 238 710 l 238 399 q 298 197 238 277 q 460 117 357 117 q 614 170 562 117 q 667 323 667 223 l 825 323 m 512 1279 l 699 1279 l 700 1275 l 515 1099 l 382 1099 l 512 1279 z "},"ć":{"ha":722,"x_min":55,"x_max":673,"o":"m 386 117 q 481 153 442 117 q 520 242 520 188 l 669 242 l 671 238 q 589 60 673 135 q 386 -14 505 -14 q 141 91 227 -14 q 55 355 55 195 l 55 378 q 141 642 55 537 q 385 747 227 747 q 593 670 513 747 q 671 475 673 593 l 669 471 l 520 471 q 483 573 520 531 q 385 615 446 615 q 258 547 297 615 q 220 378 220 479 l 220 355 q 258 185 220 252 q 386 117 296 117 m 419 1046 l 606 1046 l 607 1042 l 422 866 l 290 866 l 419 1046 z "},"Ĉ":{"ha":882,"x_min":74,"x_max":830,"o":"m 825 323 l 827 319 q 730 78 829 170 q 460 -14 630 -14 q 181 102 288 -14 q 74 399 74 218 l 74 587 q 180 885 74 768 q 456 1002 286 1002 q 730 913 630 1002 q 827 669 830 824 l 826 665 l 667 665 q 613 817 667 764 q 456 869 559 869 q 297 790 355 869 q 238 589 238 710 l 238 399 q 298 197 238 277 q 460 117 357 117 q 614 170 562 117 q 667 323 667 223 l 825 323 m 689 1114 l 689 1097 l 557 1097 l 460 1192 l 363 1097 l 233 1097 l 233 1115 l 412 1278 l 509 1278 l 689 1114 z "},"ĉ":{"ha":722,"x_min":55,"x_max":673,"o":"m 386 117 q 481 153 442 117 q 520 242 520 188 l 669 242 l 671 238 q 589 60 673 135 q 386 -14 505 -14 q 141 91 227 -14 q 55 355 55 195 l 55 378 q 141 642 55 537 q 385 747 227 747 q 593 670 513 747 q 671 475 673 593 l 669 471 l 520 471 q 483 573 520 531 q 385 615 446 615 q 258 547 297 615 q 220 378 220 479 l 220 355 q 258 185 220 252 q 386 117 296 117 m 596 881 l 596 865 l 464 865 l 367 959 l 271 865 l 140 865 l 140 882 l 319 1045 l 416 1045 l 596 881 z "},"Ċ":{"ha":882,"x_min":74,"x_max":830,"o":"m 825 323 l 827 319 q 730 78 829 170 q 460 -14 630 -14 q 181 102 288 -14 q 74 399 74 218 l 74 587 q 180 885 74 768 q 456 1002 286 1002 q 730 913 630 1002 q 827 669 830 824 l 826 665 l 667 665 q 613 817 667 764 q 456 869 559 869 q 297 790 355 869 q 238 589 238 710 l 238 399 q 298 197 238 277 q 460 117 357 117 q 614 170 562 117 q 667 323 667 223 l 825 323 m 551 1101 l 368 1101 l 368 1252 l 551 1252 l 551 1101 z "},"ċ":{"ha":722,"x_min":55,"x_max":673,"o":"m 386 117 q 481 153 442 117 q 520 242 520 188 l 669 242 l 671 238 q 589 60 673 135 q 386 -14 505 -14 q 141 91 227 -14 q 55 355 55 195 l 55 378 q 141 642 55 537 q 385 747 227 747 q 593 670 513 747 q 671 475 673 593 l 669 471 l 520 471 q 483 573 520 531 q 385 615 446 615 q 258 547 297 615 q 220 378 220 479 l 220 355 q 258 185 220 252 q 386 117 296 117 m 458 868 l 275 868 l 275 1019 l 458 1019 l 458 868 z "},"Č":{"ha":882,"x_min":74,"x_max":830,"o":"m 825 323 l 827 319 q 730 78 829 170 q 460 -14 630 -14 q 181 102 288 -14 q 74 399 74 218 l 74 587 q 180 885 74 768 q 456 1002 286 1002 q 730 913 630 1002 q 827 669 830 824 l 826 665 l 667 665 q 613 817 667 764 q 456 869 559 869 q 297 790 355 869 q 238 589 238 710 l 238 399 q 298 197 238 277 q 460 117 357 117 q 614 170 562 117 q 667 323 667 223 l 825 323 m 459 1190 l 549 1282 l 694 1282 l 694 1271 l 513 1100 l 406 1100 l 225 1270 l 225 1282 l 370 1282 l 459 1190 z "},"č":{"ha":722,"x_min":55,"x_max":673,"o":"m 386 117 q 481 153 442 117 q 520 242 520 188 l 669 242 l 671 238 q 589 60 673 135 q 386 -14 505 -14 q 141 91 227 -14 q 55 355 55 195 l 55 378 q 141 642 55 537 q 385 747 227 747 q 593 670 513 747 q 671 475 673 593 l 669 471 l 520 471 q 483 573 520 531 q 385 615 446 615 q 258 547 297 615 q 220 378 220 479 l 220 355 q 258 185 220 252 q 386 117 296 117 m 366 958 l 456 1050 l 602 1050 l 602 1038 l 420 867 l 313 867 l 132 1037 l 132 1050 l 277 1050 l 366 958 z "},"Ď":{"ha":930,"x_min":104,"x_max":853,"o":"m 104 0 l 104 987 l 430 987 q 735 870 618 987 q 853 568 853 753 l 853 418 q 735 117 853 233 q 430 0 618 0 l 104 0 m 269 855 l 269 132 l 430 132 q 618 212 549 132 q 688 418 688 292 l 688 570 q 618 775 688 694 q 430 855 549 855 l 269 855 m 407 1176 l 496 1268 l 642 1268 l 642 1257 l 460 1086 l 354 1086 l 173 1255 l 173 1268 l 317 1268 l 407 1176 z "},"ď":{"ha":787,"x_min":56,"x_max":907,"o":"m 56 357 q 132 640 56 532 q 343 747 207 747 q 450 723 403 747 q 532 654 497 699 l 532 1058 l 696 1058 l 696 0 l 563 0 l 543 93 q 458 13 508 41 q 342 -14 408 -14 q 132 84 207 -14 q 56 342 56 182 l 56 357 m 221 342 q 260 180 221 241 q 384 120 299 120 q 472 142 436 120 q 532 206 509 165 l 532 526 q 472 590 509 567 q 385 612 435 612 q 261 542 301 612 q 221 357 221 471 l 221 342 m 907 955 l 822 793 l 747 793 l 789 962 l 789 1058 l 907 1058 l 907 955 z "},"Đ":{"ha":930,"x_min":-1,"x_max":853,"o":"m 104 0 l 104 446 l -1 446 l -1 561 l 104 561 l 104 987 l 430 987 q 735 870 618 987 q 853 568 853 753 l 853 418 q 735 117 853 233 q 430 0 618 0 l 104 0 m 444 446 l 269 446 l 269 132 l 430 132 q 618 212 549 132 q 688 418 688 292 l 688 570 q 618 775 688 694 q 430 855 549 855 l 269 855 l 269 561 l 444 561 l 444 446 z "},"đ":{"ha":787,"x_min":56,"x_max":813,"o":"m 813 831 l 696 831 l 696 0 l 563 0 l 543 93 q 458 13 508 41 q 342 -14 408 -14 q 132 84 207 -14 q 56 342 56 182 l 56 357 q 132 640 56 532 q 343 747 207 747 q 450 723 403 747 q 532 654 497 699 l 532 831 l 369 831 l 369 946 l 532 946 l 532 1058 l 696 1058 l 696 946 l 813 946 l 813 831 m 221 342 q 260 180 221 241 q 384 120 299 120 q 472 142 436 120 q 532 206 509 165 l 532 526 q 472 590 509 567 q 385 612 435 612 q 261 542 301 612 q 221 357 221 471 l 221 342 z "},"Ē":{"ha":769,"x_min":104,"x_max":724,"o":"m 655 444 l 269 444 l 269 132 l 724 132 l 724 0 l 104 0 l 104 987 l 720 987 l 720 855 l 269 855 l 269 576 l 655 576 l 655 444 m 663 1101 l 170 1101 l 170 1208 l 663 1208 l 663 1101 z "},"ē":{"ha":727,"x_min":56,"x_max":680,"o":"m 398 -14 q 147 87 237 -14 q 56 350 56 189 l 56 377 q 147 643 56 538 q 380 747 237 748 q 604 656 528 747 q 680 412 680 565 l 680 323 l 227 323 l 225 320 q 273 174 228 230 q 408 117 317 117 q 524 134 475 117 q 615 180 573 150 l 669 73 q 557 11 627 36 q 398 -14 488 -14 m 380 615 q 277 569 316 615 q 229 448 239 522 l 231 444 l 517 444 l 517 457 q 485 571 517 528 q 380 615 452 615 m 614 884 l 121 884 l 121 991 l 614 991 l 614 884 z "},"Ĕ":{"ha":769,"x_min":104,"x_max":724,"o":"m 655 444 l 269 444 l 269 132 l 724 132 l 724 0 l 104 0 l 104 987 l 720 987 l 720 855 l 269 855 l 269 576 l 655 576 l 655 444 m 627 1278 l 629 1274 q 573 1138 632 1190 q 414 1086 514 1086 q 255 1138 314 1086 q 199 1274 196 1190 l 201 1278 l 323 1278 q 346 1213 323 1238 q 414 1188 368 1188 q 482 1213 460 1188 q 505 1278 505 1238 l 627 1278 z "},"ĕ":{"ha":727,"x_min":56,"x_max":680,"o":"m 398 -14 q 147 87 237 -14 q 56 350 56 189 l 56 377 q 147 643 56 538 q 380 747 237 748 q 604 656 528 747 q 680 412 680 565 l 680 323 l 227 323 l 225 320 q 273 174 228 230 q 408 117 317 117 q 524 134 475 117 q 615 180 573 150 l 669 73 q 557 11 627 36 q 398 -14 488 -14 m 380 615 q 277 569 316 615 q 229 448 239 522 l 231 444 l 517 444 l 517 457 q 485 571 517 528 q 380 615 452 615 m 579 1060 l 581 1056 q 525 920 584 972 q 366 868 466 868 q 207 920 266 868 q 151 1056 148 972 l 153 1060 l 275 1060 q 297 996 275 1021 q 366 970 319 970 q 434 996 412 970 q 456 1060 456 1021 l 579 1060 z "},"Ė":{"ha":769,"x_min":104,"x_max":724,"o":"m 655 444 l 269 444 l 269 132 l 724 132 l 724 0 l 104 0 l 104 987 l 720 987 l 720 855 l 269 855 l 269 576 l 655 576 l 655 444 m 505 1086 l 322 1086 l 322 1238 l 505 1238 l 505 1086 z "},"ė":{"ha":727,"x_min":56,"x_max":680,"o":"m 398 -14 q 147 87 237 -14 q 56 350 56 189 l 56 377 q 147 643 56 538 q 380 747 237 748 q 604 656 528 747 q 680 412 680 565 l 680 323 l 227 323 l 225 320 q 273 174 228 230 q 408 117 317 117 q 524 134 475 117 q 615 180 573 150 l 669 73 q 557 11 627 36 q 398 -14 488 -14 m 380 615 q 277 569 316 615 q 229 448 239 522 l 231 444 l 517 444 l 517 457 q 485 571 517 528 q 380 615 452 615 m 457 869 l 274 869 l 274 1020 l 457 1020 l 457 869 z "},"Ę":{"ha":769,"x_min":104,"x_max":724,"o":"m 655 444 l 269 444 l 269 132 l 724 132 l 724 0 l 104 0 l 104 987 l 720 987 l 720 855 l 269 855 l 269 576 l 655 576 l 655 444 m 461 0 q 397 -63 419 -35 q 375 -127 375 -92 q 388 -165 375 -150 q 437 -181 401 -181 q 469 -177 455 -181 q 502 -165 483 -173 l 526 -262 q 471 -283 501 -275 q 400 -292 441 -292 q 287 -253 332 -292 q 243 -146 243 -215 q 280 -45 243 -93 q 394 41 317 3 l 461 0 z "},"ę":{"ha":727,"x_min":56,"x_max":680,"o":"m 398 -14 q 147 87 237 -14 q 56 350 56 189 l 56 377 q 147 643 56 538 q 380 747 237 748 q 604 656 528 747 q 680 412 680 565 l 680 323 l 227 323 l 225 320 q 273 174 228 230 q 408 117 317 117 q 524 134 475 117 q 615 180 573 150 l 669 73 q 557 11 627 36 q 398 -14 488 -14 m 380 615 q 277 569 316 615 q 229 448 239 522 l 231 444 l 517 444 l 517 457 q 485 571 517 528 q 380 615 452 615 m 597 35 q 533 -29 555 0 q 511 -92 511 -58 q 524 -131 511 -115 q 572 -146 537 -146 q 605 -142 591 -146 q 637 -131 618 -138 l 661 -227 q 607 -249 637 -240 q 536 -257 577 -257 q 423 -219 467 -257 q 378 -112 378 -180 q 415 -10 378 -58 q 530 75 452 38 l 597 35 z "},"Ě":{"ha":769,"x_min":104,"x_max":724,"o":"m 655 444 l 269 444 l 269 132 l 724 132 l 724 0 l 104 0 l 104 987 l 720 987 l 720 855 l 269 855 l 269 576 l 655 576 l 655 444 m 413 1176 l 503 1268 l 648 1268 l 648 1257 l 467 1086 l 360 1086 l 179 1255 l 179 1268 l 323 1268 l 413 1176 z "},"ě":{"ha":727,"x_min":56,"x_max":680,"o":"m 398 -14 q 147 87 237 -14 q 56 350 56 189 l 56 377 q 147 643 56 538 q 380 747 237 748 q 604 656 528 747 q 680 412 680 565 l 680 323 l 227 323 l 225 320 q 273 174 228 230 q 408 117 317 117 q 524 134 475 117 q 615 180 573 150 l 669 73 q 557 11 627 36 q 398 -14 488 -14 m 380 615 q 277 569 316 615 q 229 448 239 522 l 231 444 l 517 444 l 517 457 q 485 571 517 528 q 380 615 452 615 m 365 958 l 454 1050 l 600 1050 l 600 1039 l 418 868 l 312 868 l 131 1038 l 131 1050 l 275 1050 l 365 958 z "},"Ĝ":{"ha":933,"x_min":75,"x_max":836,"o":"m 836 134 q 706 31 795 76 q 475 -14 616 -14 q 188 99 300 -14 q 75 391 75 212 l 75 597 q 184 889 75 776 q 465 1002 293 1002 q 733 915 637 1002 q 827 688 829 828 l 825 684 l 668 684 q 616 819 668 768 q 467 869 564 869 q 302 793 365 869 q 239 598 239 716 l 239 391 q 305 194 239 271 q 475 117 370 117 q 601 135 555 117 q 671 179 647 153 l 671 383 l 464 383 l 464 507 l 836 507 l 836 134 m 684 1114 l 684 1097 l 552 1097 l 455 1192 l 359 1097 l 228 1097 l 228 1115 l 407 1278 l 504 1278 l 684 1114 z "},"ĝ":{"ha":787,"x_min":61,"x_max":701,"o":"m 61 357 q 136 640 61 532 q 348 747 212 747 q 464 719 414 747 q 548 638 513 691 l 564 734 l 701 734 l 701 0 q 614 -219 701 -142 q 366 -296 526 -296 q 250 -281 312 -296 q 138 -241 188 -266 l 164 -111 q 258 -144 206 -132 q 364 -156 310 -156 q 495 -118 454 -156 q 536 0 536 -79 l 536 75 q 455 8 502 31 q 347 -14 408 -14 q 136 84 212 -14 q 61 342 61 182 l 61 357 m 225 342 q 264 180 225 241 q 389 120 304 120 q 478 142 441 120 q 536 205 514 164 l 536 527 q 477 590 513 567 q 390 612 441 612 q 265 542 305 612 q 225 357 225 471 l 225 342 m 610 881 l 610 865 l 478 865 l 381 959 l 285 865 l 154 865 l 154 882 l 333 1045 l 430 1045 l 610 881 z "},"Ğ":{"ha":933,"x_min":75,"x_max":836,"o":"m 836 134 q 706 31 795 76 q 475 -14 616 -14 q 188 99 300 -14 q 75 391 75 212 l 75 597 q 184 889 75 776 q 465 1002 293 1002 q 733 915 637 1002 q 827 688 829 828 l 825 684 l 668 684 q 616 819 668 768 q 467 869 564 869 q 302 793 365 869 q 239 598 239 716 l 239 391 q 305 194 239 271 q 475 117 370 117 q 601 135 555 117 q 671 179 647 153 l 671 383 l 464 383 l 464 507 l 836 507 l 836 134 m 669 1292 l 671 1288 q 614 1152 673 1204 q 456 1100 555 1100 q 296 1152 355 1100 q 241 1288 237 1204 l 243 1292 l 365 1292 q 387 1227 365 1253 q 456 1202 409 1202 q 524 1227 501 1202 q 546 1292 546 1253 l 669 1292 z "},"ğ":{"ha":787,"x_min":61,"x_max":701,"o":"m 61 357 q 136 640 61 532 q 348 747 212 747 q 464 719 414 747 q 548 638 513 691 l 564 734 l 701 734 l 701 0 q 614 -219 701 -142 q 366 -296 526 -296 q 250 -281 312 -296 q 138 -241 188 -266 l 164 -111 q 258 -144 206 -132 q 364 -156 310 -156 q 495 -118 454 -156 q 536 0 536 -79 l 536 75 q 455 8 502 31 q 347 -14 408 -14 q 136 84 212 -14 q 61 342 61 182 l 61 357 m 225 342 q 264 180 225 241 q 389 120 304 120 q 478 142 441 120 q 536 205 514 164 l 536 527 q 477 590 513 567 q 390 612 441 612 q 265 542 305 612 q 225 357 225 471 l 225 342 m 595 1059 l 597 1055 q 541 920 600 972 q 382 867 481 867 q 222 920 281 867 q 167 1055 163 972 l 169 1059 l 291 1059 q 313 995 291 1020 q 382 970 335 970 q 450 995 427 970 q 472 1059 472 1020 l 595 1059 z "},"Ġ":{"ha":933,"x_min":75,"x_max":836,"o":"m 836 134 q 706 31 795 76 q 475 -14 616 -14 q 188 99 300 -14 q 75 391 75 212 l 75 597 q 184 889 75 776 q 465 1002 293 1002 q 733 915 637 1002 q 827 688 829 828 l 825 684 l 668 684 q 616 819 668 768 q 467 869 564 869 q 302 793 365 869 q 239 598 239 716 l 239 391 q 305 194 239 271 q 475 117 370 117 q 601 135 555 117 q 671 179 647 153 l 671 383 l 464 383 l 464 507 l 836 507 l 836 134 m 547 1101 l 363 1101 l 363 1252 l 547 1252 l 547 1101 z "},"ġ":{"ha":787,"x_min":61,"x_max":701,"o":"m 61 357 q 136 640 61 532 q 348 747 212 747 q 464 719 414 747 q 548 638 513 691 l 564 734 l 701 734 l 701 0 q 614 -219 701 -142 q 366 -296 526 -296 q 250 -281 312 -296 q 138 -241 188 -266 l 164 -111 q 258 -144 206 -132 q 364 -156 310 -156 q 495 -118 454 -156 q 536 0 536 -79 l 536 75 q 455 8 502 31 q 347 -14 408 -14 q 136 84 212 -14 q 61 342 61 182 l 61 357 m 225 342 q 264 180 225 241 q 389 120 304 120 q 478 142 441 120 q 536 205 514 164 l 536 527 q 477 590 513 567 q 390 612 441 612 q 265 542 305 612 q 225 357 225 471 l 225 342 m 473 868 l 290 868 l 290 1019 l 473 1019 l 473 868 z "},"Ģ":{"ha":933,"x_min":75,"x_max":836,"o":"m 836 134 q 706 31 795 76 q 475 -14 616 -14 q 188 99 300 -14 q 75 391 75 212 l 75 597 q 184 889 75 776 q 465 1002 293 1002 q 733 915 637 1002 q 827 688 829 828 l 825 684 l 668 684 q 616 819 668 768 q 467 869 564 869 q 302 793 365 869 q 239 598 239 716 l 239 391 q 305 194 239 271 q 475 117 370 117 q 601 135 555 117 q 671 179 647 153 l 671 383 l 464 383 l 464 507 l 836 507 l 836 134 m 514 -178 l 429 -340 l 354 -340 l 395 -172 l 395 -75 l 514 -75 l 514 -178 z "},"ģ":{"ha":787,"x_min":61,"x_max":701,"o":"m 61 357 q 136 640 61 532 q 348 747 212 747 q 464 719 414 747 q 548 638 513 691 l 564 734 l 701 734 l 701 0 q 614 -219 701 -142 q 366 -296 526 -296 q 250 -281 312 -296 q 138 -241 188 -266 l 164 -111 q 258 -144 206 -132 q 364 -156 310 -156 q 495 -118 454 -156 q 536 0 536 -79 l 536 75 q 455 8 502 31 q 347 -14 408 -14 q 136 84 212 -14 q 61 342 61 182 l 61 357 m 225 342 q 264 180 225 241 q 389 120 304 120 q 478 142 441 120 q 536 205 514 164 l 536 527 q 477 590 513 567 q 390 612 441 612 q 265 542 305 612 q 225 357 225 471 l 225 342 m 303 962 l 384 1135 l 469 1135 l 451 956 l 451 851 l 303 851 l 303 962 z "},"Ĥ":{"ha":979,"x_min":104,"x_max":875,"o":"m 875 0 l 710 0 l 710 421 l 269 421 l 269 0 l 104 0 l 104 987 l 269 987 l 269 553 l 710 553 l 710 987 l 875 987 l 875 0 m 714 1099 l 714 1083 l 582 1083 l 485 1177 l 389 1083 l 258 1083 l 258 1101 l 437 1263 l 534 1263 l 714 1099 z "},"ĥ":{"ha":787,"x_min":85,"x_max":703,"o":"m 250 639 q 339 719 286 690 q 455 747 391 747 q 637 674 572 747 q 703 447 703 600 l 703 0 l 538 0 l 538 448 q 504 573 538 534 q 404 612 471 612 q 313 594 351 612 q 250 542 274 575 l 250 0 l 85 0 l 85 1058 l 250 1058 l 250 639 m 577 1099 l 577 1083 l 445 1083 l 348 1177 l 252 1083 l 121 1083 l 121 1101 l 300 1263 l 397 1263 l 577 1099 z "},"Ħ":{"ha":978,"x_min":16,"x_max":970,"o":"m 880 806 l 970 806 l 970 696 l 880 696 l 880 0 l 715 0 l 715 421 l 274 421 l 274 0 l 109 0 l 109 696 l 16 696 l 16 806 l 109 806 l 109 987 l 274 987 l 274 806 l 715 806 l 715 987 l 880 987 l 880 806 m 274 553 l 715 553 l 715 696 l 274 696 l 274 553 z "},"ħ":{"ha":787,"x_min":-16,"x_max":703,"o":"m 429 829 l 250 829 l 250 639 q 339 719 286 690 q 455 747 391 747 q 637 674 572 747 q 703 447 703 600 l 703 0 l 538 0 l 538 448 q 504 573 538 534 q 404 612 471 612 q 313 594 351 612 q 250 542 274 575 l 250 0 l 85 0 l 85 829 l -16 829 l -16 945 l 85 945 l 85 1058 l 250 1058 l 250 945 l 429 945 l 429 829 z "},"Ĩ":{"ha":399,"x_min":-44,"x_max":445,"o":"m 282 0 l 117 0 l 117 987 l 282 987 l 282 0 m 445 1256 q 404 1146 445 1192 q 302 1101 363 1101 q 198 1131 254 1101 q 108 1161 142 1161 q 63 1139 81 1161 q 45 1086 45 1117 l -44 1110 q -4 1221 -44 1174 q 98 1268 37 1268 q 196 1238 136 1268 q 292 1208 257 1208 q 337 1230 318 1208 q 356 1282 356 1251 l 445 1256 z "},"ĩ":{"ha":365,"x_min":-64,"x_max":425,"o":"m 262 0 l 97 0 l 97 734 l 262 734 l 262 0 m 425 1023 q 385 913 425 959 q 283 868 344 868 q 179 898 235 868 q 88 928 123 928 q 43 906 62 928 q 25 854 25 884 l -64 878 q -23 988 -64 941 q 78 1036 17 1036 q 177 1005 116 1036 q 273 975 237 975 q 317 997 298 975 q 336 1050 336 1019 l 425 1023 z "},"Ī":{"ha":399,"x_min":-44,"x_max":449,"o":"m 282 0 l 117 0 l 117 987 l 282 987 l 282 0 m 449 1101 l -44 1101 l -44 1208 l 449 1208 l 449 1101 z "},"ī":{"ha":365,"x_min":-64,"x_max":429,"o":"m 262 0 l 97 0 l 97 734 l 262 734 l 262 0 m 429 869 l -64 869 l -64 977 l 429 977 l 429 869 z "},"Ĭ":{"ha":399,"x_min":-18,"x_max":418,"o":"m 282 0 l 117 0 l 117 987 l 282 987 l 282 0 m 414 1278 l 416 1274 q 359 1138 418 1190 q 201 1086 300 1086 q 41 1138 100 1086 q -14 1274 -18 1190 l -12 1278 l 110 1278 q 132 1213 110 1238 q 201 1188 154 1188 q 269 1213 246 1188 q 291 1278 291 1238 l 414 1278 z "},"ĭ":{"ha":365,"x_min":-37,"x_max":399,"o":"m 262 0 l 97 0 l 97 734 l 262 734 l 262 0 m 394 1045 l 396 1041 q 340 905 399 958 q 181 853 281 853 q 22 905 81 853 q -34 1041 -37 958 l -32 1045 l 90 1045 q 112 981 90 1006 q 181 956 134 956 q 249 981 227 956 q 271 1045 271 1006 l 394 1045 z "},"Į":{"ha":399,"x_min":28,"x_max":311,"o":"m 282 0 l 117 0 l 117 987 l 282 987 l 282 0 m 247 0 q 183 -63 205 -35 q 161 -127 161 -92 q 174 -165 161 -150 q 222 -181 187 -181 q 255 -177 241 -181 q 288 -165 269 -173 l 311 -262 q 257 -283 287 -275 q 186 -292 227 -292 q 73 -253 117 -292 q 28 -146 28 -215 q 65 -45 28 -93 q 180 41 102 3 l 247 0 z "},"į":{"ha":360,"x_min":9,"x_max":292,"o":"m 262 0 l 98 0 l 98 734 l 262 734 l 262 0 m 262 913 l 98 913 l 98 1058 l 262 1058 l 262 913 m 227 0 q 163 -63 185 -35 q 141 -127 141 -92 q 154 -165 141 -150 q 203 -181 168 -181 q 235 -177 221 -181 q 268 -165 249 -173 l 292 -262 q 237 -283 267 -275 q 166 -292 208 -292 q 53 -253 98 -292 q 9 -146 9 -215 q 46 -45 9 -93 q 160 41 83 3 l 227 0 z "},"İ":{"ha":399,"x_min":108,"x_max":291,"o":"m 282 0 l 117 0 l 117 987 l 282 987 l 282 0 m 291 1086 l 108 1086 l 108 1238 l 291 1238 l 291 1086 z "},"ı":{"ha":365,"x_min":97,"x_max":262,"o":"m 262 0 l 97 0 l 97 734 l 262 734 l 262 0 z "},"Ĳ":{"ha":1166,"x_min":117,"x_max":1063,"o":"m 282 0 l 117 0 l 117 987 l 282 987 l 282 0 m 899 987 l 1063 987 l 1063 296 q 977 70 1063 154 q 753 -14 890 -14 q 522 60 607 -14 q 439 278 436 135 l 441 282 l 600 282 q 641 158 600 198 q 753 117 681 117 q 858 166 817 117 q 899 296 899 215 l 899 987 z "},"ĳ":{"ha":724,"x_min":98,"x_max":630,"o":"m 262 0 l 98 0 l 98 734 l 262 734 l 262 0 m 262 913 l 98 913 l 98 1058 l 262 1058 l 262 913 m 630 734 l 630 -43 q 567 -230 630 -164 q 391 -296 504 -296 q 347 -294 367 -296 q 306 -285 328 -291 l 315 -153 q 344 -159 327 -157 q 375 -161 361 -161 q 441 -133 417 -161 q 465 -43 465 -104 l 465 734 l 630 734 m 626 916 l 461 916 l 461 1058 l 626 1058 l 626 916 z "},"Ĵ":{"ha":766,"x_min":37,"x_max":802,"o":"m 500 987 l 664 987 l 664 296 q 577 70 664 154 q 353 -14 491 -14 q 122 60 208 -14 q 40 278 37 135 l 41 282 l 201 282 q 241 158 201 198 q 353 117 281 117 q 459 166 418 117 q 500 296 500 215 l 500 987 m 802 1094 l 802 1078 l 670 1078 l 573 1172 l 477 1078 l 346 1078 l 346 1095 l 525 1258 l 622 1258 l 802 1094 z "},"ĵ":{"ha":373,"x_min":-51,"x_max":415,"o":"m 273 734 l 273 -43 q 210 -230 273 -164 q 35 -296 147 -296 q -9 -294 10 -296 q -51 -285 -29 -291 l -41 -155 q -9 -161 -29 -159 q 25 -164 10 -164 q 87 -132 64 -164 q 109 -43 109 -100 l 109 734 l 273 734 m 415 858 l 415 842 l 283 842 l 186 936 l 90 842 l -41 842 l -41 859 l 138 1022 l 235 1022 l 415 858 z "},"Ķ":{"ha":884,"x_min":104,"x_max":880,"o":"m 349 427 l 269 427 l 269 0 l 104 0 l 104 987 l 269 987 l 269 569 l 333 569 l 654 987 l 847 987 l 849 984 l 479 520 l 880 0 l 671 0 l 349 427 m 484 -169 l 398 -330 l 323 -330 l 365 -162 l 365 -66 l 484 -66 l 484 -169 z "},"ķ":{"ha":727,"x_min":87,"x_max":728,"o":"m 313 321 l 252 321 l 252 0 l 87 0 l 87 1058 l 252 1058 l 252 453 l 308 453 l 507 734 l 700 734 l 448 396 l 728 0 l 536 0 l 313 321 m 426 -168 l 340 -329 l 266 -329 l 307 -161 l 307 -64 l 426 -64 l 426 -168 z "},"ĸ":{"ha":798,"x_min":96,"x_max":767,"o":"m 336 290 l 260 290 l 260 0 l 96 0 l 96 734 l 260 734 l 260 441 l 318 441 l 546 734 l 745 734 l 747 730 l 465 382 l 767 0 l 557 0 l 336 290 z "},"Ĺ":{"ha":767,"x_min":104,"x_max":731,"o":"m 269 132 l 731 132 l 731 0 l 104 0 l 104 987 l 269 987 l 269 132 m 237 1237 l 424 1237 l 425 1233 l 240 1057 l 108 1057 l 237 1237 z "},"ĺ":{"ha":360,"x_min":98,"x_max":420,"o":"m 262 0 l 98 0 l 98 1058 l 262 1058 l 262 0 m 232 1278 l 418 1278 l 420 1274 l 235 1098 l 102 1098 l 232 1278 z "},"Ļ":{"ha":767,"x_min":104,"x_max":731,"o":"m 269 132 l 731 132 l 731 0 l 104 0 l 104 987 l 269 987 l 269 132 m 469 -168 l 383 -329 l 309 -329 l 350 -161 l 350 -64 l 469 -64 l 469 -168 z "},"ļ":{"ha":360,"x_min":73,"x_max":262,"o":"m 262 0 l 98 0 l 98 1058 l 262 1058 l 262 0 m 233 -168 l 148 -329 l 73 -329 l 115 -161 l 115 -64 l 233 -64 l 233 -168 z "},"Ľ":{"ha":767,"x_min":104,"x_max":731,"o":"m 269 132 l 731 132 l 731 0 l 104 0 l 104 987 l 269 987 l 269 132 m 561 886 l 475 724 l 401 724 l 442 892 l 442 989 l 561 989 l 561 886 z "},"ľ":{"ha":360,"x_min":98,"x_max":491,"o":"m 262 0 l 98 0 l 98 1058 l 262 1058 l 262 0 m 491 955 l 406 793 l 331 793 l 372 962 l 372 1058 l 491 1058 l 491 955 z "},"Ŀ":{"ha":767,"x_min":104,"x_max":731,"o":"m 269 132 l 731 132 l 731 0 l 104 0 l 104 987 l 269 987 l 269 132 m 591 463 l 408 463 l 408 614 l 591 614 l 591 463 z "},"ŀ":{"ha":360,"x_min":98,"x_max":452,"o":"m 262 0 l 98 0 l 98 1058 l 262 1058 l 262 0 m 452 438 l 269 438 l 269 589 l 452 589 l 452 438 z "},"Ł":{"ha":719,"x_min":18,"x_max":726,"o":"m 264 587 l 437 640 l 437 515 l 264 462 l 264 132 l 726 132 l 726 0 l 99 0 l 99 412 l 18 388 l 18 513 l 99 537 l 99 987 l 264 987 l 264 587 z "},"ł":{"ha":390,"x_min":18,"x_max":374,"o":"m 276 604 l 374 640 l 374 515 l 276 479 l 276 0 l 111 0 l 111 421 l 18 388 l 18 513 l 111 546 l 111 1058 l 276 1058 l 276 604 z "},"Ń":{"ha":979,"x_min":104,"x_max":875,"o":"m 875 0 l 710 0 l 273 711 l 269 710 l 269 0 l 104 0 l 104 987 l 269 987 l 706 276 l 710 277 l 710 987 l 875 987 l 875 0 m 541 1265 l 727 1265 l 728 1261 l 543 1084 l 411 1084 l 541 1265 z "},"ń":{"ha":787,"x_min":85,"x_max":702,"o":"m 236 734 l 245 628 q 336 716 281 684 q 459 747 391 747 q 638 677 574 747 q 702 456 702 606 l 702 0 l 537 0 l 537 455 q 504 576 537 541 q 404 612 471 612 q 312 592 351 612 q 250 537 273 572 l 250 0 l 85 0 l 85 734 l 236 734 m 444 1046 l 630 1046 l 631 1042 l 446 866 l 314 866 l 444 1046 z "},"Ņ":{"ha":979,"x_min":104,"x_max":875,"o":"m 875 0 l 710 0 l 273 711 l 269 710 l 269 0 l 104 0 l 104 987 l 269 987 l 706 276 l 710 277 l 710 987 l 875 987 l 875 0 m 542 -168 l 456 -329 l 382 -329 l 423 -161 l 423 -64 l 542 -64 l 542 -168 z "},"ņ":{"ha":787,"x_min":85,"x_max":702,"o":"m 236 734 l 245 628 q 336 716 281 684 q 459 747 391 747 q 638 677 574 747 q 702 456 702 606 l 702 0 l 537 0 l 537 455 q 504 576 537 541 q 404 612 471 612 q 312 592 351 612 q 250 537 273 572 l 250 0 l 85 0 l 85 734 l 236 734 m 445 -168 l 359 -329 l 285 -329 l 326 -161 l 326 -64 l 445 -64 l 445 -168 z "},"Ň":{"ha":979,"x_min":104,"x_max":875,"o":"m 875 0 l 710 0 l 273 711 l 269 710 l 269 0 l 104 0 l 104 987 l 269 987 l 706 276 l 710 277 l 710 987 l 875 987 l 875 0 m 488 1176 l 577 1268 l 723 1268 l 723 1257 l 541 1086 l 435 1086 l 254 1255 l 254 1268 l 398 1268 l 488 1176 z "},"ň":{"ha":787,"x_min":85,"x_max":702,"o":"m 236 734 l 245 628 q 336 716 281 684 q 459 747 391 747 q 638 677 574 747 q 702 456 702 606 l 702 0 l 537 0 l 537 455 q 504 576 537 541 q 404 612 471 612 q 312 592 351 612 q 250 537 273 572 l 250 0 l 85 0 l 85 734 l 236 734 m 391 958 l 480 1050 l 626 1050 l 626 1038 l 444 867 l 338 867 l 157 1037 l 157 1050 l 301 1050 l 391 958 z "},"ŉ":{"ha":787,"x_min":-21,"x_max":702,"o":"m 236 734 l 245 628 q 336 716 281 684 q 459 747 391 747 q 638 677 574 747 q 702 456 702 606 l 702 0 l 537 0 l 537 455 q 504 576 537 541 q 404 612 471 612 q 312 592 351 612 q 250 537 273 572 l 250 0 l 85 0 l 85 734 l 236 734 m 139 955 l 54 793 l -21 793 l 20 962 l 20 1058 l 139 1058 l 139 955 z "},"Ŋ":{"ha":967,"x_min":100,"x_max":871,"o":"m 871 987 l 871 -43 q 807 -230 871 -164 q 631 -296 744 -296 q 587 -294 607 -296 q 545 -285 567 -291 l 555 -155 q 587 -161 566 -159 q 622 -164 608 -164 q 684 -132 662 -164 q 706 -43 706 -100 l 706 0 l 269 711 l 264 710 l 264 0 l 100 0 l 100 987 l 264 987 l 702 276 l 706 277 l 706 987 l 871 987 z "},"ŋ":{"ha":787,"x_min":85,"x_max":699,"o":"m 236 734 l 245 632 q 335 717 281 687 q 456 747 389 747 q 634 677 570 747 q 699 456 699 606 l 699 -43 q 635 -230 699 -164 q 459 -296 572 -296 q 415 -294 435 -296 q 373 -285 395 -291 l 382 -151 q 414 -156 394 -154 q 450 -159 435 -159 q 512 -129 490 -159 q 534 -43 534 -100 l 534 455 q 500 576 534 541 q 399 612 467 612 q 311 594 349 612 q 250 543 274 576 l 250 0 l 85 0 l 85 734 l 236 734 z "},"Ō":{"ha":951,"x_min":71,"x_max":880,"o":"m 880 405 q 766 105 880 224 q 471 -14 652 -14 q 182 105 294 -14 q 71 405 71 224 l 71 583 q 182 882 71 763 q 471 1002 293 1002 q 766 882 652 1002 q 880 583 880 763 l 880 405 m 715 584 q 649 787 715 707 q 471 866 583 866 q 299 787 361 866 q 236 584 236 707 l 236 405 q 299 200 236 280 q 471 121 362 121 q 649 200 584 121 q 715 405 715 279 l 715 584 m 724 1116 l 231 1116 l 231 1223 l 724 1223 l 724 1116 z "},"ō":{"ha":787,"x_min":56,"x_max":730,"o":"m 56 374 q 146 643 56 538 q 392 747 236 747 q 640 643 550 747 q 730 374 730 538 l 730 359 q 640 90 730 194 q 393 -14 550 -14 q 146 90 236 -14 q 56 359 56 195 l 56 374 m 221 359 q 263 184 221 252 q 393 117 305 117 q 523 185 479 117 q 566 359 566 252 l 566 374 q 523 547 566 479 q 392 615 479 615 q 263 547 306 615 q 221 374 221 479 l 221 359 m 642 883 l 149 883 l 149 990 l 642 990 l 642 883 z "},"Ŏ":{"ha":951,"x_min":71,"x_max":880,"o":"m 880 405 q 766 105 880 224 q 471 -14 652 -14 q 182 105 294 -14 q 71 405 71 224 l 71 583 q 182 882 71 763 q 471 1002 293 1002 q 766 882 652 1002 q 880 583 880 763 l 880 405 m 715 584 q 649 787 715 707 q 471 866 583 866 q 299 787 361 866 q 236 584 236 707 l 236 405 q 299 200 236 280 q 471 121 362 121 q 649 200 584 121 q 715 405 715 279 l 715 584 m 689 1292 l 691 1288 q 635 1152 694 1204 q 476 1100 576 1100 q 317 1152 376 1100 q 261 1288 258 1204 l 263 1292 l 385 1292 q 407 1227 385 1253 q 476 1202 429 1202 q 544 1227 522 1202 q 566 1292 566 1253 l 689 1292 z "},"ŏ":{"ha":787,"x_min":56,"x_max":730,"o":"m 56 374 q 146 643 56 538 q 392 747 236 747 q 640 643 550 747 q 730 374 730 538 l 730 359 q 640 90 730 194 q 393 -14 550 -14 q 146 90 236 -14 q 56 359 56 195 l 56 374 m 221 359 q 263 184 221 252 q 393 117 305 117 q 523 185 479 117 q 566 359 566 252 l 566 374 q 523 547 566 479 q 392 615 479 615 q 263 547 306 615 q 221 374 221 479 l 221 359 m 606 1059 l 608 1055 q 552 920 611 972 q 393 867 493 867 q 234 920 293 867 q 178 1055 175 972 l 180 1059 l 302 1059 q 325 995 302 1020 q 393 970 347 970 q 461 995 439 970 q 484 1059 484 1020 l 606 1059 z "},"Ő":{"ha":951,"x_min":71,"x_max":880,"o":"m 880 405 q 766 105 880 224 q 471 -14 652 -14 q 182 105 294 -14 q 71 405 71 224 l 71 583 q 182 882 71 763 q 471 1002 293 1002 q 766 882 652 1002 q 880 583 880 763 l 880 405 m 715 584 q 649 787 715 707 q 471 866 583 866 q 299 787 361 866 q 236 584 236 707 l 236 405 q 299 200 236 280 q 471 121 362 121 q 649 200 584 121 q 715 405 715 279 l 715 584 m 662 1280 l 834 1280 l 836 1276 l 637 1100 l 500 1100 l 499 1103 l 662 1280 m 420 1280 l 585 1280 l 587 1277 l 424 1100 l 292 1100 l 420 1280 z "},"ő":{"ha":787,"x_min":56,"x_max":753,"o":"m 56 374 q 146 643 56 538 q 392 747 236 747 q 640 643 550 747 q 730 374 730 538 l 730 359 q 640 90 730 194 q 393 -14 550 -14 q 146 90 236 -14 q 56 359 56 195 l 56 374 m 221 359 q 263 184 221 252 q 393 117 305 117 q 523 185 479 117 q 566 359 566 252 l 566 374 q 523 547 566 479 q 392 615 479 615 q 263 547 306 615 q 221 374 221 479 l 221 359 m 579 1048 l 751 1048 l 753 1044 l 554 867 l 418 867 l 416 871 l 579 1048 m 338 1048 l 503 1048 l 504 1044 l 341 867 l 209 867 l 338 1048 z "},"Œ":{"ha":1337,"x_min":68,"x_max":1223,"o":"m 1223 0 l 659 0 q 552 -11 596 -7 q 463 -14 509 -14 q 178 98 287 -14 q 68 391 68 210 l 68 597 q 177 889 68 777 q 462 1002 286 1002 q 557 998 509 1002 q 659 987 605 994 l 1218 987 l 1218 855 l 767 855 l 767 576 l 1154 576 l 1154 444 l 767 444 l 767 132 l 1223 132 l 1223 0 m 463 118 q 533 120 498 118 q 602 127 568 123 l 602 859 q 532 867 567 864 q 462 869 496 869 q 293 800 354 869 q 233 598 233 730 l 233 391 q 294 188 233 258 q 463 118 355 118 z "},"œ":{"ha":1255,"x_min":56,"x_max":1209,"o":"m 927 -14 q 769 18 838 -14 q 656 111 701 51 q 546 18 612 51 q 393 -14 479 -14 q 146 90 236 -14 q 56 359 56 195 l 56 374 q 146 643 56 538 q 392 747 236 747 q 546 714 478 747 q 658 621 613 681 q 766 714 701 681 q 909 747 831 747 q 1133 656 1057 747 q 1209 412 1209 565 l 1209 323 l 755 323 l 754 320 q 802 174 757 230 q 937 117 846 117 q 1053 134 1004 117 q 1144 180 1102 150 l 1198 73 q 1086 11 1156 36 q 927 -14 1017 -14 m 221 359 q 263 184 221 252 q 393 117 305 117 q 523 185 479 117 q 566 359 566 252 l 566 374 q 523 547 566 479 q 392 615 479 615 q 263 547 306 615 q 221 374 221 479 l 221 359 m 909 615 q 806 569 845 615 q 758 448 768 522 l 760 444 l 1046 444 l 1046 457 q 1014 571 1046 528 q 909 615 981 615 z "},"Ŕ":{"ha":884,"x_min":104,"x_max":838,"o":"m 269 410 l 269 0 l 104 0 l 104 987 l 444 987 q 699 913 608 987 q 789 700 789 838 q 749 568 789 623 q 633 479 709 513 q 754 393 717 453 q 791 245 791 334 l 791 163 q 802 79 791 120 q 838 16 812 37 l 838 0 l 668 0 q 633 70 641 22 q 626 165 626 117 l 626 244 q 582 365 626 320 q 463 410 538 410 l 269 410 m 269 542 l 435 542 q 579 580 534 542 q 625 696 625 618 q 580 813 625 770 q 444 855 535 855 l 269 855 l 269 542 m 472 1265 l 659 1265 l 660 1261 l 475 1084 l 342 1084 l 472 1265 z "},"ŕ":{"ha":488,"x_min":87,"x_max":519,"o":"m 452 585 l 382 588 q 301 568 334 588 q 252 510 269 547 l 252 0 l 87 0 l 87 734 l 237 734 l 248 627 q 320 715 276 684 q 420 747 363 747 q 448 745 435 747 q 472 739 461 743 l 452 585 m 332 1046 l 518 1046 l 519 1042 l 334 866 l 202 866 l 332 1046 z "},"Ŗ":{"ha":884,"x_min":104,"x_max":838,"o":"m 269 410 l 269 0 l 104 0 l 104 987 l 444 987 q 699 913 608 987 q 789 700 789 838 q 749 568 789 623 q 633 479 709 513 q 754 393 717 453 q 791 245 791 334 l 791 163 q 802 79 791 120 q 838 16 812 37 l 838 0 l 668 0 q 633 70 641 22 q 626 165 626 117 l 626 244 q 582 365 626 320 q 463 410 538 410 l 269 410 m 269 542 l 435 542 q 579 580 534 542 q 625 696 625 618 q 580 813 625 770 q 444 855 535 855 l 269 855 l 269 542 m 473 -168 l 388 -329 l 313 -329 l 355 -161 l 355 -64 l 473 -64 l 473 -168 z "},"ŗ":{"ha":488,"x_min":72,"x_max":472,"o":"m 452 585 l 382 588 q 301 568 334 588 q 252 510 269 547 l 252 0 l 87 0 l 87 734 l 237 734 l 248 627 q 320 715 276 684 q 420 747 363 747 q 448 745 435 747 q 472 739 461 743 l 452 585 m 232 -168 l 146 -329 l 72 -329 l 113 -161 l 113 -64 l 232 -64 l 232 -168 z "},"Ř":{"ha":884,"x_min":104,"x_max":838,"o":"m 269 410 l 269 0 l 104 0 l 104 987 l 444 987 q 699 913 608 987 q 789 700 789 838 q 749 568 789 623 q 633 479 709 513 q 754 393 717 453 q 791 245 791 334 l 791 163 q 802 79 791 120 q 838 16 812 37 l 838 0 l 668 0 q 633 70 641 22 q 626 165 626 117 l 626 244 q 582 365 626 320 q 463 410 538 410 l 269 410 m 269 542 l 435 542 q 579 580 534 542 q 625 696 625 618 q 580 813 625 770 q 444 855 535 855 l 269 855 l 269 542 m 419 1176 l 509 1268 l 654 1268 l 654 1257 l 473 1086 l 366 1086 l 185 1255 l 185 1268 l 330 1268 l 419 1176 z "},"ř":{"ha":488,"x_min":45,"x_max":515,"o":"m 452 585 l 382 588 q 301 568 334 588 q 252 510 269 547 l 252 0 l 87 0 l 87 734 l 237 734 l 248 627 q 320 715 276 684 q 420 747 363 747 q 448 745 435 747 q 472 739 461 743 l 452 585 m 279 958 l 369 1050 l 515 1050 l 515 1038 l 333 867 l 227 867 l 45 1037 l 45 1050 l 190 1050 l 279 958 z "},"Ś":{"ha":854,"x_min":65,"x_max":789,"o":"m 624 254 q 580 355 624 315 q 425 425 536 394 q 179 541 266 469 q 93 728 93 612 q 188 924 93 847 q 432 1002 283 1002 q 688 916 592 1002 q 781 704 784 830 l 779 700 l 621 700 q 569 824 621 778 q 431 870 517 870 q 302 831 347 870 q 257 729 257 791 q 307 635 257 672 q 471 565 356 598 q 707 447 626 522 q 789 255 789 372 q 692 59 789 132 q 439 -14 596 -14 q 177 66 289 -14 q 68 292 65 146 l 70 296 l 229 296 q 290 162 229 207 q 439 117 351 117 q 575 154 527 117 q 624 254 624 191 m 478 1279 l 665 1279 l 666 1275 l 481 1099 l 349 1099 l 478 1279 z "},"ś":{"ha":722,"x_min":56,"x_max":661,"o":"m 499 201 q 467 263 499 239 q 345 308 435 288 q 147 386 216 334 q 79 524 79 437 q 157 682 79 616 q 362 747 235 747 q 574 680 494 747 q 651 517 654 612 l 650 513 l 492 513 q 456 591 492 558 q 362 624 421 624 q 271 597 302 624 q 240 530 240 570 q 269 471 240 493 q 389 431 298 448 q 593 351 524 404 q 661 210 661 298 q 579 48 661 111 q 364 -14 498 -14 q 138 59 221 -14 q 60 227 56 132 l 61 231 l 214 231 q 260 138 217 168 q 366 109 304 109 q 464 134 429 109 q 499 201 499 159 m 410 1046 l 597 1046 l 598 1042 l 413 866 l 281 866 l 410 1046 z "},"Ŝ":{"ha":854,"x_min":65,"x_max":789,"o":"m 624 254 q 580 355 624 315 q 425 425 536 394 q 179 541 266 469 q 93 728 93 612 q 188 924 93 847 q 432 1002 283 1002 q 688 916 592 1002 q 781 704 784 830 l 779 700 l 621 700 q 569 824 621 778 q 431 870 517 870 q 302 831 347 870 q 257 729 257 791 q 307 635 257 672 q 471 565 356 598 q 707 447 626 522 q 789 255 789 372 q 692 59 789 132 q 439 -14 596 -14 q 177 66 289 -14 q 68 292 65 146 l 70 296 l 229 296 q 290 162 229 207 q 439 117 351 117 q 575 154 527 117 q 624 254 624 191 m 655 1114 l 655 1097 l 523 1097 l 426 1192 l 330 1097 l 199 1097 l 199 1115 l 378 1278 l 475 1278 l 655 1114 z "},"ŝ":{"ha":722,"x_min":56,"x_max":661,"o":"m 499 201 q 467 263 499 239 q 345 308 435 288 q 147 386 216 334 q 79 524 79 437 q 157 682 79 616 q 362 747 235 747 q 574 680 494 747 q 651 517 654 612 l 650 513 l 492 513 q 456 591 492 558 q 362 624 421 624 q 271 597 302 624 q 240 530 240 570 q 269 471 240 493 q 389 431 298 448 q 593 351 524 404 q 661 210 661 298 q 579 48 661 111 q 364 -14 498 -14 q 138 59 221 -14 q 60 227 56 132 l 61 231 l 214 231 q 260 138 217 168 q 366 109 304 109 q 464 134 429 109 q 499 201 499 159 m 587 881 l 587 865 l 455 865 l 358 959 l 262 865 l 131 865 l 131 882 l 310 1045 l 407 1045 l 587 881 z "},"Ş":{"ha":854,"x_min":65,"x_max":789,"o":"m 624 254 q 580 355 624 315 q 425 425 536 394 q 179 541 266 469 q 93 728 93 612 q 188 924 93 847 q 432 1002 283 1002 q 688 916 592 1002 q 781 704 784 830 l 779 700 l 621 700 q 569 824 621 778 q 431 870 517 870 q 302 831 347 870 q 257 729 257 791 q 307 635 257 672 q 471 565 356 598 q 707 447 626 522 q 789 255 789 372 q 692 59 789 132 q 439 -14 596 -14 q 177 66 289 -14 q 68 292 65 146 l 70 296 l 229 296 q 290 162 229 207 q 439 117 351 117 q 575 154 527 117 q 624 254 624 191 m 489 -4 l 481 -41 q 554 -76 525 -48 q 583 -158 583 -104 q 526 -268 583 -227 q 361 -309 468 -309 l 357 -216 q 424 -201 399 -216 q 450 -156 450 -186 q 426 -114 450 -126 q 347 -98 403 -102 l 369 -4 l 489 -4 z "},"ş":{"ha":722,"x_min":56,"x_max":661,"o":"m 499 201 q 467 263 499 239 q 345 308 435 288 q 147 386 216 334 q 79 524 79 437 q 157 682 79 616 q 362 747 235 747 q 574 680 494 747 q 651 517 654 612 l 650 513 l 492 513 q 456 591 492 558 q 362 624 421 624 q 271 597 302 624 q 240 530 240 570 q 269 471 240 493 q 389 431 298 448 q 593 351 524 404 q 661 210 661 298 q 579 48 661 111 q 364 -14 498 -14 q 138 59 221 -14 q 60 227 56 132 l 61 231 l 214 231 q 260 138 217 168 q 366 109 304 109 q 464 134 429 109 q 499 201 499 159 m 421 -4 l 414 -41 q 486 -76 457 -48 q 515 -158 515 -104 q 458 -268 515 -227 q 294 -309 400 -309 l 289 -216 q 356 -201 331 -216 q 382 -156 382 -186 q 358 -114 382 -126 q 279 -98 335 -102 l 301 -4 l 421 -4 z "},"Š":{"ha":854,"x_min":65,"x_max":789,"o":"m 624 254 q 580 355 624 315 q 425 425 536 394 q 179 541 266 469 q 93 728 93 612 q 188 924 93 847 q 432 1002 283 1002 q 688 916 592 1002 q 781 704 784 830 l 779 700 l 621 700 q 569 824 621 778 q 431 870 517 870 q 302 831 347 870 q 257 729 257 791 q 307 635 257 672 q 471 565 356 598 q 707 447 626 522 q 789 255 789 372 q 692 59 789 132 q 439 -14 596 -14 q 177 66 289 -14 q 68 292 65 146 l 70 296 l 229 296 q 290 162 229 207 q 439 117 351 117 q 575 154 527 117 q 624 254 624 191 m 425 1190 l 515 1282 l 661 1282 l 661 1271 l 479 1100 l 372 1100 l 191 1270 l 191 1282 l 336 1282 l 425 1190 z "},"š":{"ha":722,"x_min":56,"x_max":661,"o":"m 499 201 q 467 263 499 239 q 345 308 435 288 q 147 386 216 334 q 79 524 79 437 q 157 682 79 616 q 362 747 235 747 q 574 680 494 747 q 651 517 654 612 l 650 513 l 492 513 q 456 591 492 558 q 362 624 421 624 q 271 597 302 624 q 240 530 240 570 q 269 471 240 493 q 389 431 298 448 q 593 351 524 404 q 661 210 661 298 q 579 48 661 111 q 364 -14 498 -14 q 138 59 221 -14 q 60 227 56 132 l 61 231 l 214 231 q 260 138 217 168 q 366 109 304 109 q 464 134 429 109 q 499 201 499 159 m 357 958 l 447 1050 l 593 1050 l 593 1038 l 411 867 l 304 867 l 123 1037 l 123 1050 l 268 1050 l 357 958 z "},"Ţ":{"ha":815,"x_min":23,"x_max":793,"o":"m 793 855 l 488 855 l 488 0 l 323 0 l 323 855 l 23 855 l 23 987 l 793 987 l 793 855 m 462 -168 l 376 -329 l 302 -329 l 343 -161 l 343 -64 l 462 -64 l 462 -168 z "},"ţ":{"ha":475,"x_min":22,"x_max":438,"o":"m 298 912 l 298 734 l 429 734 l 429 612 l 298 612 l 298 206 q 317 141 298 161 q 370 122 337 122 q 396 124 383 122 q 420 131 409 127 l 438 10 q 388 -8 417 -1 q 328 -14 359 -14 q 185 39 237 -14 q 134 206 134 92 l 134 612 l 22 612 l 22 734 l 134 734 l 134 912 l 298 912 m 361 -174 l 276 -336 l 201 -336 l 243 -168 l 243 -71 l 361 -71 l 361 -174 z "},"Ť":{"ha":815,"x_min":23,"x_max":793,"o":"m 793 855 l 488 855 l 488 0 l 323 0 l 323 855 l 23 855 l 23 987 l 793 987 l 793 855 m 408 1176 l 497 1268 l 643 1268 l 643 1257 l 461 1086 l 355 1086 l 174 1255 l 174 1268 l 318 1268 l 408 1176 z "},"ť":{"ha":475,"x_min":22,"x_max":549,"o":"m 298 912 l 298 734 l 429 734 l 429 612 l 298 612 l 298 206 q 317 141 298 161 q 370 122 337 122 q 396 124 383 122 q 420 131 409 127 l 438 10 q 388 -8 417 -1 q 328 -14 359 -14 q 185 39 237 -14 q 134 206 134 92 l 134 612 l 22 612 l 22 734 l 134 734 l 134 912 l 298 912 m 549 975 l 463 814 l 389 814 l 430 982 l 430 1078 l 549 1078 l 549 975 z "},"Ŧ":{"ha":815,"x_min":23,"x_max":793,"o":"m 629 533 l 488 533 l 488 0 l 323 0 l 323 533 l 185 533 l 185 648 l 323 648 l 323 855 l 23 855 l 23 987 l 793 987 l 793 855 l 488 855 l 488 648 l 629 648 l 629 533 z "},"ŧ":{"ha":475,"x_min":-2,"x_max":442,"o":"m 298 912 l 298 734 l 429 734 l 429 612 l 298 612 l 298 500 l 442 500 l 442 385 l 298 385 l 298 206 q 317 141 298 161 q 370 122 337 122 q 396 124 383 122 q 420 131 409 127 l 438 10 q 388 -8 417 -1 q 328 -14 359 -14 q 185 39 237 -14 q 134 206 134 92 l 134 385 l -2 385 l -2 500 l 134 500 l 134 612 l 22 612 l 22 734 l 134 734 l 134 912 l 298 912 z "},"Ũ":{"ha":947,"x_min":91,"x_max":858,"o":"m 858 987 l 858 337 q 750 79 858 172 q 471 -14 642 -14 q 197 79 302 -14 q 91 337 91 172 l 91 987 l 256 987 l 256 337 q 315 175 256 232 q 471 117 374 117 q 632 175 571 117 q 693 337 693 232 l 693 987 l 858 987 m 720 1256 q 679 1146 720 1192 q 577 1101 638 1101 q 473 1131 529 1101 q 382 1161 417 1161 q 338 1139 356 1161 q 319 1086 319 1117 l 231 1110 q 271 1221 231 1174 q 372 1268 311 1268 q 471 1238 410 1268 q 567 1208 532 1208 q 612 1230 593 1208 q 631 1282 631 1251 l 720 1256 z "},"ũ":{"ha":787,"x_min":83,"x_max":701,"o":"m 545 109 q 457 18 511 50 q 334 -14 404 -14 q 150 63 216 -14 q 83 304 83 141 l 83 734 l 248 734 l 248 303 q 278 159 248 198 q 373 120 309 120 q 473 141 433 120 q 536 203 513 163 l 536 734 l 701 734 l 701 0 l 559 0 l 545 109 m 637 1023 q 596 913 637 959 q 494 868 555 868 q 390 898 446 868 q 300 928 334 928 q 255 906 273 928 q 237 854 237 884 l 148 878 q 188 988 148 941 q 290 1036 229 1036 q 388 1005 328 1036 q 484 975 449 975 q 529 997 510 975 q 548 1050 548 1019 l 637 1023 z "},"Ū":{"ha":947,"x_min":91,"x_max":858,"o":"m 858 987 l 858 337 q 750 79 858 172 q 471 -14 642 -14 q 197 79 302 -14 q 91 337 91 172 l 91 987 l 256 987 l 256 337 q 315 175 256 232 q 471 117 374 117 q 632 175 571 117 q 693 337 693 232 l 693 987 l 858 987 m 724 1101 l 231 1101 l 231 1208 l 724 1208 l 724 1101 z "},"ū":{"ha":787,"x_min":83,"x_max":701,"o":"m 545 109 q 457 18 511 50 q 334 -14 404 -14 q 150 63 216 -14 q 83 304 83 141 l 83 734 l 248 734 l 248 303 q 278 159 248 198 q 373 120 309 120 q 473 141 433 120 q 536 203 513 163 l 536 734 l 701 734 l 701 0 l 559 0 l 545 109 m 641 869 l 148 869 l 148 977 l 641 977 l 641 869 z "},"Ŭ":{"ha":947,"x_min":91,"x_max":858,"o":"m 858 987 l 858 337 q 750 79 858 172 q 471 -14 642 -14 q 197 79 302 -14 q 91 337 91 172 l 91 987 l 256 987 l 256 337 q 315 175 256 232 q 471 117 374 117 q 632 175 571 117 q 693 337 693 232 l 693 987 l 858 987 m 688 1278 l 690 1274 q 634 1138 693 1190 q 475 1086 575 1086 q 316 1138 375 1086 q 260 1274 257 1190 l 262 1278 l 385 1278 q 407 1213 385 1238 q 475 1188 429 1188 q 543 1213 521 1188 q 566 1278 566 1238 l 688 1278 z "},"ŭ":{"ha":787,"x_min":83,"x_max":701,"o":"m 545 109 q 457 18 511 50 q 334 -14 404 -14 q 150 63 216 -14 q 83 304 83 141 l 83 734 l 248 734 l 248 303 q 278 159 248 198 q 373 120 309 120 q 473 141 433 120 q 536 203 513 163 l 536 734 l 701 734 l 701 0 l 559 0 l 545 109 m 606 1045 l 608 1041 q 551 905 610 958 q 393 853 492 853 q 233 905 292 853 q 178 1041 174 958 l 180 1045 l 302 1045 q 324 981 302 1006 q 393 956 346 956 q 460 981 438 956 q 483 1045 483 1006 l 606 1045 z "},"Ů":{"ha":947,"x_min":91,"x_max":858,"o":"m 858 987 l 858 337 q 750 79 858 172 q 471 -14 642 -14 q 197 79 302 -14 q 91 337 91 172 l 91 987 l 256 987 l 256 337 q 315 175 256 232 q 471 117 374 117 q 632 175 571 117 q 693 337 693 232 l 693 987 l 858 987 m 352 1180 q 388 1263 352 1230 q 475 1297 424 1297 q 561 1263 526 1297 q 596 1180 596 1230 q 561 1098 596 1130 q 475 1067 526 1067 q 388 1099 423 1067 q 352 1180 352 1131 m 425 1180 q 440 1145 425 1159 q 475 1131 454 1131 q 509 1145 495 1131 q 523 1180 523 1159 q 509 1217 523 1202 q 475 1232 496 1232 q 439 1217 454 1232 q 425 1180 425 1202 z "},"ů":{"ha":787,"x_min":83,"x_max":701,"o":"m 545 109 q 457 18 511 50 q 334 -14 404 -14 q 150 63 216 -14 q 83 304 83 141 l 83 734 l 248 734 l 248 303 q 278 159 248 198 q 373 120 309 120 q 473 141 433 120 q 536 203 513 163 l 536 734 l 701 734 l 701 0 l 559 0 l 545 109 m 269 947 q 305 1030 269 997 q 393 1064 341 1064 q 478 1030 443 1064 q 513 947 513 997 q 478 866 513 897 q 393 834 444 834 q 305 866 340 834 q 269 947 269 898 m 342 947 q 357 912 342 926 q 393 899 372 899 q 426 912 412 899 q 440 947 440 926 q 427 984 440 969 q 393 999 413 999 q 357 984 371 999 q 342 947 342 969 z "},"Ű":{"ha":947,"x_min":91,"x_max":858,"o":"m 858 987 l 858 337 q 750 79 858 172 q 471 -14 642 -14 q 197 79 302 -14 q 91 337 91 172 l 91 987 l 256 987 l 256 337 q 315 175 256 232 q 471 117 374 117 q 632 175 571 117 q 693 337 693 232 l 693 987 l 858 987 m 661 1266 l 833 1266 l 835 1262 l 636 1086 l 500 1086 l 498 1089 l 661 1266 m 420 1266 l 585 1266 l 586 1263 l 423 1086 l 291 1086 l 420 1266 z "},"ű":{"ha":787,"x_min":83,"x_max":752,"o":"m 545 109 q 457 18 511 50 q 334 -14 404 -14 q 150 63 216 -14 q 83 304 83 141 l 83 734 l 248 734 l 248 303 q 278 159 248 198 q 373 120 309 120 q 473 141 433 120 q 536 203 513 163 l 536 734 l 701 734 l 701 0 l 559 0 l 545 109 m 578 1034 l 751 1034 l 752 1029 l 553 853 l 417 853 l 416 857 l 578 1034 m 337 1034 l 502 1034 l 503 1030 l 340 853 l 208 853 l 337 1034 z "},"Ų":{"ha":947,"x_min":91,"x_max":858,"o":"m 858 987 l 858 337 q 750 79 858 172 q 471 -14 642 -14 q 197 79 302 -14 q 91 337 91 172 l 91 987 l 256 987 l 256 337 q 315 175 256 232 q 471 117 374 117 q 632 175 571 117 q 693 337 693 232 l 693 987 l 858 987 m 550 0 q 486 -63 508 -35 q 464 -127 464 -92 q 477 -165 464 -150 q 526 -181 490 -181 q 558 -177 544 -181 q 591 -165 572 -173 l 614 -262 q 560 -283 590 -275 q 489 -292 530 -292 q 376 -253 420 -292 q 332 -146 332 -215 q 369 -45 332 -93 q 483 41 406 3 l 550 0 z "},"ų":{"ha":787,"x_min":83,"x_max":729,"o":"m 545 109 q 457 18 511 50 q 334 -14 404 -14 q 150 63 216 -14 q 83 304 83 141 l 83 734 l 248 734 l 248 303 q 278 159 248 198 q 373 120 309 120 q 473 141 433 120 q 536 203 513 163 l 536 734 l 701 734 l 701 0 l 559 0 l 545 109 m 665 0 q 601 -63 623 -35 q 578 -127 578 -92 q 592 -165 578 -150 q 640 -181 605 -181 q 672 -177 659 -181 q 705 -165 686 -173 l 729 -262 q 675 -283 705 -275 q 604 -292 645 -292 q 491 -253 535 -292 q 446 -146 446 -215 q 483 -45 446 -93 q 597 41 520 3 l 665 0 z "},"Ŵ":{"ha":1208,"x_min":20,"x_max":1188,"o":"m 865 275 l 869 275 l 1015 987 l 1188 987 l 954 0 l 804 0 l 606 703 l 602 703 l 404 0 l 254 0 l 20 987 l 193 987 l 339 276 l 343 276 l 531 987 l 676 987 l 865 275 m 833 1099 l 833 1083 l 701 1083 l 604 1177 l 507 1083 l 376 1083 l 376 1101 l 555 1263 l 652 1263 l 833 1099 z "},"ŵ":{"ha":1038,"x_min":25,"x_max":1009,"o":"m 733 218 l 737 218 l 844 734 l 1009 734 l 808 0 l 673 0 l 518 486 l 514 486 l 361 0 l 226 0 l 25 734 l 190 734 l 300 224 l 304 224 l 457 734 l 577 734 l 733 218 m 747 867 l 747 850 l 614 850 l 517 945 l 421 850 l 290 850 l 290 868 l 469 1031 l 566 1031 l 747 867 z "},"Ŷ":{"ha":882,"x_min":18,"x_max":861,"o":"m 439 507 l 677 987 l 861 987 l 519 345 l 519 0 l 355 0 l 355 355 l 18 987 l 201 987 l 439 507 m 671 1099 l 671 1083 l 538 1083 l 441 1177 l 345 1083 l 214 1083 l 214 1101 l 393 1263 l 490 1263 l 671 1099 z "},"ŷ":{"ha":704,"x_min":11,"x_max":692,"o":"m 330 294 l 347 221 l 351 221 l 511 734 l 692 734 l 388 -111 q 306 -242 359 -188 q 156 -296 253 -296 q 112 -292 136 -296 q 67 -283 89 -288 l 85 -155 q 111 -157 94 -156 q 135 -159 127 -159 q 207 -128 180 -159 q 250 -58 233 -98 l 277 9 l 11 734 l 191 734 l 330 294 m 581 867 l 581 850 l 448 850 l 351 945 l 255 850 l 124 850 l 124 868 l 303 1031 l 400 1031 l 581 867 z "},"Ÿ":{"ha":882,"x_min":18,"x_max":861,"o":"m 439 507 l 677 987 l 861 987 l 519 345 l 519 0 l 355 0 l 355 355 l 18 987 l 201 987 l 439 507 m 688 1086 l 524 1086 l 524 1224 l 688 1224 l 688 1086 m 359 1086 l 196 1086 l 196 1224 l 359 1224 l 359 1086 z "},"Ź":{"ha":811,"x_min":60,"x_max":755,"o":"m 254 132 l 755 132 l 755 0 l 60 0 l 60 103 l 542 855 l 64 855 l 64 987 l 737 987 l 737 888 l 254 132 m 463 1265 l 649 1265 l 650 1261 l 465 1085 l 333 1085 l 463 1265 z "},"ź":{"ha":704,"x_min":58,"x_max":654,"o":"m 262 132 l 654 132 l 654 0 l 58 0 l 58 108 l 428 601 l 65 601 l 65 734 l 636 734 l 636 629 l 262 132 m 408 1032 l 594 1032 l 595 1028 l 410 852 l 278 852 l 408 1032 z "},"Ż":{"ha":811,"x_min":60,"x_max":755,"o":"m 254 132 l 755 132 l 755 0 l 60 0 l 60 103 l 542 855 l 64 855 l 64 987 l 737 987 l 737 888 l 254 132 m 502 1087 l 319 1087 l 319 1238 l 502 1238 l 502 1087 z "},"ż":{"ha":704,"x_min":58,"x_max":654,"o":"m 262 132 l 654 132 l 654 0 l 58 0 l 58 108 l 428 601 l 65 601 l 65 734 l 636 734 l 636 629 l 262 132 m 447 854 l 264 854 l 264 1005 l 447 1005 l 447 854 z "},"Ž":{"ha":811,"x_min":60,"x_max":755,"o":"m 254 132 l 755 132 l 755 0 l 60 0 l 60 103 l 542 855 l 64 855 l 64 987 l 737 987 l 737 888 l 254 132 m 410 1177 l 499 1269 l 645 1269 l 645 1257 l 463 1086 l 357 1086 l 176 1256 l 176 1269 l 320 1269 l 410 1177 z "},"ž":{"ha":704,"x_min":58,"x_max":654,"o":"m 262 132 l 654 132 l 654 0 l 58 0 l 58 108 l 428 601 l 65 601 l 65 734 l 636 734 l 636 629 l 262 132 m 355 943 l 444 1036 l 590 1036 l 590 1024 l 408 853 l 302 853 l 121 1023 l 121 1036 l 265 1036 l 355 943 z "},"ſ":{"ha":355,"x_min":94,"x_max":448,"o":"m 94 0 l 94 819 q 160 1006 94 941 q 345 1072 227 1072 q 394 1068 370 1072 q 448 1058 418 1065 l 431 932 q 402 938 416 936 q 369 940 387 940 q 287 908 315 940 q 258 819 258 876 l 258 0 l 94 0 z "},"ƒ":{"ha":488,"x_min":-24,"x_max":490,"o":"m 437 612 l 300 612 l 300 -43 q 237 -230 300 -164 q 62 -296 174 -296 q 18 -294 37 -296 q -24 -285 -2 -291 l -14 -155 q 18 -161 -2 -159 q 52 -164 37 -164 q 114 -132 92 -164 q 136 -43 136 -100 l 136 612 l 24 612 l 24 734 l 136 734 l 136 819 q 202 1006 136 941 q 387 1072 268 1072 q 435 1068 411 1072 q 490 1058 460 1065 l 473 930 q 443 935 460 933 q 408 937 427 937 q 327 907 354 937 q 300 819 300 876 l 300 734 l 437 734 l 437 612 z "},"Ơ":{"ha":961,"x_min":68,"x_max":1050,"o":"m 876 405 q 763 105 876 224 q 467 -14 649 -14 q 179 105 290 -14 q 68 405 68 224 l 68 583 q 179 882 68 763 q 467 1002 290 1002 q 626 972 553 1002 q 754 890 699 943 q 869 960 829 903 q 909 1109 909 1017 l 1050 1109 q 994 894 1050 979 q 833 779 938 810 q 865 685 854 734 q 876 583 876 635 l 876 405 m 711 584 q 646 787 711 707 q 467 866 580 866 q 295 787 358 866 q 233 584 233 707 l 233 405 q 296 200 233 280 q 467 121 359 121 q 646 200 581 121 q 711 405 711 279 l 711 584 z "},"ơ":{"ha":802,"x_min":56,"x_max":854,"o":"m 56 374 q 146 643 56 538 q 392 747 236 747 q 526 723 466 747 q 630 653 586 698 q 699 718 675 671 q 722 832 722 764 l 854 832 q 811 666 854 733 q 687 572 768 600 q 719 478 707 528 q 730 374 730 429 l 730 359 q 640 90 730 194 q 393 -14 550 -14 q 146 90 236 -14 q 56 359 56 195 l 56 374 m 221 359 q 263 184 221 252 q 393 117 305 117 q 523 185 479 117 q 566 359 566 252 l 566 374 q 523 547 566 479 q 392 615 479 615 q 263 547 306 615 q 221 374 221 479 l 221 359 z "},"Ư":{"ha":980,"x_min":91,"x_max":1115,"o":"m 858 987 l 858 865 l 862 864 q 946 938 918 881 q 974 1084 974 994 l 1115 1084 q 1050 852 1115 939 q 858 744 985 766 l 858 337 q 750 79 858 172 q 471 -14 642 -14 q 197 79 302 -14 q 91 337 91 172 l 91 987 l 256 987 l 256 337 q 315 175 256 232 q 471 117 374 117 q 632 175 571 117 q 693 337 693 232 l 693 987 l 858 987 z "},"ư":{"ha":805,"x_min":83,"x_max":945,"o":"m 941 821 l 943 817 q 886 630 945 696 q 701 552 827 564 l 701 0 l 559 0 l 545 109 q 457 18 511 50 q 334 -14 404 -14 q 150 63 216 -14 q 83 304 83 141 l 83 734 l 248 734 l 248 303 q 278 159 248 198 q 373 120 309 120 q 473 141 433 120 q 536 203 513 163 l 536 734 l 701 734 l 701 652 l 705 651 q 794 699 768 658 q 820 821 820 741 l 941 821 z "},"ǰ":{"ha":373,"x_min":-51,"x_max":420,"o":"m 273 734 l 273 -43 q 210 -230 273 -164 q 35 -296 147 -296 q -9 -294 10 -296 q -51 -285 -29 -291 l -41 -155 q -9 -161 -29 -159 q 25 -164 10 -164 q 87 -132 64 -164 q 109 -43 109 -100 l 109 734 l 273 734 m 185 935 l 275 1027 l 420 1027 l 420 1015 l 239 844 l 132 844 l -49 1014 l -49 1027 l 96 1027 l 185 935 z "},"Ǻ":{"ha":882,"x_min":22,"x_max":863,"o":"m 618 231 l 268 231 l 192 0 l 22 0 l 366 987 l 523 987 l 863 0 l 693 0 l 618 231 m 313 368 l 573 368 l 446 758 l 442 758 l 313 368 m 509 1434 l 663 1434 l 665 1430 l 503 1299 l 403 1299 l 401 1303 l 509 1434 m 315 1146 q 352 1232 315 1198 q 443 1267 389 1267 q 531 1232 495 1267 q 568 1146 568 1198 q 531 1062 568 1095 q 443 1029 495 1029 q 352 1062 389 1029 q 315 1146 315 1095 m 382 1146 q 400 1104 382 1121 q 443 1088 417 1088 q 483 1104 467 1088 q 500 1146 500 1121 q 484 1190 500 1172 q 443 1207 467 1207 q 400 1190 417 1207 q 382 1146 382 1172 z "},"ǻ":{"ha":755,"x_min":56,"x_max":696,"o":"m 529 0 q 514 54 520 28 q 507 107 509 81 q 418 21 473 56 q 294 -14 362 -14 q 118 45 179 -14 q 56 207 56 104 q 140 373 56 313 q 377 432 224 432 l 505 432 l 505 496 q 472 587 505 554 q 374 619 438 619 q 285 592 318 619 q 252 523 252 566 l 93 522 l 92 526 q 170 680 87 613 q 385 747 252 747 q 591 682 513 747 q 670 495 670 617 l 670 169 q 676 82 670 123 q 696 0 682 40 l 529 0 m 328 118 q 439 149 389 118 q 505 220 489 180 l 505 329 l 374 329 q 262 293 302 329 q 221 210 221 258 q 249 143 221 168 q 328 118 276 118 m 441 1215 l 595 1215 l 597 1211 l 435 1081 l 335 1081 l 333 1084 l 441 1215 m 248 928 q 284 1014 248 979 q 375 1048 321 1048 q 464 1014 427 1048 q 500 928 500 979 q 464 843 500 876 q 375 810 427 810 q 284 843 321 810 q 248 928 248 876 m 315 928 q 332 886 315 903 q 375 869 349 869 q 415 886 399 869 q 432 928 432 903 q 416 971 432 954 q 375 989 399 989 q 332 971 349 989 q 315 928 315 954 z "},"Ǽ":{"ha":1340,"x_min":9,"x_max":1290,"o":"m 1290 0 l 682 0 l 671 231 l 330 231 l 205 0 l 9 0 l 575 987 l 1249 987 l 1249 854 l 810 854 l 821 577 l 1194 577 l 1194 444 l 827 444 l 840 133 l 1290 133 l 1290 0 m 409 376 l 665 376 l 647 809 l 644 810 l 409 376 m 702 1265 l 888 1265 l 890 1261 l 705 1084 l 572 1084 l 702 1265 z "},"ǽ":{"ha":1207,"x_min":57,"x_max":1153,"o":"m 872 -14 q 713 16 783 -14 q 599 102 644 46 q 486 19 559 52 q 313 -14 414 -14 q 124 46 191 -14 q 57 212 57 107 q 139 377 57 319 q 377 435 220 435 l 517 435 l 517 484 q 485 580 517 545 q 395 615 454 615 q 296 585 332 615 q 260 510 260 554 l 102 522 l 100 526 q 178 685 96 622 q 397 747 260 747 q 528 725 470 747 q 623 659 585 702 q 723 725 666 702 q 848 747 780 747 q 1073 659 993 747 q 1153 415 1153 570 l 1153 319 l 692 319 l 690 315 q 740 172 692 227 q 882 117 787 117 q 991 133 949 117 q 1089 180 1033 149 l 1138 68 q 1031 11 1099 37 q 872 -14 963 -14 m 345 111 q 439 136 390 111 q 517 194 489 161 l 517 322 l 378 322 q 263 289 304 322 q 222 209 222 256 q 253 138 222 165 q 345 111 283 111 m 848 615 q 738 567 777 615 q 692 439 699 518 l 693 435 l 990 435 l 990 456 q 955 571 990 527 q 848 615 920 615 m 657 1047 l 844 1047 l 845 1043 l 660 867 l 528 867 l 657 1047 z "},"Ǿ":{"ha":951,"x_min":71,"x_max":880,"o":"m 880 405 q 766 105 880 224 q 471 -14 652 -14 q 364 -2 414 -14 q 271 35 314 11 l 213 -64 l 113 -64 l 201 86 q 105 225 139 143 q 71 405 71 308 l 71 583 q 182 882 71 763 q 471 1002 293 1002 q 594 985 536 1002 q 701 936 652 968 l 755 1029 l 856 1029 l 768 880 q 850 747 821 823 q 880 583 880 670 l 880 405 m 236 405 q 248 307 236 353 q 281 229 259 262 l 285 229 l 627 810 q 556 851 596 837 q 471 866 517 866 q 299 787 361 866 q 236 584 236 707 l 236 405 m 715 584 q 707 663 715 626 q 684 730 699 701 l 680 730 l 344 159 q 401 130 370 140 q 471 121 433 121 q 649 200 584 121 q 715 405 715 279 l 715 584 m 530 1307 l 717 1307 l 718 1303 l 533 1126 l 401 1126 l 530 1307 z "},"ǿ":{"ha":787,"x_min":56,"x_max":730,"o":"m 56 374 q 146 643 56 538 q 392 747 236 747 q 461 741 428 747 q 526 723 495 734 l 574 822 l 672 822 l 602 679 q 696 550 663 629 q 730 374 730 471 l 730 359 q 640 90 730 194 q 393 -14 550 -14 q 330 -9 361 -14 q 271 5 300 -4 l 222 -94 l 125 -94 l 194 47 q 92 176 127 95 q 56 359 56 258 l 56 374 m 221 359 q 231 263 221 307 q 261 193 241 220 l 265 192 l 465 599 q 430 611 448 606 q 392 615 412 615 q 263 547 306 615 q 221 374 221 479 l 221 359 m 566 374 q 557 460 566 420 q 532 528 548 500 l 528 528 l 332 128 q 361 120 345 123 q 393 117 376 117 q 523 185 479 117 q 566 359 566 252 l 566 374 m 418 1044 l 605 1044 l 606 1040 l 421 864 l 289 864 l 418 1044 z "},"Ș":{"ha":854,"x_min":65,"x_max":789,"o":"m 624 254 q 580 355 624 315 q 425 425 536 394 q 179 541 266 469 q 93 728 93 612 q 188 924 93 847 q 432 1002 283 1002 q 688 916 592 1002 q 781 704 784 830 l 779 700 l 621 700 q 569 824 621 778 q 431 870 517 870 q 302 831 347 870 q 257 729 257 791 q 307 635 257 672 q 471 565 356 598 q 707 447 626 522 q 789 255 789 372 q 692 59 789 132 q 439 -14 596 -14 q 177 66 289 -14 q 68 292 65 146 l 70 296 l 229 296 q 290 162 229 207 q 439 117 351 117 q 575 154 527 117 q 624 254 624 191 m 479 -181 l 394 -342 l 319 -342 l 361 -174 l 361 -78 l 479 -78 l 479 -181 z "},"ș":{"ha":722,"x_min":56,"x_max":661,"o":"m 499 201 q 467 263 499 239 q 345 308 435 288 q 147 386 216 334 q 79 524 79 437 q 157 682 79 616 q 362 747 235 747 q 574 680 494 747 q 651 517 654 612 l 650 513 l 492 513 q 456 591 492 558 q 362 624 421 624 q 271 597 302 624 q 240 530 240 570 q 269 471 240 493 q 389 431 298 448 q 593 351 524 404 q 661 210 661 298 q 579 48 661 111 q 364 -14 498 -14 q 138 59 221 -14 q 60 227 56 132 l 61 231 l 214 231 q 260 138 217 168 q 366 109 304 109 q 464 134 429 109 q 499 201 499 159 m 412 -181 l 326 -342 l 252 -342 l 293 -174 l 293 -78 l 412 -78 l 412 -181 z "},"ȷ":{"ha":373,"x_min":-51,"x_max":273,"o":"m 273 734 l 273 -43 q 210 -230 273 -164 q 35 -296 147 -296 q -9 -294 10 -296 q -51 -285 -29 -291 l -41 -155 q -9 -161 -29 -159 q 25 -164 10 -164 q 87 -132 64 -164 q 109 -43 109 -100 l 109 734 l 273 734 z "},"ʼ":{"ha":363,"x_min":109,"x_max":258,"o":"m 258 832 l 189 618 l 109 618 l 109 987 l 258 987 l 258 832 z "},"ˆ":{"ha":677,"x_min":105,"x_max":562,"o":"m 562 865 l 562 849 l 429 849 l 332 943 l 236 849 l 105 849 l 105 867 l 284 1029 l 381 1029 l 562 865 z "},"ˇ":{"ha":640,"x_min":82,"x_max":551,"o":"m 316 939 l 406 1031 l 551 1031 l 551 1020 l 370 849 l 263 849 l 82 1019 l 82 1031 l 227 1031 l 316 939 z "},"˘":{"ha":605,"x_min":80,"x_max":516,"o":"m 511 987 l 513 983 q 457 848 516 900 q 298 795 398 795 q 139 848 198 795 q 83 983 80 900 l 85 987 l 208 987 q 230 923 208 948 q 298 898 252 898 q 366 923 344 898 q 389 987 389 948 l 511 987 z "},"˙":{"ha":401,"x_min":102,"x_max":285,"o":"m 285 840 l 102 840 l 102 991 l 285 991 l 285 840 z "},"˚":{"ha":468,"x_min":109,"x_max":353,"o":"m 109 885 q 144 968 109 935 q 232 1002 180 1002 q 317 968 282 1002 q 353 885 353 935 q 318 803 353 835 q 232 772 283 772 q 144 804 180 772 q 109 885 109 836 m 182 885 q 196 850 182 864 q 232 836 211 836 q 266 850 252 836 q 279 885 279 864 q 266 922 279 907 q 232 937 252 937 q 196 922 210 937 q 182 885 182 907 z "},"˛":{"ha":399,"x_min":50,"x_max":333,"o":"m 269 0 q 204 -63 227 -35 q 182 -127 182 -92 q 196 -165 182 -150 q 244 -181 209 -181 q 276 -177 262 -181 q 309 -165 290 -173 l 333 -262 q 279 -283 309 -275 q 208 -292 249 -292 q 95 -253 139 -292 q 50 -146 50 -215 q 87 -45 50 -93 q 201 41 124 3 l 269 0 z "},"˜":{"ha":667,"x_min":87,"x_max":576,"o":"m 576 1009 q 535 899 576 945 q 433 854 494 854 q 329 884 385 854 q 239 914 273 914 q 194 892 212 914 q 176 840 176 870 l 87 863 q 127 974 87 927 q 229 1021 168 1021 q 327 991 267 1021 q 423 961 388 961 q 468 983 449 961 q 487 1036 487 1004 l 576 1009 z "},"˝":{"ha":553,"x_min":80,"x_max":624,"o":"m 450 1029 l 623 1029 l 624 1025 l 425 849 l 289 849 l 288 852 l 450 1029 m 209 1029 l 374 1029 l 375 1026 l 212 849 l 80 849 l 209 1029 z "},"˳":{"ha":453,"x_min":116,"x_max":343,"o":"m 116 -157 q 149 -80 116 -111 q 231 -49 182 -49 q 311 -80 278 -49 q 343 -157 343 -111 q 311 -232 343 -203 q 231 -262 279 -262 q 149 -232 182 -262 q 116 -157 116 -202 m 184 -157 q 198 -189 184 -176 q 231 -202 211 -202 q 262 -189 250 -202 q 275 -157 275 -176 q 262 -123 275 -136 q 231 -109 250 -109 q 198 -123 211 -109 q 184 -157 184 -136 z "},"̀":{"ha":0,"x_min":-545,"x_max":-326,"o":"m -326 857 l -422 857 l -545 1090 l -544 1095 l -413 1095 l -326 857 z "},"́":{"ha":0,"x_min":-437,"x_max":-220,"o":"m -348 1096 l -221 1096 l -220 1091 l -346 857 l -436 857 l -348 1096 z "},"̃":{"ha":0,"x_min":-604,"x_max":-115,"o":"m -115 1009 q -156 899 -115 945 q -258 854 -197 854 q -362 884 -306 854 q -452 914 -418 914 q -497 892 -479 914 q -515 840 -515 870 l -604 863 q -564 974 -604 927 q -463 1021 -524 1021 q -364 991 -425 1021 q -268 961 -303 961 q -223 983 -242 961 q -204 1036 -204 1004 l -115 1009 z "},"̉":{"ha":0,"x_min":-479,"x_max":-243,"o":"m -466 850 l -471 949 q -398 962 -420 952 q -377 996 -377 972 q -404 1033 -377 1021 q -479 1044 -431 1044 l -474 1128 q -303 1093 -362 1128 q -243 998 -243 1058 q -273 927 -243 951 q -345 897 -302 903 l -345 850 l -466 850 z "},"̏":{"ha":0,"x_min":-682,"x_max":-138,"o":"m -346 852 l -347 849 l -484 849 l -682 1025 l -681 1029 l -509 1029 l -346 852 m -138 849 l -271 849 l -433 1026 l -432 1029 l -267 1029 l -138 849 z "},"̣":{"ha":0,"x_min":-498,"x_max":-315,"o":"m -315 -235 l -498 -235 l -498 -84 l -315 -84 l -315 -235 z "},"΄":{"ha":410,"x_min":151,"x_max":345,"o":"m 180 1050 l 345 1050 l 226 861 l 151 861 l 180 1050 z "},"΅":{"ha":735,"x_min":106,"x_max":617,"o":"m 617 849 l 465 849 l 465 987 l 617 987 l 617 849 m 259 849 l 106 849 l 106 987 l 259 987 l 259 849 m 345 1184 l 513 1184 l 412 999 l 313 999 l 345 1184 z "},"Ά":{"ha":882,"x_min":22,"x_max":863,"o":"m 618 231 l 268 231 l 192 0 l 22 0 l 366 987 l 523 987 l 863 0 l 693 0 l 618 231 m 313 368 l 573 368 l 446 758 l 442 758 l 313 368 m 131 1050 l 295 1050 l 176 861 l 101 861 l 131 1050 z "},"·":{"ha":392,"x_min":109,"x_max":273,"o":"m 273 403 l 109 403 l 109 566 l 273 566 l 273 403 z "},"Έ":{"ha":769,"x_min":-123,"x_max":724,"o":"m 655 444 l 269 444 l 269 132 l 724 132 l 724 0 l 104 0 l 104 987 l 720 987 l 720 855 l 269 855 l 269 576 l 655 576 l 655 444 m -93 1052 l 71 1052 l -47 863 l -123 863 l -93 1052 z "},"Ή":{"ha":979,"x_min":-92,"x_max":875,"o":"m 875 0 l 710 0 l 710 421 l 269 421 l 269 0 l 104 0 l 104 987 l 269 987 l 269 553 l 710 553 l 710 987 l 875 987 l 875 0 m -62 1050 l 102 1050 l -16 861 l -92 861 l -62 1050 z "},"Ί":{"ha":399,"x_min":-83,"x_max":282,"o":"m 282 0 l 117 0 l 117 987 l 282 987 l 282 0 m -53 1052 l 111 1052 l -7 863 l -83 863 l -53 1052 z "},"Ό":{"ha":951,"x_min":12,"x_max":880,"o":"m 880 405 q 766 105 880 224 q 471 -14 652 -14 q 182 105 294 -14 q 71 405 71 224 l 71 583 q 182 882 71 763 q 471 1002 293 1002 q 766 882 652 1002 q 880 583 880 763 l 880 405 m 715 584 q 649 787 715 707 q 471 866 583 866 q 299 787 361 866 q 236 584 236 707 l 236 405 q 299 200 236 280 q 471 121 362 121 q 649 200 584 121 q 715 405 715 279 l 715 584 m 42 1050 l 206 1050 l 87 861 l 12 861 l 42 1050 z "},"Ύ":{"ha":882,"x_min":-162,"x_max":861,"o":"m 439 507 l 677 987 l 861 987 l 519 345 l 519 0 l 355 0 l 355 355 l 18 987 l 201 987 l 439 507 m -132 1050 l 32 1050 l -87 861 l -162 861 l -132 1050 z "},"Ώ":{"ha":930,"x_min":4,"x_max":842,"o":"m 498 136 q 623 248 578 155 q 668 505 668 340 l 668 576 q 612 793 668 719 q 457 868 556 868 q 303 793 358 868 q 248 576 248 719 l 248 505 q 293 247 248 340 q 421 136 339 154 l 421 0 l 82 0 l 82 133 l 251 133 q 121 295 170 195 q 73 505 73 395 l 73 575 q 180 883 73 764 q 457 1002 286 1002 q 735 883 628 1002 q 842 575 842 764 l 842 505 q 794 295 842 395 q 665 133 745 195 l 838 133 l 838 0 l 498 0 l 498 136 m 34 1050 l 198 1050 l 79 861 l 4 861 l 34 1050 z "},"ΐ":{"ha":460,"x_min":-54,"x_max":456,"o":"m 279 733 l 279 201 q 296 138 279 156 q 343 121 313 121 q 375 124 361 121 q 407 136 389 128 l 433 16 q 372 -8 401 -1 q 305 -14 342 -14 q 163 39 212 -14 q 115 205 115 92 l 115 733 l 279 733 m 456 802 l 304 802 l 304 941 l 456 941 l 456 802 m 98 802 l -54 802 l -54 941 l 98 941 l 98 802 m 184 1137 l 353 1137 l 251 952 l 152 952 l 184 1137 z "},"Α":{"ha":882,"x_min":22,"x_max":863,"o":"m 618 231 l 268 231 l 192 0 l 22 0 l 366 987 l 523 987 l 863 0 l 693 0 l 618 231 m 313 368 l 573 368 l 446 758 l 442 758 l 313 368 z "},"Β":{"ha":884,"x_min":104,"x_max":833,"o":"m 104 0 l 104 987 l 427 987 q 683 920 591 987 q 775 718 775 852 q 738 601 775 653 q 635 522 701 549 q 782 439 730 506 q 833 283 833 373 q 742 72 833 144 q 491 0 651 0 l 104 0 m 269 449 l 269 132 l 491 132 q 623 171 576 132 q 669 283 669 210 q 623 402 669 358 q 496 449 578 446 l 487 449 l 269 449 m 269 572 l 445 572 q 566 608 522 572 q 610 711 610 644 q 564 820 610 784 q 427 855 517 855 l 269 855 l 269 572 z "},"Γ":{"ha":766,"x_min":100,"x_max":724,"o":"m 724 855 l 265 855 l 265 0 l 100 0 l 100 987 l 724 987 l 724 855 z "},"Δ":{"ha":996,"x_min":18,"x_max":971,"o":"m 425 987 l 582 987 l 971 0 l 18 0 l 425 987 m 240 132 l 751 132 l 504 787 l 500 787 l 240 132 z "},"Ε":{"ha":769,"x_min":104,"x_max":724,"o":"m 655 444 l 269 444 l 269 132 l 724 132 l 724 0 l 104 0 l 104 987 l 720 987 l 720 855 l 269 855 l 269 576 l 655 576 l 655 444 z "},"Ζ":{"ha":811,"x_min":60,"x_max":755,"o":"m 254 132 l 755 132 l 755 0 l 60 0 l 60 103 l 542 855 l 64 855 l 64 987 l 737 987 l 737 888 l 254 132 z "},"Η":{"ha":979,"x_min":104,"x_max":875,"o":"m 875 0 l 710 0 l 710 421 l 269 421 l 269 0 l 104 0 l 104 987 l 269 987 l 269 553 l 710 553 l 710 987 l 875 987 l 875 0 z "},"Θ":{"ha":951,"x_min":71,"x_max":880,"o":"m 631 429 l 328 429 l 328 562 l 631 562 l 631 429 m 880 405 q 766 105 880 224 q 471 -14 652 -14 q 182 105 294 -14 q 71 405 71 224 l 71 583 q 182 882 71 763 q 471 1002 293 1002 q 766 882 652 1002 q 880 583 880 763 l 880 405 m 715 584 q 649 787 715 707 q 471 866 583 866 q 299 787 361 866 q 236 584 236 707 l 236 405 q 299 200 236 280 q 471 121 362 121 q 649 200 584 121 q 715 405 715 279 l 715 584 z "},"Ι":{"ha":399,"x_min":117,"x_max":282,"o":"m 282 0 l 117 0 l 117 987 l 282 987 l 282 0 z "},"Κ":{"ha":884,"x_min":104,"x_max":880,"o":"m 349 427 l 269 427 l 269 0 l 104 0 l 104 987 l 269 987 l 269 569 l 333 569 l 654 987 l 847 987 l 849 984 l 479 520 l 880 0 l 671 0 l 349 427 z "},"Λ":{"ha":907,"x_min":24,"x_max":880,"o":"m 453 770 l 449 770 l 194 0 l 24 0 l 373 987 l 530 987 l 880 0 l 709 0 l 453 770 z "},"Μ":{"ha":1208,"x_min":104,"x_max":1103,"o":"m 604 228 l 608 228 l 893 987 l 1103 987 l 1103 0 l 939 0 l 939 709 l 935 710 l 663 0 l 549 0 l 273 724 l 269 722 l 269 0 l 104 0 l 104 987 l 320 987 l 604 228 z "},"Ν":{"ha":979,"x_min":104,"x_max":875,"o":"m 875 0 l 710 0 l 273 711 l 269 710 l 269 0 l 104 0 l 104 987 l 269 987 l 706 276 l 710 277 l 710 987 l 875 987 l 875 0 z "},"Ξ":{"ha":793,"x_min":76,"x_max":725,"o":"m 76 132 l 725 132 l 725 0 l 76 0 l 76 132 m 141 572 l 656 572 l 656 443 l 141 443 l 141 572 m 83 987 l 708 987 l 708 855 l 83 855 l 83 987 z "},"Ο":{"ha":951,"x_min":71,"x_max":880,"o":"m 880 405 q 766 105 880 224 q 471 -14 652 -14 q 182 105 294 -14 q 71 405 71 224 l 71 583 q 182 882 71 763 q 471 1002 293 1002 q 766 882 652 1002 q 880 583 880 763 l 880 405 m 715 584 q 649 787 715 707 q 471 866 583 866 q 299 787 361 866 q 236 584 236 707 l 236 405 q 299 200 236 280 q 471 121 362 121 q 649 200 584 121 q 715 405 715 279 l 715 584 z "},"Π":{"ha":978,"x_min":102,"x_max":875,"o":"m 875 0 l 710 0 l 710 855 l 267 855 l 267 0 l 102 0 l 102 987 l 875 987 l 875 0 z "},"Ρ":{"ha":884,"x_min":104,"x_max":831,"o":"m 269 374 l 269 0 l 104 0 l 104 987 l 482 987 q 738 903 646 987 q 831 681 831 819 q 738 458 831 542 q 482 374 646 374 l 269 374 m 269 507 l 482 507 q 620 555 574 507 q 666 680 666 604 q 620 805 666 755 q 482 855 574 855 l 269 855 l 269 507 z "},"Σ":{"ha":793,"x_min":48,"x_max":746,"o":"m 536 488 l 262 132 l 746 132 l 746 0 l 48 0 l 48 103 l 361 494 l 48 884 l 48 987 l 720 987 l 720 855 l 263 855 l 536 501 l 536 488 z "},"Τ":{"ha":815,"x_min":23,"x_max":793,"o":"m 793 855 l 488 855 l 488 0 l 323 0 l 323 855 l 23 855 l 23 987 l 793 987 l 793 855 z "},"Υ":{"ha":882,"x_min":18,"x_max":861,"o":"m 439 507 l 677 987 l 861 987 l 519 345 l 519 0 l 355 0 l 355 355 l 18 987 l 201 987 l 439 507 z "},"Φ":{"ha":998,"x_min":49,"x_max":954,"o":"m 585 844 q 850 739 746 837 q 954 490 954 642 q 850 241 954 338 q 585 138 746 144 l 585 0 l 420 0 l 420 138 q 153 240 256 144 q 49 488 49 336 q 153 739 49 641 q 420 844 257 837 l 420 987 l 585 987 l 585 844 m 211 488 q 265 337 211 392 q 416 280 319 282 l 420 281 l 420 701 l 416 702 q 265 642 319 699 q 211 488 211 585 m 792 490 q 738 643 792 587 q 589 702 684 699 l 585 701 l 585 281 l 589 280 q 738 338 684 282 q 792 490 792 393 z "},"Χ":{"ha":882,"x_min":34,"x_max":856,"o":"m 441 623 l 649 987 l 844 987 l 541 498 l 856 0 l 658 0 l 444 371 l 229 0 l 34 0 l 345 498 l 41 987 l 235 987 l 441 623 z "},"Ψ":{"ha":981,"x_min":49,"x_max":923,"o":"m 566 365 l 570 363 q 708 440 658 374 q 758 619 758 507 l 758 987 l 923 987 l 923 619 q 826 345 923 448 q 566 224 728 241 l 566 0 l 401 0 l 401 224 q 144 343 240 239 q 49 619 49 446 l 49 987 l 213 987 l 213 619 q 262 443 213 509 q 397 364 312 376 l 401 366 l 401 987 l 566 987 l 566 365 z "},"Ω":{"ha":930,"x_min":73,"x_max":842,"o":"m 498 136 q 623 248 578 155 q 668 505 668 340 l 668 576 q 612 793 668 719 q 457 868 556 868 q 303 793 358 868 q 248 576 248 719 l 248 505 q 293 247 248 340 q 421 136 339 154 l 421 0 l 82 0 l 82 133 l 251 133 q 121 295 170 195 q 73 505 73 395 l 73 575 q 180 883 73 764 q 457 1002 286 1002 q 735 883 628 1002 q 842 575 842 764 l 842 505 q 794 295 842 395 q 665 133 745 195 l 838 133 l 838 0 l 498 0 l 498 136 z "},"Ϊ":{"ha":399,"x_min":-45,"x_max":446,"o":"m 282 0 l 117 0 l 117 987 l 282 987 l 282 0 m 446 1086 l 282 1086 l 282 1224 l 446 1224 l 446 1086 m 118 1086 l -45 1086 l -45 1224 l 118 1224 l 118 1086 z "},"Ϋ":{"ha":882,"x_min":18,"x_max":861,"o":"m 439 507 l 677 987 l 861 987 l 519 345 l 519 0 l 355 0 l 355 355 l 18 987 l 201 987 l 439 507 m 688 1086 l 524 1086 l 524 1224 l 688 1224 l 688 1086 m 359 1086 l 196 1086 l 196 1224 l 359 1224 l 359 1086 z "},"ά":{"ha":784,"x_min":58,"x_max":786,"o":"m 688 733 l 688 205 q 701 143 688 161 q 738 125 714 125 q 755 126 747 125 q 769 130 763 127 l 786 7 q 743 -10 764 -5 q 695 -14 722 -14 q 600 9 639 -14 q 543 83 562 33 q 458 11 507 35 q 345 -14 409 -14 q 134 84 210 -14 q 58 342 58 182 l 58 357 q 134 640 58 532 q 346 747 210 747 q 459 722 410 747 q 543 647 508 696 l 576 733 l 688 733 m 223 342 q 262 179 223 241 q 386 117 301 117 q 467 137 433 117 q 524 193 501 157 l 524 205 l 524 539 q 467 595 500 575 q 387 615 433 615 q 263 543 303 615 q 223 357 223 471 l 223 342 m 400 1037 l 564 1037 l 446 848 l 370 848 l 400 1037 z "},"έ":{"ha":760,"x_min":65,"x_max":701,"o":"m 65 208 q 100 312 65 269 q 203 378 136 355 q 111 443 144 402 q 78 533 78 484 q 162 691 78 635 q 389 747 246 747 q 603 686 516 747 q 686 530 689 626 l 684 526 l 527 526 q 486 593 527 566 q 384 620 444 620 q 279 592 315 620 q 243 525 243 564 q 277 458 243 482 q 379 433 311 433 l 514 433 l 514 316 l 379 316 q 268 291 306 316 q 230 214 230 267 q 271 142 230 172 q 384 113 312 113 q 496 143 453 113 q 538 218 538 174 l 696 218 l 697 214 q 608 45 701 103 q 389 -14 516 -14 q 156 46 246 -14 q 65 208 65 105 m 363 1036 l 527 1036 l 408 847 l 333 847 l 363 1036 z "},"ή":{"ha":787,"x_min":85,"x_max":699,"o":"m 236 734 l 245 632 q 335 717 281 687 q 456 747 389 747 q 635 679 572 747 q 699 456 699 610 l 699 -281 l 534 -281 l 534 455 q 500 578 534 541 q 399 615 467 615 q 311 596 349 615 q 250 543 274 577 l 250 0 l 85 0 l 85 734 l 236 734 m 370 1037 l 534 1037 l 415 848 l 340 848 l 370 1037 z "},"ί":{"ha":460,"x_min":115,"x_max":433,"o":"m 279 733 l 279 201 q 296 138 279 156 q 343 121 313 121 q 375 124 361 121 q 407 136 389 128 l 433 16 q 372 -8 401 -1 q 305 -14 342 -14 q 163 39 212 -14 q 115 205 115 92 l 115 733 l 279 733 m 182 1022 l 347 1022 l 228 833 l 153 833 l 182 1022 z "},"ΰ":{"ha":787,"x_min":87,"x_max":727,"o":"m 251 734 l 251 319 q 292 165 251 213 q 401 117 332 117 q 523 195 484 117 q 562 384 562 273 q 540 555 560 469 q 486 734 520 642 l 649 734 q 705 574 684 662 q 727 384 727 487 q 651 96 727 206 q 408 -14 574 -14 q 171 68 255 -14 q 87 320 87 151 l 87 734 l 251 734 m 658 803 l 505 803 l 505 941 l 658 941 l 658 803 m 300 803 l 147 803 l 147 941 l 300 941 l 300 803 m 385 1138 l 554 1138 l 452 953 l 353 953 l 385 1138 z "},"α":{"ha":784,"x_min":58,"x_max":786,"o":"m 688 733 l 688 205 q 701 143 688 161 q 738 125 714 125 q 755 126 747 125 q 769 130 763 127 l 786 7 q 743 -10 764 -5 q 695 -14 722 -14 q 600 9 639 -14 q 543 83 562 33 q 458 11 507 35 q 345 -14 409 -14 q 134 84 210 -14 q 58 342 58 182 l 58 357 q 134 640 58 532 q 346 747 210 747 q 459 722 410 747 q 543 647 508 696 l 576 733 l 688 733 m 223 342 q 262 179 223 241 q 386 117 301 117 q 467 137 433 117 q 524 193 501 157 l 524 205 l 524 539 q 467 595 500 575 q 387 615 433 615 q 263 543 303 615 q 223 357 223 471 l 223 342 z "},"β":{"ha":829,"x_min":102,"x_max":766,"o":"m 418 1002 q 640 929 557 1002 q 723 734 723 856 q 689 617 723 670 q 596 531 656 564 q 722 437 677 501 q 766 286 766 372 q 683 65 766 144 q 460 -14 600 -14 q 357 0 408 -14 q 266 42 307 14 l 266 -267 l 102 -267 l 102 715 q 194 919 102 837 q 418 1002 287 1002 m 416 584 q 524 622 489 584 q 558 728 558 659 q 521 827 558 785 q 418 869 484 869 q 309 826 353 869 q 266 715 266 783 l 266 174 q 336 132 294 146 q 432 117 379 117 q 556 164 510 117 q 602 285 602 211 q 561 408 602 358 q 448 458 519 458 l 366 458 l 366 584 l 416 584 z "},"γ":{"ha":705,"x_min":22,"x_max":687,"o":"m 517 734 l 687 734 l 437 28 l 437 -283 l 273 -283 l 273 31 l 22 734 l 192 734 l 342 248 l 354 188 l 358 188 l 371 248 l 517 734 z "},"δ":{"ha":787,"x_min":56,"x_max":730,"o":"m 649 987 l 649 857 l 359 857 l 357 852 l 567 699 q 685 561 640 644 q 730 374 730 477 l 730 359 q 640 90 730 194 q 393 -14 550 -14 q 146 87 236 -14 q 56 350 56 189 l 56 364 q 129 602 56 505 q 321 720 201 700 l 326 721 l 326 725 l 128 884 l 128 987 l 649 987 m 392 615 q 263 547 306 615 q 221 374 221 479 l 221 359 q 263 184 221 252 q 393 117 305 117 q 523 185 479 117 q 566 359 566 252 l 566 374 q 523 547 566 479 q 392 615 479 615 z "},"ε":{"ha":760,"x_min":65,"x_max":701,"o":"m 65 208 q 100 312 65 269 q 203 378 136 355 q 111 443 144 402 q 78 533 78 484 q 162 691 78 635 q 389 747 246 747 q 603 686 516 747 q 686 530 689 626 l 684 526 l 527 526 q 486 593 527 566 q 384 620 444 620 q 279 592 315 620 q 243 525 243 564 q 277 458 243 482 q 379 433 311 433 l 514 433 l 514 316 l 379 316 q 268 291 306 316 q 230 214 230 267 q 271 142 230 172 q 384 113 312 113 q 496 143 453 113 q 538 218 538 174 l 696 218 l 697 214 q 608 45 701 103 q 389 -14 516 -14 q 156 46 246 -14 q 65 208 65 105 z "},"ζ":{"ha":715,"x_min":66,"x_max":659,"o":"m 658 987 l 658 894 l 421 604 q 305 439 340 509 q 270 276 270 368 q 304 166 270 203 q 406 130 338 130 l 434 130 q 599 84 539 130 q 659 -52 659 37 q 601 -196 657 -133 q 458 -290 544 -259 l 397 -178 q 471 -132 441 -158 q 500 -64 500 -106 q 475 -17 500 -34 q 395 0 450 0 l 361 0 q 171 74 236 0 q 106 260 106 147 q 152 456 106 353 q 294 672 198 558 l 450 852 l 449 855 l 66 855 l 66 987 l 658 987 z "},"η":{"ha":787,"x_min":85,"x_max":699,"o":"m 236 734 l 245 632 q 335 717 281 687 q 456 747 389 747 q 635 679 572 747 q 699 456 699 610 l 699 -281 l 534 -281 l 534 455 q 500 578 534 541 q 399 615 467 615 q 311 596 349 615 q 250 543 274 577 l 250 0 l 85 0 l 85 734 l 236 734 z "},"θ":{"ha":804,"x_min":75,"x_max":722,"o":"m 722 353 q 634 84 722 182 q 399 -14 547 -14 q 163 84 252 -14 q 75 353 75 183 l 75 633 q 163 903 75 804 q 398 1002 251 1002 q 634 903 545 1002 q 722 633 722 804 l 722 353 m 557 430 l 239 430 l 239 330 q 281 173 239 229 q 399 117 323 117 q 516 173 475 117 q 557 330 557 229 l 557 430 m 239 559 l 557 559 l 557 659 q 515 813 557 758 q 398 869 473 869 q 281 813 322 869 q 239 659 239 758 l 239 559 z "},"ι":{"ha":460,"x_min":115,"x_max":433,"o":"m 279 733 l 279 201 q 296 138 279 156 q 343 121 313 121 q 375 124 361 121 q 407 136 389 128 l 433 16 q 372 -8 401 -1 q 305 -14 342 -14 q 163 39 212 -14 q 115 205 115 92 l 115 733 l 279 733 z "},"κ":{"ha":798,"x_min":96,"x_max":767,"o":"m 336 290 l 260 290 l 260 0 l 96 0 l 96 734 l 260 734 l 260 441 l 318 441 l 546 734 l 745 734 l 747 730 l 465 382 l 767 0 l 557 0 l 336 290 z "},"λ":{"ha":770,"x_min":24,"x_max":766,"o":"m 204 0 l 24 0 l 284 707 l 248 792 q 199 867 228 838 q 133 897 171 897 q 111 895 125 897 q 87 893 96 894 l 85 1017 q 128 1026 107 1022 q 170 1029 149 1029 q 319 975 267 1029 q 401 845 372 921 l 646 221 q 682 155 660 180 q 733 127 705 130 q 749 126 743 126 q 766 128 755 126 l 759 -2 q 727 -8 745 -6 q 696 -9 710 -11 q 564 48 614 -6 q 481 193 514 102 l 363 505 l 359 505 l 344 433 l 204 0 z "},"μ":{"ha":821,"x_min":99,"x_max":715,"o":"m 263 734 l 263 313 q 297 159 263 200 q 397 119 331 119 q 493 139 456 119 q 551 201 531 160 l 551 734 l 715 734 l 715 0 l 564 0 l 559 58 q 489 4 529 22 q 397 -14 448 -14 q 322 -5 356 -14 q 263 23 289 4 l 263 -282 l 99 -282 l 99 734 l 263 734 z "},"ν":{"ha":704,"x_min":22,"x_max":687,"o":"m 342 248 l 354 189 l 358 189 l 371 248 l 517 734 l 687 734 l 427 0 l 283 0 l 22 734 l 192 734 l 342 248 z "},"ξ":{"ha":724,"x_min":68,"x_max":701,"o":"m 644 987 l 644 852 l 440 852 q 328 811 366 847 q 291 721 291 776 q 334 633 291 665 q 469 601 377 601 l 568 601 l 568 466 l 471 466 q 293 418 354 466 q 233 278 233 370 q 281 164 233 208 q 414 120 329 120 l 475 120 q 641 75 581 120 q 701 -62 701 29 q 645 -210 700 -149 q 500 -304 590 -271 l 446 -200 q 518 -154 488 -180 q 549 -83 549 -127 q 526 -33 549 -51 q 456 -14 503 -14 l 409 -14 q 161 64 255 -14 q 68 281 68 142 q 120 439 68 374 q 271 534 172 503 q 164 603 202 559 q 126 704 126 647 q 148 791 126 753 q 214 852 170 828 l 69 852 l 69 987 l 644 987 z "},"ο":{"ha":787,"x_min":56,"x_max":730,"o":"m 56 374 q 146 643 56 538 q 392 747 236 747 q 640 643 550 747 q 730 374 730 538 l 730 359 q 640 90 730 194 q 393 -14 550 -14 q 146 90 236 -14 q 56 359 56 195 l 56 374 m 221 359 q 263 184 221 252 q 393 117 305 117 q 523 185 479 117 q 566 359 566 252 l 566 374 q 523 547 566 479 q 392 615 479 615 q 263 547 306 615 q 221 374 221 479 l 221 359 z "},"π":{"ha":859,"x_min":54,"x_max":840,"o":"m 791 606 l 687 606 l 687 201 q 704 138 687 156 q 751 121 720 121 q 783 124 768 121 q 814 136 797 128 l 840 16 q 779 -8 809 -1 q 713 -14 749 -14 q 571 39 620 -14 q 522 205 522 92 l 522 606 l 324 606 l 324 0 l 159 0 l 159 606 l 54 606 l 54 734 l 791 734 l 791 606 z "},"ρ":{"ha":787,"x_min":87,"x_max":728,"o":"m 728 342 q 653 84 728 182 q 445 -14 578 -14 q 335 6 383 -14 q 252 67 286 27 l 252 -282 l 87 -282 l 87 390 q 176 650 87 553 q 406 747 264 747 q 644 640 561 747 q 728 357 728 533 l 728 342 m 563 357 q 524 543 563 471 q 401 615 485 615 q 289 546 327 615 q 252 382 252 476 l 252 197 q 309 138 273 159 q 398 117 345 117 q 523 179 482 117 q 563 342 563 241 l 563 357 z "},"ς":{"ha":732,"x_min":55,"x_max":677,"o":"m 385 747 q 596 674 516 747 q 674 475 677 600 l 673 471 l 524 471 q 488 574 524 533 q 385 615 452 615 q 260 546 300 615 q 220 378 220 477 l 220 355 q 270 203 220 261 q 425 130 319 145 q 609 71 551 111 q 667 -58 667 31 q 608 -201 665 -138 q 466 -294 551 -264 l 406 -183 q 479 -136 450 -162 q 509 -69 509 -111 q 481 -23 509 -39 q 393 1 453 -7 q 139 117 224 26 q 55 355 55 207 l 55 378 q 143 642 55 536 q 385 747 231 747 z "},"σ":{"ha":792,"x_min":56,"x_max":779,"o":"m 779 601 l 599 601 q 691 488 657 555 q 725 346 725 422 l 725 332 q 635 86 725 186 q 393 -14 545 -14 q 145 90 235 -14 q 56 359 56 195 l 56 374 q 145 632 56 531 q 391 734 235 733 l 779 734 l 779 601 m 220 359 q 263 184 220 252 q 393 117 305 117 q 518 185 477 117 q 560 359 560 252 l 560 374 q 518 537 560 473 q 392 601 477 601 l 391 601 q 262 536 304 600 q 220 374 220 472 l 220 359 z "},"τ":{"ha":728,"x_min":45,"x_max":684,"o":"m 684 603 l 446 603 l 446 0 l 281 0 l 281 603 l 45 603 l 45 734 l 684 734 l 684 603 z "},"υ":{"ha":787,"x_min":87,"x_max":727,"o":"m 251 734 l 251 319 q 292 165 251 213 q 401 117 332 117 q 523 195 484 117 q 562 384 562 273 q 540 555 560 469 q 486 734 520 642 l 649 734 q 705 574 684 662 q 727 384 727 487 q 651 96 727 206 q 408 -14 574 -14 q 171 68 255 -14 q 87 320 87 151 l 87 734 l 251 734 z "},"φ":{"ha":1009,"x_min":46,"x_max":958,"o":"m 581 734 q 852 623 746 734 q 958 360 958 512 q 867 110 958 212 q 581 -10 776 7 l 581 -324 l 416 -324 l 416 -9 q 135 122 224 11 q 46 393 46 233 q 69 579 46 494 q 129 734 92 664 l 290 734 q 233 559 254 644 q 211 393 212 475 q 259 220 211 292 q 412 130 307 147 l 416 131 l 416 734 l 581 734 m 793 360 q 736 530 791 461 q 585 597 682 600 l 581 595 l 581 129 l 585 127 q 743 206 693 142 q 793 360 793 270 z "},"χ":{"ha":770,"x_min":42,"x_max":741,"o":"m 126 745 q 276 690 223 745 q 358 560 329 636 l 410 436 l 414 436 l 559 734 l 726 734 l 490 248 l 621 -63 q 660 -130 640 -106 q 708 -157 680 -154 q 724 -157 718 -157 q 741 -156 730 -157 l 734 -287 q 703 -293 721 -291 q 671 -294 686 -295 q 547 -237 594 -291 q 465 -91 500 -182 l 401 57 l 397 58 l 233 -282 l 64 -282 l 321 245 l 209 507 q 159 583 190 553 q 89 612 129 612 q 70 611 81 612 q 43 608 58 610 l 42 732 q 83 741 61 737 q 126 745 105 745 z "},"ψ":{"ha":1004,"x_min":54,"x_max":954,"o":"m 576 734 l 576 130 l 581 129 q 739 219 688 146 q 789 393 789 292 q 766 560 787 475 q 710 734 745 645 l 871 734 q 931 579 908 665 q 954 393 954 494 q 863 119 954 231 q 576 -11 772 8 l 576 -324 l 412 -324 l 412 -9 q 147 112 240 10 q 54 402 54 214 l 54 734 l 218 734 l 218 401 q 269 211 218 277 q 408 130 320 144 l 412 132 l 412 734 l 576 734 z "},"ω":{"ha":1187,"x_min":64,"x_max":1122,"o":"m 332 734 q 258 556 286 644 q 229 384 231 469 q 261 192 229 267 q 367 117 294 117 q 470 167 431 117 q 508 326 508 217 l 508 546 l 678 546 l 678 326 q 716 167 678 217 q 819 117 754 117 q 924 192 891 117 q 958 384 958 266 q 927 557 954 469 q 853 734 900 644 l 1017 734 q 1093 575 1064 663 q 1122 384 1122 488 q 1051 96 1122 205 q 826 -14 981 -14 q 684 25 743 -14 q 593 141 625 65 q 502 25 561 65 q 360 -14 442 -14 q 135 96 205 -14 q 64 384 64 205 q 93 575 64 488 q 169 734 121 663 l 332 734 z "},"ϊ":{"ha":460,"x_min":-41,"x_max":451,"o":"m 279 733 l 279 201 q 296 138 279 156 q 343 121 313 121 q 375 124 361 121 q 407 136 389 128 l 433 16 q 372 -8 401 -1 q 305 -14 342 -14 q 163 39 212 -14 q 115 205 115 92 l 115 733 l 279 733 m 451 852 l 287 852 l 287 991 l 451 991 l 451 852 m 123 852 l -41 852 l -41 991 l 123 991 l 123 852 z "},"ϋ":{"ha":787,"x_min":87,"x_max":727,"o":"m 251 734 l 251 319 q 292 165 251 213 q 401 117 332 117 q 523 195 484 117 q 562 384 562 273 q 540 555 560 469 q 486 734 520 642 l 649 734 q 705 574 684 662 q 727 384 727 487 q 651 96 727 206 q 408 -14 574 -14 q 171 68 255 -14 q 87 320 87 151 l 87 734 l 251 734 m 652 853 l 488 853 l 488 991 l 652 991 l 652 853 m 324 853 l 161 853 l 161 991 l 324 991 l 324 853 z "},"ό":{"ha":787,"x_min":56,"x_max":730,"o":"m 56 374 q 146 643 56 538 q 392 747 236 747 q 640 643 550 747 q 730 374 730 538 l 730 359 q 640 90 730 194 q 393 -14 550 -14 q 146 90 236 -14 q 56 359 56 195 l 56 374 m 221 359 q 263 184 221 252 q 393 117 305 117 q 523 185 479 117 q 566 359 566 252 l 566 374 q 523 547 566 479 q 392 615 479 615 q 263 547 306 615 q 221 374 221 479 l 221 359 m 371 1037 l 535 1037 l 416 848 l 341 848 l 371 1037 z "},"ύ":{"ha":787,"x_min":87,"x_max":727,"o":"m 251 734 l 251 319 q 292 165 251 213 q 401 117 332 117 q 523 195 484 117 q 562 384 562 273 q 540 555 560 469 q 486 734 520 642 l 649 734 q 705 574 684 662 q 727 384 727 487 q 651 96 727 206 q 408 -14 574 -14 q 171 68 255 -14 q 87 320 87 151 l 87 734 l 251 734 m 385 1023 l 549 1023 l 430 833 l 355 833 l 385 1023 z "},"ώ":{"ha":1187,"x_min":64,"x_max":1122,"o":"m 332 734 q 258 556 286 644 q 229 384 231 469 q 261 192 229 267 q 367 117 294 117 q 470 167 431 117 q 508 326 508 217 l 508 546 l 678 546 l 678 326 q 716 167 678 217 q 819 117 754 117 q 924 192 891 117 q 958 384 958 266 q 927 557 954 469 q 853 734 900 644 l 1017 734 q 1093 575 1064 663 q 1122 384 1122 488 q 1051 96 1122 205 q 826 -14 981 -14 q 684 25 743 -14 q 593 141 625 65 q 502 25 561 65 q 360 -14 442 -14 q 135 96 205 -14 q 64 384 64 205 q 93 575 64 488 q 169 734 121 663 l 332 734 m 571 1023 l 735 1023 l 616 833 l 541 833 l 571 1023 z "},"ϑ":{"ha":899,"x_min":79,"x_max":847,"o":"m 361 677 l 361 734 q 429 929 361 856 q 607 1002 498 1002 q 783 930 718 1002 q 847 734 847 859 l 847 390 q 741 97 847 208 q 462 -14 635 -14 q 185 101 292 -14 q 79 390 79 216 l 79 849 l 249 850 l 249 390 q 306 198 249 272 q 462 123 363 123 q 618 192 561 123 q 678 382 675 260 q 450 472 538 390 q 361 677 361 554 l 361 677 m 678 745 q 659 830 678 802 q 602 859 640 859 q 543 830 564 859 q 521 745 521 801 l 521 676 q 562 564 521 609 q 674 515 603 519 l 678 516 l 678 745 z "},"ϒ":{"ha":774,"x_min":-12,"x_max":785,"o":"m 511 827 q 595 961 549 922 q 712 1000 642 1000 q 751 997 734 1000 q 785 985 768 994 l 768 855 q 756 858 766 857 q 739 859 747 859 q 696 844 715 859 q 666 803 677 829 l 467 356 l 467 0 l 303 0 l 303 359 l 105 803 q 74 844 93 829 q 33 859 56 859 q 14 858 23 859 q 3 855 5 857 l -12 985 q 20 997 3 994 q 60 1000 37 1000 q 176 962 130 1000 q 260 829 222 924 l 372 563 l 384 510 l 388 510 l 400 563 l 511 827 z "},"ϖ":{"ha":1118,"x_min":35,"x_max":1099,"o":"m 1099 617 l 1009 617 q 1038 506 1027 564 q 1049 384 1049 448 q 986 96 1049 206 q 785 -14 923 -14 q 648 25 705 -14 q 561 140 591 64 q 473 25 530 64 q 337 -14 416 -14 q 136 96 199 -14 q 73 384 73 206 q 84 506 73 448 q 113 617 94 564 l 35 617 l 35 734 l 1099 734 l 1099 617 m 885 384 q 871 500 883 441 q 838 617 859 558 l 283 617 q 251 499 262 557 q 237 384 239 440 q 263 192 237 267 q 345 117 288 117 q 440 167 404 117 q 477 326 477 217 l 477 479 l 646 479 l 646 326 q 682 167 646 217 q 778 117 718 117 q 859 192 833 117 q 885 384 885 266 z "},"Ѐ":{"ha":769,"x_min":104,"x_max":724,"o":"m 655 444 l 269 444 l 269 132 l 724 132 l 724 0 l 104 0 l 104 987 l 720 987 l 720 855 l 269 855 l 269 576 l 655 576 l 655 444 m 488 1085 l 351 1085 l 175 1261 l 176 1265 l 363 1265 l 488 1085 z "},"Ё":{"ha":769,"x_min":104,"x_max":724,"o":"m 655 444 l 269 444 l 269 132 l 724 132 l 724 0 l 104 0 l 104 987 l 720 987 l 720 855 l 269 855 l 269 576 l 655 576 l 655 444 m 660 1086 l 496 1086 l 496 1224 l 660 1224 l 660 1086 m 332 1086 l 168 1086 l 168 1224 l 332 1224 l 332 1086 z "},"Ђ":{"ha":1041,"x_min":37,"x_max":1000,"o":"m 807 855 l 502 855 l 502 611 l 623 611 q 896 525 792 611 q 1000 283 1000 438 q 935 97 1000 191 q 743 -28 869 3 l 685 89 q 799 163 762 115 q 836 283 836 212 q 778 424 835 374 q 623 474 720 474 l 502 474 l 502 0 l 337 0 l 337 855 l 37 855 l 37 987 l 807 987 l 807 855 z "},"Ѓ":{"ha":766,"x_min":100,"x_max":724,"o":"m 724 855 l 265 855 l 265 0 l 100 0 l 100 987 l 724 987 l 724 855 m 465 1265 l 651 1265 l 652 1261 l 467 1084 l 335 1084 l 465 1265 z "},"Є":{"ha":910,"x_min":85,"x_max":842,"o":"m 837 323 l 838 319 q 741 78 841 170 q 472 -14 642 -14 q 193 103 300 -14 q 85 400 85 219 l 85 588 q 191 885 85 768 q 467 1002 297 1002 q 742 913 642 1002 q 839 670 842 825 l 838 666 l 678 666 q 625 818 678 765 q 467 870 571 870 q 308 790 367 870 q 250 589 250 711 l 250 564 l 589 564 l 589 431 l 250 431 l 250 400 q 309 198 250 277 q 472 118 369 118 q 626 171 573 118 q 678 323 678 224 l 837 323 z "},"Ѕ":{"ha":854,"x_min":65,"x_max":789,"o":"m 624 254 q 580 355 624 315 q 425 425 536 394 q 179 541 266 469 q 93 728 93 612 q 188 924 93 847 q 432 1002 283 1002 q 688 916 592 1002 q 781 704 784 830 l 779 700 l 621 700 q 569 824 621 778 q 431 870 517 870 q 302 831 347 870 q 257 729 257 791 q 307 635 257 672 q 471 565 356 598 q 707 447 626 522 q 789 255 789 372 q 692 59 789 132 q 439 -14 596 -14 q 177 66 289 -14 q 68 292 65 146 l 70 296 l 229 296 q 290 162 229 207 q 439 117 351 117 q 575 154 527 117 q 624 254 624 191 z "},"І":{"ha":399,"x_min":117,"x_max":282,"o":"m 282 0 l 117 0 l 117 987 l 282 987 l 282 0 z "},"Ї":{"ha":399,"x_min":-45,"x_max":446,"o":"m 282 0 l 117 0 l 117 987 l 282 987 l 282 0 m 446 1086 l 282 1086 l 282 1224 l 446 1224 l 446 1086 m 118 1086 l -45 1086 l -45 1224 l 118 1224 l 118 1086 z "},"Ј":{"ha":766,"x_min":37,"x_max":664,"o":"m 500 987 l 664 987 l 664 296 q 577 70 664 154 q 353 -14 491 -14 q 122 60 208 -14 q 40 278 37 135 l 41 282 l 201 282 q 241 158 201 198 q 353 117 281 117 q 459 166 418 117 q 500 296 500 215 l 500 987 z "},"Љ":{"ha":1482,"x_min":31,"x_max":1434,"o":"m 875 987 l 875 626 l 1084 626 q 1340 539 1246 626 q 1434 313 1434 452 q 1340 87 1434 174 q 1084 0 1246 0 l 710 0 l 710 855 l 406 855 l 406 530 q 324 125 406 251 q 64 0 242 0 l 31 0 l 31 132 l 58 132 q 201 222 159 132 q 242 530 242 312 l 242 987 l 875 987 m 875 494 l 875 132 l 1084 132 q 1223 184 1175 132 q 1270 314 1270 237 q 1223 441 1270 389 q 1084 494 1175 494 l 875 494 z "},"Њ":{"ha":1482,"x_min":102,"x_max":1434,"o":"m 267 567 l 710 567 l 710 987 l 874 987 l 874 603 l 1084 603 q 1341 520 1247 603 q 1434 304 1434 437 q 1340 84 1434 169 q 1084 0 1246 0 l 710 0 l 710 435 l 267 435 l 267 0 l 102 0 l 102 987 l 267 987 l 267 567 m 874 471 l 874 137 l 1084 137 q 1222 185 1175 137 q 1270 305 1270 233 q 1222 423 1270 376 q 1084 471 1175 471 l 874 471 z "},"Ћ":{"ha":1122,"x_min":47,"x_max":1031,"o":"m 818 855 l 513 855 l 513 659 l 681 659 q 941 581 850 659 q 1031 340 1031 504 l 1031 0 l 866 0 l 866 340 q 823 485 866 444 q 681 526 779 526 l 513 526 l 513 0 l 348 0 l 348 855 l 47 855 l 47 987 l 818 987 l 818 855 z "},"Ќ":{"ha":884,"x_min":104,"x_max":880,"o":"m 349 427 l 269 427 l 269 0 l 104 0 l 104 987 l 269 987 l 269 569 l 333 569 l 654 987 l 847 987 l 849 984 l 479 520 l 880 0 l 671 0 l 349 427 m 460 1205 l 647 1205 l 648 1201 l 463 1025 l 331 1025 l 460 1205 z "},"Ѝ":{"ha":973,"x_min":102,"x_max":873,"o":"m 708 987 l 873 987 l 873 0 l 708 0 l 708 708 l 704 709 l 266 0 l 102 0 l 102 987 l 266 987 l 266 280 l 270 279 l 708 987 m 563 1085 l 426 1085 l 250 1261 l 251 1265 l 438 1265 l 563 1085 z "},"Ў":{"ha":884,"x_min":32,"x_max":849,"o":"m 407 541 l 441 441 l 446 441 l 667 987 l 849 987 l 490 175 q 393 35 450 85 q 229 -14 336 -14 q 151 -7 186 -14 q 85 12 116 0 l 104 135 q 159 122 132 127 q 211 117 187 117 q 298 143 267 117 q 349 215 330 170 l 369 261 l 32 987 l 212 987 l 407 541 m 654 1278 l 656 1274 q 600 1138 659 1190 q 441 1086 541 1086 q 281 1138 340 1086 q 226 1274 222 1190 l 228 1278 l 350 1278 q 372 1213 350 1238 q 441 1188 394 1188 q 509 1213 486 1188 q 531 1278 531 1238 l 654 1278 z "},"Џ":{"ha":973,"x_min":98,"x_max":870,"o":"m 98 987 l 263 987 l 263 132 l 705 132 l 705 987 l 870 987 l 870 0 l 573 0 l 573 -244 l 408 -244 l 408 0 l 98 0 l 98 987 z "},"А":{"ha":882,"x_min":22,"x_max":863,"o":"m 618 231 l 268 231 l 192 0 l 22 0 l 366 987 l 523 987 l 863 0 l 693 0 l 618 231 m 313 368 l 573 368 l 446 758 l 442 758 l 313 368 z "},"Б":{"ha":873,"x_min":100,"x_max":825,"o":"m 724 855 l 265 855 l 265 621 l 474 621 q 732 536 638 621 q 825 313 825 451 q 731 87 825 174 q 474 0 637 0 l 100 0 l 100 987 l 724 987 l 724 855 m 265 489 l 265 132 l 474 132 q 613 184 566 132 q 661 314 661 237 q 613 438 661 388 q 474 489 566 489 l 265 489 z "},"В":{"ha":884,"x_min":104,"x_max":833,"o":"m 104 0 l 104 987 l 427 987 q 683 920 591 987 q 775 718 775 852 q 738 601 775 653 q 635 522 701 549 q 782 439 730 506 q 833 283 833 373 q 742 72 833 144 q 491 0 651 0 l 104 0 m 269 449 l 269 132 l 491 132 q 623 171 576 132 q 669 283 669 210 q 623 402 669 358 q 496 449 578 446 l 487 449 l 269 449 m 269 572 l 445 572 q 566 608 522 572 q 610 711 610 644 q 564 820 610 784 q 427 855 517 855 l 269 855 l 269 572 z "},"Г":{"ha":766,"x_min":100,"x_max":724,"o":"m 724 855 l 265 855 l 265 0 l 100 0 l 100 987 l 724 987 l 724 855 z "},"Д":{"ha":1035,"x_min":24,"x_max":1017,"o":"m 1017 -243 l 852 -243 l 852 0 l 189 0 l 189 -243 l 24 -243 l 24 132 l 89 132 q 212 243 173 132 q 262 583 252 355 l 285 987 l 889 987 l 889 132 l 1017 132 l 1017 -243 m 428 583 q 394 317 420 430 q 324 132 369 204 l 724 132 l 724 855 l 442 855 l 428 583 z "},"Е":{"ha":769,"x_min":104,"x_max":724,"o":"m 655 444 l 269 444 l 269 132 l 724 132 l 724 0 l 104 0 l 104 987 l 720 987 l 720 855 l 269 855 l 269 576 l 655 576 l 655 444 z "},"Ж":{"ha":1202,"x_min":11,"x_max":1191,"o":"m 736 431 l 686 431 l 686 0 l 522 0 l 522 431 l 468 431 l 216 0 l 11 0 l 334 526 l 33 987 l 232 987 l 476 572 l 522 572 l 522 987 l 686 987 l 686 572 l 729 572 l 970 987 l 1168 987 l 869 526 l 1191 0 l 986 0 l 736 431 z "},"З":{"ha":927,"x_min":71,"x_max":847,"o":"m 459 569 q 616 609 566 569 q 667 720 667 649 q 612 827 667 784 q 448 869 556 869 q 306 828 363 869 q 248 725 248 787 l 90 725 l 88 729 q 189 926 84 850 q 448 1002 294 1002 q 729 928 626 1002 q 831 720 831 855 q 787 595 831 652 q 663 507 742 539 q 800 419 752 478 q 847 277 847 361 q 736 63 847 140 q 448 -14 626 -14 q 182 58 294 -14 q 74 270 71 131 l 75 274 l 234 274 q 294 162 234 208 q 448 117 354 117 q 620 162 557 117 q 682 276 682 206 q 626 398 682 359 q 459 438 570 438 l 331 438 l 331 569 l 459 569 z "},"И":{"ha":973,"x_min":102,"x_max":873,"o":"m 708 987 l 873 987 l 873 0 l 708 0 l 708 708 l 704 709 l 266 0 l 102 0 l 102 987 l 266 987 l 266 280 l 270 279 l 708 987 z "},"Й":{"ha":973,"x_min":102,"x_max":873,"o":"m 708 987 l 873 987 l 873 0 l 708 0 l 708 708 l 704 709 l 266 0 l 102 0 l 102 987 l 266 987 l 266 280 l 270 279 l 708 987 m 702 1278 l 704 1274 q 648 1138 707 1190 q 489 1086 589 1086 q 330 1138 389 1086 q 274 1274 271 1190 l 276 1278 l 398 1278 q 420 1213 398 1238 q 489 1188 442 1188 q 557 1213 534 1188 q 579 1278 579 1238 l 702 1278 z "},"К":{"ha":884,"x_min":104,"x_max":880,"o":"m 349 427 l 269 427 l 269 0 l 104 0 l 104 987 l 269 987 l 269 569 l 333 569 l 654 987 l 847 987 l 849 984 l 479 520 l 880 0 l 671 0 l 349 427 z "},"Л":{"ha":978,"x_min":31,"x_max":875,"o":"m 875 987 l 875 0 l 710 0 l 710 855 l 390 855 l 390 530 q 312 125 390 251 q 64 0 235 0 l 31 0 l 31 132 l 58 132 q 189 221 152 132 q 226 530 226 311 l 226 987 l 875 987 z "},"М":{"ha":1208,"x_min":104,"x_max":1103,"o":"m 604 228 l 608 228 l 893 987 l 1103 987 l 1103 0 l 939 0 l 939 709 l 935 710 l 663 0 l 549 0 l 273 724 l 269 722 l 269 0 l 104 0 l 104 987 l 320 987 l 604 228 z "},"Н":{"ha":979,"x_min":104,"x_max":875,"o":"m 875 0 l 710 0 l 710 421 l 269 421 l 269 0 l 104 0 l 104 987 l 269 987 l 269 553 l 710 553 l 710 987 l 875 987 l 875 0 z "},"О":{"ha":951,"x_min":71,"x_max":880,"o":"m 880 405 q 766 105 880 224 q 471 -14 652 -14 q 182 105 294 -14 q 71 405 71 224 l 71 583 q 182 882 71 763 q 471 1002 293 1002 q 766 882 652 1002 q 880 583 880 763 l 880 405 m 715 584 q 649 787 715 707 q 471 866 583 866 q 299 787 361 866 q 236 584 236 707 l 236 405 q 299 200 236 280 q 471 121 362 121 q 649 200 584 121 q 715 405 715 279 l 715 584 z "},"П":{"ha":978,"x_min":102,"x_max":875,"o":"m 875 0 l 710 0 l 710 855 l 267 855 l 267 0 l 102 0 l 102 987 l 875 987 l 875 0 z "},"Р":{"ha":884,"x_min":104,"x_max":831,"o":"m 269 374 l 269 0 l 104 0 l 104 987 l 482 987 q 738 903 646 987 q 831 681 831 819 q 738 458 831 542 q 482 374 646 374 l 269 374 m 269 507 l 482 507 q 620 555 574 507 q 666 680 666 604 q 620 805 666 755 q 482 855 574 855 l 269 855 l 269 507 z "},"С":{"ha":882,"x_min":74,"x_max":830,"o":"m 825 323 l 827 319 q 730 78 829 170 q 460 -14 630 -14 q 181 102 288 -14 q 74 399 74 218 l 74 587 q 180 885 74 768 q 456 1002 286 1002 q 730 913 630 1002 q 827 669 830 824 l 826 665 l 667 665 q 613 817 667 764 q 456 869 559 869 q 297 790 355 869 q 238 589 238 710 l 238 399 q 298 197 238 277 q 460 117 357 117 q 614 170 562 117 q 667 323 667 223 l 825 323 z "},"Т":{"ha":815,"x_min":23,"x_max":793,"o":"m 793 855 l 488 855 l 488 0 l 323 0 l 323 855 l 23 855 l 23 987 l 793 987 l 793 855 z "},"У":{"ha":884,"x_min":32,"x_max":849,"o":"m 407 541 l 441 441 l 446 441 l 667 987 l 849 987 l 490 175 q 393 35 450 85 q 229 -14 336 -14 q 151 -7 186 -14 q 85 12 116 0 l 104 135 q 159 122 132 127 q 211 117 187 117 q 298 143 267 117 q 349 215 330 170 l 369 261 l 32 987 l 212 987 l 407 541 z "},"Ф":{"ha":998,"x_min":49,"x_max":954,"o":"m 585 844 q 850 739 746 837 q 954 490 954 642 q 850 241 954 338 q 585 138 746 144 l 585 0 l 420 0 l 420 138 q 153 240 256 144 q 49 488 49 336 q 153 739 49 641 q 420 844 257 837 l 420 987 l 585 987 l 585 844 m 211 488 q 265 337 211 392 q 416 280 319 282 l 420 281 l 420 701 l 416 702 q 265 642 319 699 q 211 488 211 585 m 792 490 q 738 643 792 587 q 589 702 684 699 l 585 701 l 585 281 l 589 280 q 738 338 684 282 q 792 490 792 393 z "},"Х":{"ha":882,"x_min":34,"x_max":856,"o":"m 441 623 l 649 987 l 844 987 l 541 498 l 856 0 l 658 0 l 444 371 l 229 0 l 34 0 l 345 498 l 41 987 l 235 987 l 441 623 z "},"Ц":{"ha":1048,"x_min":96,"x_max":999,"o":"m 96 987 l 261 987 l 261 132 l 704 132 l 704 987 l 869 987 l 869 134 l 999 134 l 999 -243 l 835 -243 l 835 0 l 96 0 l 96 987 z "},"Ч":{"ha":956,"x_min":97,"x_max":852,"o":"m 852 987 l 852 0 l 688 0 l 688 391 q 575 370 635 377 q 452 362 516 362 q 189 438 280 362 q 97 676 97 513 l 97 987 l 262 987 l 262 676 q 307 534 262 573 q 452 495 351 495 q 570 503 509 495 q 688 525 632 511 l 688 987 l 852 987 z "},"Ш":{"ha":1423,"x_min":100,"x_max":1332,"o":"m 264 987 l 264 132 l 635 132 l 635 987 l 799 987 l 799 132 l 1167 132 l 1167 987 l 1332 987 l 1332 0 l 100 0 l 100 987 l 264 987 z "},"Щ":{"ha":1497,"x_min":100,"x_max":1466,"o":"m 264 987 l 264 132 l 635 132 l 635 987 l 799 987 l 799 132 l 1167 132 l 1167 987 l 1332 987 l 1332 127 l 1466 127 l 1466 -240 l 1301 -240 l 1301 0 l 100 0 l 100 987 l 264 987 z "},"Ъ":{"ha":993,"x_min":2,"x_max":936,"o":"m 2 987 l 376 987 l 376 621 l 585 621 q 842 536 749 621 q 936 313 936 451 q 842 87 936 174 q 585 0 748 0 l 211 0 l 211 855 l 2 855 l 2 987 m 376 489 l 376 132 l 585 132 q 724 184 676 132 q 771 314 771 237 q 724 438 771 388 q 585 489 676 489 l 376 489 z "},"Ы":{"ha":1196,"x_min":100,"x_max":1095,"o":"m 265 621 l 474 621 q 732 536 638 621 q 825 313 825 451 q 731 87 825 174 q 474 0 637 0 l 100 0 l 100 987 l 265 987 l 265 621 m 1095 0 l 930 0 l 930 987 l 1095 987 l 1095 0 m 265 489 l 265 132 l 474 132 q 613 184 566 132 q 661 314 661 237 q 613 438 661 388 q 474 489 566 489 l 265 489 z "},"Ь":{"ha":873,"x_min":100,"x_max":825,"o":"m 265 621 l 474 621 q 732 536 638 621 q 825 313 825 451 q 731 87 825 174 q 474 0 637 0 l 100 0 l 100 987 l 265 987 l 265 621 m 265 489 l 265 132 l 474 132 q 613 184 566 132 q 661 314 661 237 q 613 438 661 388 q 474 489 566 489 l 265 489 z "},"Э":{"ha":909,"x_min":93,"x_max":840,"o":"m 98 665 l 96 669 q 192 910 93 817 q 460 1002 290 1002 q 735 886 629 1002 q 840 588 840 769 l 840 400 q 735 102 840 218 q 460 -14 629 -14 q 191 75 288 -14 q 96 318 93 163 l 98 322 l 256 322 q 307 170 256 222 q 460 118 358 118 q 617 197 559 118 q 675 399 675 277 l 675 439 l 326 439 l 326 572 l 675 572 l 675 588 q 617 790 675 710 q 460 870 559 870 q 308 817 359 870 q 257 665 257 764 l 98 665 z "},"Ю":{"ha":1272,"x_min":117,"x_max":1205,"o":"m 1205 405 q 1092 105 1205 224 q 796 -14 978 -14 q 508 105 619 -14 q 397 405 397 224 l 397 417 l 282 417 l 282 0 l 117 0 l 117 987 l 282 987 l 282 550 l 397 550 l 397 583 q 508 882 397 763 q 796 1002 618 1002 q 1091 882 977 1002 q 1205 583 1205 763 l 1205 405 m 1040 584 q 975 787 1040 707 q 796 866 909 866 q 624 787 687 866 q 562 584 562 707 l 562 405 q 625 200 562 280 q 796 121 688 121 q 975 200 909 121 q 1040 405 1040 279 l 1040 584 z "},"Я":{"ha":819,"x_min":5,"x_max":736,"o":"m 182 0 l 5 0 l 228 442 q 96 544 140 480 q 52 698 52 608 q 146 911 52 836 q 408 987 241 987 l 736 987 l 736 0 l 571 0 l 571 395 l 376 395 l 182 0 m 571 855 l 408 855 q 264 812 313 855 q 216 694 216 770 q 265 571 216 618 q 408 523 315 523 l 571 523 l 571 855 z "},"а":{"ha":755,"x_min":56,"x_max":696,"o":"m 529 0 q 514 54 520 28 q 507 107 509 81 q 418 21 473 56 q 294 -14 362 -14 q 118 45 179 -14 q 56 207 56 104 q 140 373 56 313 q 377 432 224 432 l 505 432 l 505 496 q 472 587 505 554 q 374 619 438 619 q 285 592 318 619 q 252 523 252 566 l 93 522 l 92 526 q 170 680 87 613 q 385 747 252 747 q 591 682 513 747 q 670 495 670 617 l 670 169 q 676 82 670 123 q 696 0 682 40 l 529 0 m 328 118 q 439 149 389 118 q 505 220 489 180 l 505 329 l 374 329 q 262 293 302 329 q 221 210 221 258 q 249 143 221 168 q 328 118 276 118 z "},"б":{"ha":773,"x_min":56,"x_max":730,"o":"m 414 747 q 645 643 561 747 q 730 374 730 538 l 730 359 q 640 90 730 195 q 393 -14 550 -14 q 145 90 235 -14 q 56 359 56 195 l 56 374 q 56 382 56 378 q 56 389 56 385 l 56 545 q 139 864 56 764 q 391 971 222 964 q 529 992 481 974 q 576 1055 576 1011 l 703 1055 l 704 1050 q 631 883 707 930 q 405 833 555 836 q 248 783 304 830 q 193 649 191 735 l 195 646 q 292 719 234 690 q 414 747 349 747 m 392 615 q 263 547 305 615 q 220 374 220 479 l 220 359 q 263 184 220 252 q 393 117 305 117 q 522 185 479 117 q 565 359 565 252 l 565 374 q 522 547 565 479 q 392 615 479 615 z "},"в":{"ha":787,"x_min":92,"x_max":729,"o":"m 92 0 l 92 734 l 390 734 q 617 683 536 734 q 698 530 698 631 q 665 438 698 479 q 573 377 633 398 q 689 315 648 361 q 729 210 729 269 q 653 53 729 106 q 437 0 576 0 l 92 0 m 256 313 l 256 130 l 437 130 q 532 154 500 130 q 564 221 564 177 q 533 289 564 264 q 437 313 502 313 l 256 313 m 256 431 l 399 431 q 500 452 467 431 q 533 513 533 473 q 497 581 533 559 q 390 603 461 603 l 256 603 l 256 431 z "},"г":{"ha":578,"x_min":85,"x_max":568,"o":"m 568 601 l 250 601 l 250 0 l 85 0 l 85 734 l 568 734 l 568 601 z "},"д":{"ha":903,"x_min":48,"x_max":857,"o":"m 94 132 l 118 132 q 194 207 171 132 q 227 444 218 281 l 243 734 l 758 734 l 758 132 l 857 132 l 857 -243 l 692 -243 l 692 0 l 213 0 l 213 -243 l 48 -243 l 48 132 l 94 132 m 391 444 q 372 261 385 338 q 335 132 359 184 l 593 132 l 593 592 l 399 592 l 391 444 z "},"е":{"ha":727,"x_min":56,"x_max":680,"o":"m 398 -14 q 147 87 237 -14 q 56 350 56 189 l 56 377 q 147 643 56 538 q 380 747 237 748 q 604 656 528 747 q 680 412 680 565 l 680 323 l 227 323 l 225 320 q 273 174 228 230 q 408 117 317 117 q 524 134 475 117 q 615 180 573 150 l 669 73 q 557 11 627 36 q 398 -14 488 -14 m 380 615 q 277 569 316 615 q 229 448 239 522 l 231 444 l 517 444 l 517 457 q 485 571 517 528 q 380 615 452 615 z "},"ж":{"ha":1058,"x_min":15,"x_max":1042,"o":"m 658 295 l 610 295 l 610 0 l 446 0 l 446 295 l 399 295 l 224 0 l 15 0 l 271 390 l 33 734 l 236 734 l 409 446 l 446 446 l 446 734 l 610 734 l 610 446 l 648 446 l 821 734 l 1025 734 l 786 390 l 1042 0 l 833 0 l 658 295 z "},"з":{"ha":760,"x_min":63,"x_max":696,"o":"m 384 434 q 485 458 452 434 q 519 525 519 482 q 483 592 519 564 q 379 620 448 620 q 278 593 318 620 q 237 526 237 566 l 80 526 l 79 530 q 160 687 75 627 q 374 747 246 747 q 600 691 516 747 q 683 533 683 635 q 650 443 683 484 q 559 378 617 402 q 661 312 626 355 q 696 208 696 269 q 607 46 696 105 q 374 -14 517 -14 q 155 45 246 -14 q 67 214 63 103 l 68 218 l 226 218 q 268 143 226 174 q 380 113 309 113 q 491 142 450 113 q 532 214 532 172 q 494 291 532 267 q 384 315 456 315 l 252 315 l 252 434 l 384 434 z "},"и":{"ha":787,"x_min":85,"x_max":701,"o":"m 537 734 l 701 734 l 701 0 l 537 0 l 537 487 l 533 488 l 250 0 l 85 0 l 85 734 l 250 734 l 250 248 l 254 246 l 537 734 z "},"й":{"ha":787,"x_min":85,"x_max":701,"o":"m 537 734 l 701 734 l 701 0 l 537 0 l 537 487 l 533 488 l 250 0 l 85 0 l 85 734 l 250 734 l 250 248 l 254 246 l 537 734 m 607 1045 l 609 1041 q 553 905 612 958 q 394 853 494 853 q 235 905 294 853 q 179 1041 176 958 l 181 1045 l 303 1045 q 325 981 303 1006 q 394 956 347 956 q 462 981 439 956 q 484 1045 484 1006 l 607 1045 z "},"к":{"ha":775,"x_min":96,"x_max":762,"o":"m 335 290 l 260 290 l 260 0 l 96 0 l 96 734 l 260 734 l 260 441 l 318 441 l 536 734 l 740 734 l 463 384 l 762 0 l 548 0 l 335 290 z "},"л":{"ha":774,"x_min":15,"x_max":701,"o":"m 701 734 l 701 0 l 537 0 l 537 601 l 323 601 l 323 421 q 262 102 323 204 q 50 0 200 0 l 15 0 l 16 139 l 40 139 q 134 201 110 139 q 159 421 159 264 l 159 734 l 701 734 z "},"м":{"ha":1046,"x_min":96,"x_max":943,"o":"m 517 208 l 522 208 l 736 734 l 943 734 l 943 0 l 778 0 l 778 477 l 774 478 l 575 0 l 463 0 l 264 480 l 260 479 l 260 0 l 96 0 l 96 734 l 304 734 l 517 208 z "},"н":{"ha":787,"x_min":85,"x_max":701,"o":"m 701 0 l 536 0 l 536 296 l 250 296 l 250 0 l 85 0 l 85 734 l 250 734 l 250 428 l 536 428 l 536 734 l 701 734 l 701 0 z "},"о":{"ha":787,"x_min":56,"x_max":730,"o":"m 56 374 q 146 643 56 538 q 392 747 236 747 q 640 643 550 747 q 730 374 730 538 l 730 359 q 640 90 730 194 q 393 -14 550 -14 q 146 90 236 -14 q 56 359 56 195 l 56 374 m 221 359 q 263 184 221 252 q 393 117 305 117 q 523 185 479 117 q 566 359 566 252 l 566 374 q 523 547 566 479 q 392 615 479 615 q 263 547 306 615 q 221 374 221 479 l 221 359 z "},"п":{"ha":787,"x_min":85,"x_max":701,"o":"m 701 0 l 536 0 l 536 601 l 250 601 l 250 0 l 85 0 l 85 734 l 701 734 l 701 0 z "},"р":{"ha":787,"x_min":87,"x_max":730,"o":"m 730 342 q 654 84 730 182 q 445 -14 579 -14 q 334 8 382 -14 q 252 74 286 31 l 252 -282 l 87 -282 l 87 734 l 226 734 l 242 642 q 327 720 277 693 q 443 747 377 747 q 654 640 578 747 q 730 357 730 532 l 730 342 m 566 357 q 523 541 566 469 q 397 612 481 612 q 309 590 345 612 q 252 529 273 568 l 252 197 q 309 138 273 159 q 398 117 345 117 q 524 179 482 117 q 566 342 566 241 l 566 357 z "},"с":{"ha":722,"x_min":55,"x_max":673,"o":"m 386 117 q 481 153 442 117 q 520 242 520 188 l 669 242 l 671 238 q 589 60 673 135 q 386 -14 505 -14 q 141 91 227 -14 q 55 355 55 195 l 55 378 q 141 642 55 537 q 385 747 227 747 q 593 670 513 747 q 671 475 673 593 l 669 471 l 520 471 q 483 573 520 531 q 385 615 446 615 q 258 547 297 615 q 220 378 220 479 l 220 355 q 258 185 220 252 q 386 117 296 117 z "},"т":{"ha":718,"x_min":41,"x_max":679,"o":"m 679 603 l 440 603 l 440 0 l 275 0 l 275 603 l 41 603 l 41 734 l 679 734 l 679 603 z "},"у":{"ha":704,"x_min":11,"x_max":692,"o":"m 330 294 l 347 221 l 351 221 l 511 734 l 692 734 l 388 -111 q 306 -242 359 -188 q 156 -296 253 -296 q 112 -292 136 -296 q 67 -283 89 -288 l 85 -155 q 111 -157 94 -156 q 135 -159 127 -159 q 207 -128 180 -159 q 250 -58 233 -98 l 277 9 l 11 734 l 191 734 l 330 294 z "},"ф":{"ha":1227,"x_min":55,"x_max":1168,"o":"m 55 357 q 130 640 55 532 q 342 747 205 747 q 445 727 399 747 q 526 669 491 707 l 526 1058 l 690 1058 l 690 661 q 773 725 725 703 q 882 747 821 747 q 1093 640 1017 747 q 1168 357 1168 532 l 1168 342 q 1093 84 1168 182 q 883 -14 1017 -14 q 773 7 821 -14 q 690 68 725 28 l 690 -282 l 526 -282 l 526 62 q 445 5 491 24 q 340 -14 399 -14 q 130 84 205 -14 q 55 342 55 182 l 55 357 m 1004 357 q 962 543 1004 470 q 836 615 920 615 q 748 592 784 615 q 690 529 711 570 l 690 199 q 748 139 711 160 q 837 117 784 117 q 962 179 921 117 q 1004 342 1004 241 l 1004 357 m 220 342 q 259 179 220 241 q 382 117 298 117 q 468 137 433 117 q 526 195 503 157 l 526 537 q 467 594 503 574 q 384 615 432 615 q 260 543 300 615 q 220 357 220 471 l 220 342 z "},"х":{"ha":704,"x_min":22,"x_max":682,"o":"m 350 482 l 486 734 l 675 734 l 444 371 l 682 0 l 494 0 l 353 258 l 211 0 l 22 0 l 260 371 l 29 734 l 216 734 l 350 482 z "},"ц":{"ha":836,"x_min":85,"x_max":800,"o":"m 85 734 l 250 734 l 250 132 l 536 132 l 536 734 l 701 734 l 701 132 l 800 132 l 800 -241 l 635 -241 l 635 0 l 85 0 l 85 734 z "},"ч":{"ha":772,"x_min":79,"x_max":687,"o":"m 687 0 l 522 0 l 522 245 q 455 234 490 237 q 387 230 421 230 q 160 300 241 230 q 79 509 79 370 l 79 734 l 243 734 l 243 509 q 278 397 243 431 q 387 363 313 363 q 456 367 423 363 q 522 378 489 370 l 522 734 l 687 734 l 687 0 z "},"ш":{"ha":1131,"x_min":85,"x_max":1038,"o":"m 250 734 l 250 132 l 479 132 l 479 734 l 644 734 l 644 132 l 874 132 l 874 734 l 1038 734 l 1038 0 l 85 0 l 85 734 l 250 734 z "},"щ":{"ha":1215,"x_min":85,"x_max":1174,"o":"m 250 734 l 250 132 l 479 132 l 479 734 l 644 734 l 644 132 l 874 132 l 874 734 l 1038 734 l 1038 137 l 1174 137 l 1174 -243 l 1010 -243 l 1010 0 l 85 0 l 85 734 l 250 734 z "},"ъ":{"ha":872,"x_min":21,"x_max":851,"o":"m 395 478 l 556 478 q 773 412 694 478 q 851 241 851 347 q 772 67 851 134 q 556 0 694 0 l 231 0 l 231 602 l 21 602 l 21 734 l 395 734 l 395 478 m 395 346 l 395 132 l 556 132 q 654 162 623 132 q 686 238 686 192 q 654 314 686 282 q 556 346 622 346 l 395 346 z "},"ы":{"ha":1124,"x_min":110,"x_max":996,"o":"m 275 478 l 435 478 q 652 412 574 478 q 730 241 730 347 q 652 67 730 134 q 435 0 573 0 l 110 0 l 110 734 l 275 734 l 275 478 m 996 0 l 831 0 l 831 734 l 996 734 l 996 0 m 275 346 l 275 132 l 435 132 q 534 162 502 132 q 566 238 566 192 q 533 314 566 282 q 435 346 501 346 l 275 346 z "},"ь":{"ha":764,"x_min":96,"x_max":717,"o":"m 261 478 l 422 478 q 638 412 560 478 q 717 241 717 347 q 638 67 717 134 q 422 0 559 0 l 96 0 l 96 734 l 261 734 l 261 478 m 261 346 l 261 132 l 422 132 q 520 162 488 132 q 552 238 552 192 q 520 314 552 282 q 422 346 488 346 l 261 346 z "},"э":{"ha":735,"x_min":56,"x_max":678,"o":"m 348 615 q 250 579 290 615 q 210 490 210 544 l 61 490 l 59 494 q 142 672 56 597 q 348 747 229 747 q 590 642 503 747 q 678 378 678 536 l 678 355 q 590 91 678 197 q 349 -14 503 -14 q 137 62 219 -14 q 59 258 56 139 l 60 262 l 210 262 q 249 159 210 201 q 349 117 288 117 q 463 173 423 117 q 509 311 503 229 l 507 315 l 281 315 l 281 429 l 506 429 l 507 432 q 461 563 500 511 q 348 615 421 615 z "},"ю":{"ha":1131,"x_min":97,"x_max":1073,"o":"m 262 439 l 404 439 q 508 662 421 577 q 735 747 595 747 q 983 643 893 747 q 1073 374 1073 538 l 1073 359 q 983 90 1073 194 q 736 -14 893 -14 q 504 74 592 -14 q 402 307 416 162 l 262 307 l 262 0 l 97 0 l 97 734 l 262 734 l 262 439 m 564 359 q 606 184 564 252 q 736 117 648 117 q 866 185 823 117 q 909 359 909 252 l 909 374 q 866 547 909 479 q 735 615 823 615 q 607 547 649 615 q 564 374 564 479 l 564 359 z "},"я":{"ha":787,"x_min":44,"x_max":690,"o":"m 690 734 l 690 0 l 526 0 l 526 269 l 372 269 l 215 0 l 44 0 l 217 296 q 113 377 149 324 q 77 499 77 431 q 156 668 77 602 q 374 734 236 734 l 690 734 m 241 495 q 273 422 241 452 q 365 391 304 391 l 526 391 l 526 603 l 374 603 q 275 571 309 603 q 241 495 241 538 z "},"ѐ":{"ha":727,"x_min":56,"x_max":680,"o":"m 398 -14 q 147 87 237 -14 q 56 350 56 189 l 56 377 q 147 643 56 538 q 380 747 237 748 q 604 656 528 747 q 680 412 680 565 l 680 323 l 227 323 l 225 320 q 273 174 228 230 q 408 117 317 117 q 524 134 475 117 q 615 180 573 150 l 669 73 q 557 11 627 36 q 398 -14 488 -14 m 380 615 q 277 569 316 615 q 229 448 239 522 l 231 444 l 517 444 l 517 457 q 485 571 517 528 q 380 615 452 615 m 440 867 l 303 867 l 127 1044 l 128 1048 l 315 1048 l 440 867 z "},"ё":{"ha":727,"x_min":56,"x_max":680,"o":"m 398 -14 q 147 87 237 -14 q 56 350 56 189 l 56 377 q 147 643 56 538 q 380 747 237 748 q 604 656 528 747 q 680 412 680 565 l 680 323 l 227 323 l 225 320 q 273 174 228 230 q 408 117 317 117 q 524 134 475 117 q 615 180 573 150 l 669 73 q 557 11 627 36 q 398 -14 488 -14 m 380 615 q 277 569 316 615 q 229 448 239 522 l 231 444 l 517 444 l 517 457 q 485 571 517 528 q 380 615 452 615 m 612 868 l 448 868 l 448 1006 l 612 1006 l 612 868 m 283 868 l 120 868 l 120 1006 l 283 1006 l 283 868 z "},"ђ":{"ha":787,"x_min":-16,"x_max":703,"o":"m 385 824 l 250 824 l 250 639 q 339 719 286 690 q 455 747 391 747 q 637 674 572 747 q 703 447 703 600 l 703 -43 q 640 -230 703 -164 q 465 -296 576 -296 q 420 -294 440 -296 q 378 -285 399 -291 l 388 -155 q 419 -161 399 -159 q 454 -164 439 -164 q 516 -132 494 -164 q 538 -43 538 -100 l 538 448 q 504 573 538 534 q 404 612 471 612 q 313 594 351 612 q 250 542 274 575 l 250 0 l 85 0 l 85 824 l -16 824 l -16 930 l 85 930 l 85 1058 l 250 1058 l 250 930 l 385 930 l 385 824 z "},"ѓ":{"ha":578,"x_min":85,"x_max":568,"o":"m 568 601 l 250 601 l 250 0 l 85 0 l 85 734 l 568 734 l 568 601 m 338 1032 l 525 1032 l 526 1028 l 341 852 l 209 852 l 338 1032 z "},"є":{"ha":736,"x_min":55,"x_max":673,"o":"m 386 117 q 481 153 442 117 q 520 242 520 188 l 669 242 l 671 238 q 589 60 673 135 q 386 -14 505 -14 q 141 91 227 -14 q 55 355 55 195 l 55 378 q 141 642 55 537 q 385 747 227 747 q 593 670 513 747 q 671 475 673 593 l 669 471 l 520 471 q 483 573 520 531 q 385 615 446 615 q 268 560 307 615 q 224 423 229 505 l 226 420 l 458 420 l 458 306 l 227 306 l 225 302 q 269 169 231 221 q 386 117 308 117 z "},"ѕ":{"ha":722,"x_min":56,"x_max":661,"o":"m 499 201 q 467 263 499 239 q 345 308 435 288 q 147 386 216 334 q 79 524 79 437 q 157 682 79 616 q 362 747 235 747 q 574 680 494 747 q 651 517 654 612 l 650 513 l 492 513 q 456 591 492 558 q 362 624 421 624 q 271 597 302 624 q 240 530 240 570 q 269 471 240 493 q 389 431 298 448 q 593 351 524 404 q 661 210 661 298 q 579 48 661 111 q 364 -14 498 -14 q 138 59 221 -14 q 60 227 56 132 l 61 231 l 214 231 q 260 138 217 168 q 366 109 304 109 q 464 134 429 109 q 499 201 499 159 z "},"і":{"ha":360,"x_min":98,"x_max":262,"o":"m 262 0 l 98 0 l 98 734 l 262 734 l 262 0 m 262 913 l 98 913 l 98 1058 l 262 1058 l 262 913 z "},"ї":{"ha":365,"x_min":-65,"x_max":427,"o":"m 262 0 l 97 0 l 97 734 l 262 734 l 262 0 m 427 853 l 262 853 l 262 991 l 427 991 l 427 853 m 98 853 l -65 853 l -65 991 l 98 991 l 98 853 z "},"ј":{"ha":364,"x_min":-54,"x_max":270,"o":"m 270 734 l 270 -43 q 207 -230 270 -164 q 31 -296 144 -296 q -13 -294 7 -296 q -54 -285 -33 -291 l -45 -153 q -16 -159 -33 -157 q 15 -161 1 -161 q 81 -133 57 -161 q 105 -43 105 -104 l 105 734 l 270 734 m 266 916 l 101 916 l 101 1058 l 266 1058 l 266 916 z "},"љ":{"ha":1205,"x_min":33,"x_max":1158,"o":"m 702 734 l 702 478 l 863 478 q 1079 412 1001 478 q 1158 241 1158 347 q 1079 67 1158 134 q 863 0 1000 0 l 537 0 l 537 601 l 351 601 l 351 421 q 284 103 351 206 q 68 0 218 0 l 33 0 l 33 134 l 58 134 q 155 203 125 134 q 186 421 186 273 l 186 734 l 702 734 m 702 347 l 702 130 l 863 130 q 961 163 929 130 q 993 242 993 195 q 961 316 993 286 q 863 347 929 347 l 702 347 z "},"њ":{"ha":1204,"x_min":85,"x_max":1156,"o":"m 250 455 l 536 455 l 536 734 l 701 734 l 701 478 l 861 478 q 1078 412 1000 478 q 1156 241 1156 347 q 1078 67 1156 134 q 861 0 999 0 l 536 0 l 536 323 l 250 323 l 250 0 l 85 0 l 85 734 l 250 734 l 250 455 m 701 347 l 701 130 l 861 130 q 959 163 927 130 q 991 242 991 195 q 960 316 991 286 q 861 347 928 347 l 701 347 z "},"ћ":{"ha":787,"x_min":16,"x_max":703,"o":"m 460 821 l 250 821 l 250 639 q 339 719 286 690 q 455 747 391 747 q 637 674 572 747 q 703 447 703 600 l 703 0 l 538 0 l 538 448 q 504 573 538 534 q 404 612 471 612 q 313 594 351 612 q 250 542 274 575 l 250 0 l 85 0 l 85 821 l 16 821 l 16 936 l 85 936 l 85 1058 l 250 1058 l 250 936 l 460 936 l 460 821 z "},"ќ":{"ha":775,"x_min":96,"x_max":762,"o":"m 335 290 l 260 290 l 260 0 l 96 0 l 96 734 l 260 734 l 260 441 l 318 441 l 536 734 l 740 734 l 463 384 l 762 0 l 548 0 l 335 290 m 427 1031 l 614 1031 l 615 1027 l 430 851 l 298 851 l 427 1031 z "},"ѝ":{"ha":787,"x_min":85,"x_max":701,"o":"m 537 734 l 701 734 l 701 0 l 537 0 l 537 487 l 533 488 l 250 0 l 85 0 l 85 734 l 250 734 l 250 248 l 254 246 l 537 734 m 468 852 l 331 852 l 155 1029 l 156 1033 l 343 1033 l 468 852 z "},"ў":{"ha":704,"x_min":11,"x_max":692,"o":"m 330 294 l 347 221 l 351 221 l 511 734 l 692 734 l 388 -111 q 306 -242 359 -188 q 156 -296 253 -296 q 112 -292 136 -296 q 67 -283 89 -288 l 85 -155 q 111 -157 94 -156 q 135 -159 127 -159 q 207 -128 180 -159 q 250 -58 233 -98 l 277 9 l 11 734 l 191 734 l 330 294 m 565 1045 l 567 1041 q 511 905 570 958 q 352 853 452 853 q 193 905 252 853 q 137 1041 134 958 l 139 1045 l 261 1045 q 283 981 261 1006 q 352 956 305 956 q 420 981 397 956 q 442 1045 442 1006 l 565 1045 z "},"џ":{"ha":787,"x_min":85,"x_max":701,"o":"m 250 734 l 250 132 l 536 132 l 536 734 l 701 734 l 701 0 l 477 0 l 477 -243 l 312 -243 l 312 0 l 85 0 l 85 734 l 250 734 z "},"Ѡ":{"ha":1321,"x_min":75,"x_max":1255,"o":"m 745 973 q 825 994 783 987 q 915 1002 868 1002 q 1160 888 1064 1002 q 1255 597 1255 775 l 1255 391 q 1156 99 1255 212 q 904 -14 1057 -14 q 768 3 827 -14 q 665 50 709 20 q 561 3 621 20 q 426 -14 502 -14 q 173 99 272 -14 q 75 391 75 212 l 75 597 q 170 888 75 775 q 415 1002 265 1002 q 504 994 461 1002 q 585 973 547 987 l 544 845 q 486 863 517 857 q 418 869 454 869 q 289 793 338 869 q 239 598 239 716 l 239 391 q 291 194 239 271 q 426 117 343 117 q 527 135 490 117 q 583 179 564 153 l 583 380 l 452 380 l 452 504 l 878 504 l 878 380 l 747 380 l 747 179 q 802 135 766 153 q 904 117 839 117 q 1038 194 985 117 q 1090 391 1090 271 l 1090 598 q 1041 793 1090 717 q 912 869 991 869 q 844 863 876 869 q 786 845 812 857 l 745 973 z "},"ѡ":{"ha":972,"x_min":22,"x_max":943,"o":"m 342 248 l 357 173 l 361 173 l 380 248 l 453 483 l 376 734 l 542 734 l 658 248 l 671 180 l 675 180 l 680 199 q 756 441 735 298 q 772 734 778 583 l 943 734 q 884 349 936 530 q 741 0 833 168 l 600 0 l 519 267 l 515 267 l 422 0 l 283 0 l 22 734 l 192 734 l 342 248 z "},"Ѣ":{"ha":873,"x_min":-18,"x_max":825,"o":"m 427 743 l 265 743 l 265 621 l 474 621 q 732 536 638 621 q 825 313 825 451 q 731 87 825 174 q 474 0 637 0 l 100 0 l 100 743 l -18 743 l -18 858 l 100 858 l 100 987 l 265 987 l 265 858 l 427 858 l 427 743 m 265 489 l 265 132 l 474 132 q 613 184 566 132 q 661 314 661 237 q 613 438 661 388 q 474 489 566 489 l 265 489 z "},"ѣ":{"ha":764,"x_min":-17,"x_max":717,"o":"m 458 741 l 261 741 l 261 478 l 422 478 q 638 412 560 478 q 717 241 717 347 q 638 67 717 134 q 422 0 559 0 l 96 0 l 96 741 l -17 741 l -17 856 l 96 856 l 96 1059 l 261 1059 l 261 856 l 458 856 l 458 741 m 261 346 l 261 132 l 422 132 q 520 162 488 132 q 552 238 552 192 q 520 314 552 282 q 422 346 488 346 l 261 346 z "},"Ѥ":{"ha":1243,"x_min":118,"x_max":1147,"o":"m 846 422 l 555 422 l 555 400 q 614 198 555 277 q 777 118 674 118 q 931 171 878 118 q 983 323 983 224 l 1142 323 l 1143 319 q 1046 78 1146 170 q 777 -14 947 -14 q 498 103 605 -14 q 391 400 391 219 l 391 422 l 283 422 l 283 0 l 118 0 l 118 987 l 283 987 l 283 555 l 391 555 l 391 588 q 496 885 391 768 q 772 1002 602 1002 q 1047 913 947 1002 q 1144 670 1147 825 l 1143 666 l 983 666 q 930 818 983 765 q 772 870 876 870 q 613 790 672 870 q 555 589 555 711 l 555 555 l 846 555 l 846 422 z "},"ѥ":{"ha":1042,"x_min":96,"x_max":962,"o":"m 727 312 l 515 312 l 513 309 q 556 171 517 224 q 675 117 595 117 q 770 153 731 117 q 809 242 809 188 l 958 242 l 960 238 q 878 60 962 135 q 675 -14 793 -14 q 442 77 527 -14 q 345 312 357 168 l 260 312 l 260 0 l 96 0 l 96 734 l 260 734 l 260 427 l 346 427 q 444 658 359 568 q 674 747 529 747 q 882 670 802 747 q 960 475 962 593 l 958 471 l 809 471 q 772 573 809 531 q 674 615 734 615 q 558 563 597 615 q 514 431 519 510 l 515 427 l 727 427 l 727 312 z "},"Ѧ":{"ha":873,"x_min":22,"x_max":878,"o":"m 614 278 l 521 278 l 521 0 l 371 0 l 371 278 l 286 278 l 192 0 l 22 0 l 374 987 l 530 987 l 878 0 l 707 0 l 614 278 m 329 405 l 572 405 l 454 760 l 450 760 l 329 405 z "},"ѧ":{"ha":760,"x_min":7,"x_max":741,"o":"m 502 189 l 439 189 l 439 0 l 307 0 l 307 189 l 245 189 l 174 0 l 7 0 l 295 734 l 452 734 l 741 0 l 574 0 l 502 189 m 289 307 l 457 307 l 389 484 l 374 544 l 370 544 l 355 484 l 289 307 z "},"Ѩ":{"ha":1260,"x_min":130,"x_max":1236,"o":"m 295 406 l 525 406 l 732 987 l 889 987 l 1236 0 l 1066 0 l 973 278 l 880 278 l 880 0 l 730 0 l 730 278 l 644 278 l 551 0 l 380 0 l 479 278 l 295 278 l 295 0 l 130 0 l 130 987 l 295 987 l 295 406 m 688 405 l 931 405 l 812 760 l 808 760 l 688 405 z "},"ѩ":{"ha":1078,"x_min":119,"x_max":1044,"o":"m 284 307 l 430 307 l 598 734 l 755 734 l 1044 0 l 877 0 l 805 189 l 742 189 l 742 0 l 610 0 l 610 189 l 548 189 l 477 0 l 310 0 l 384 189 l 284 189 l 284 0 l 119 0 l 119 734 l 284 734 l 284 307 m 592 307 l 760 307 l 692 484 l 677 544 l 673 544 l 659 484 l 592 307 z "},"Ѫ":{"ha":1202,"x_min":90,"x_max":1113,"o":"m 773 550 q 1026 475 939 548 q 1113 241 1113 402 l 1113 0 l 948 0 l 948 241 q 905 378 948 340 q 766 416 861 416 l 694 416 l 688 405 l 688 0 l 524 0 l 524 414 l 523 416 l 436 416 q 297 378 340 416 q 254 241 254 340 l 254 0 l 90 0 l 90 241 q 178 477 90 404 q 436 550 266 550 l 444 550 l 187 987 l 1031 987 l 773 550 m 609 557 l 773 854 l 445 854 l 609 557 z "},"ѫ":{"ha":1024,"x_min":88,"x_max":936,"o":"m 88 0 l 88 115 q 158 332 88 262 q 361 412 227 403 l 174 734 l 860 734 l 671 411 q 868 330 800 400 q 936 115 936 259 l 936 0 l 771 0 l 771 115 q 735 248 771 210 q 622 285 700 285 l 597 285 l 597 283 l 597 0 l 433 0 l 433 285 l 402 285 q 288 248 323 285 q 253 115 253 211 l 253 0 l 88 0 m 517 418 l 618 615 l 416 615 l 517 418 z "},"Ѭ":{"ha":1596,"x_min":117,"x_max":1497,"o":"m 875 417 l 237 417 l 237 550 l 875 550 l 875 417 m 282 0 l 117 0 l 117 987 l 282 987 l 282 0 m 1158 550 q 1411 475 1324 548 q 1497 241 1497 402 l 1497 0 l 1333 0 l 1333 241 q 1289 378 1333 340 q 1150 416 1246 416 l 1079 416 l 1073 405 l 1073 0 l 909 0 l 909 414 l 907 416 l 821 416 q 682 378 724 416 q 639 241 639 340 l 639 0 l 474 0 l 474 241 q 562 477 474 404 q 821 550 650 550 l 829 550 l 572 987 l 1415 987 l 1158 550 m 994 557 l 1158 854 l 829 854 l 994 557 z "},"ѭ":{"ha":1384,"x_min":97,"x_max":1279,"o":"m 851 288 l 168 288 l 168 414 l 851 414 l 851 288 m 262 0 l 97 0 l 97 734 l 262 734 l 262 0 m 431 0 l 431 115 q 501 332 431 262 q 705 412 570 403 l 517 734 l 1203 734 l 1015 411 q 1211 330 1143 400 q 1279 115 1279 259 l 1279 0 l 1114 0 l 1114 115 q 1079 248 1114 210 q 965 285 1043 285 l 941 285 l 940 283 l 940 0 l 776 0 l 776 285 l 745 285 q 631 248 666 285 q 596 115 596 211 l 596 0 l 431 0 m 860 418 l 961 615 l 759 615 l 860 418 z "},"Ѯ":{"ha":717,"x_min":28,"x_max":636,"o":"m 271 574 q 406 612 362 574 q 449 717 449 650 q 405 815 449 778 q 276 853 361 853 l 84 853 l 84 987 l 276 987 q 521 919 429 987 q 614 724 614 850 q 572 593 614 649 q 454 508 530 538 q 589 420 542 479 q 636 277 636 361 q 545 63 636 140 q 304 -14 454 -14 l 269 -14 q 201 -33 222 -14 q 180 -84 180 -52 q 210 -154 180 -127 q 283 -200 240 -180 l 229 -304 q 84 -215 139 -276 q 28 -67 28 -153 q 90 74 28 26 q 264 121 153 121 l 299 121 q 425 163 379 121 q 471 274 471 206 q 419 397 471 355 q 269 439 368 439 l 172 439 l 172 574 l 271 574 m 372 1204 l 461 1297 l 607 1297 l 607 1285 l 425 1114 l 319 1114 l 138 1284 l 138 1297 l 282 1297 l 372 1204 z "},"ѯ":{"ha":684,"x_min":35,"x_max":613,"o":"m 276 422 q 390 448 353 422 q 427 519 427 474 q 388 584 427 559 q 276 608 350 608 l 84 608 l 84 734 l 276 734 q 505 680 418 734 q 591 527 591 625 q 558 432 591 473 q 465 368 525 391 q 575 304 536 345 q 613 206 613 263 q 529 44 613 103 q 309 -14 446 -14 l 276 -14 q 205 -33 228 -14 q 183 -84 183 -52 q 212 -154 183 -127 q 281 -200 240 -180 l 226 -299 q 90 -208 144 -268 q 35 -67 35 -148 q 95 66 35 22 q 262 111 155 111 l 294 111 q 407 138 366 111 q 448 208 448 165 q 404 283 448 258 q 274 308 359 308 l 172 308 l 172 422 l 276 422 m 323 971 l 412 1063 l 558 1063 l 558 1052 l 376 881 l 270 881 l 89 1050 l 89 1063 l 233 1063 l 323 971 z "},"Ѱ":{"ha":981,"x_min":49,"x_max":923,"o":"m 566 365 l 570 363 q 708 440 658 374 q 758 619 758 507 l 758 987 l 923 987 l 923 619 q 826 345 923 448 q 566 224 728 241 l 566 0 l 401 0 l 401 224 q 144 343 240 239 q 49 619 49 446 l 49 987 l 213 987 l 213 619 q 262 443 213 509 q 397 364 312 376 l 401 366 l 401 987 l 566 987 l 566 365 z "},"ѱ":{"ha":1004,"x_min":54,"x_max":954,"o":"m 576 734 l 576 130 l 581 129 q 739 219 688 146 q 789 393 789 292 q 766 560 787 475 q 710 734 745 645 l 871 734 q 931 579 908 665 q 954 393 954 494 q 863 119 954 231 q 576 -11 772 8 l 576 -324 l 412 -324 l 412 -9 q 147 112 240 10 q 54 402 54 214 l 54 734 l 218 734 l 218 401 q 269 211 218 277 q 408 130 320 144 l 412 132 l 412 734 l 576 734 z "},"Ѳ":{"ha":951,"x_min":71,"x_max":880,"o":"m 880 405 q 766 105 880 224 q 471 -14 652 -14 q 182 105 294 -14 q 71 405 71 224 l 71 583 q 182 882 71 763 q 471 1002 293 1002 q 766 882 652 1002 q 880 583 880 763 l 880 405 m 610 501 q 669 514 640 501 q 715 549 698 528 l 715 584 q 649 787 715 707 q 471 866 583 866 q 299 787 361 866 q 236 584 236 707 l 236 538 q 288 572 258 559 q 352 584 317 584 q 483 543 404 584 q 610 501 561 501 m 715 418 q 662 388 692 399 q 600 378 633 378 q 462 419 534 378 q 342 460 391 460 q 279 443 309 460 q 236 401 250 426 q 300 199 237 277 q 471 121 363 121 q 649 200 584 121 q 715 405 715 279 l 715 418 z "},"ѳ":{"ha":787,"x_min":56,"x_max":730,"o":"m 56 374 q 146 643 56 538 q 392 747 236 747 q 640 643 550 747 q 730 374 730 538 l 730 359 q 640 90 730 194 q 393 -14 550 -14 q 146 90 236 -14 q 56 359 56 195 l 56 374 m 492 382 q 534 396 514 382 q 562 433 554 410 q 508 565 550 515 q 392 615 466 615 q 269 555 311 615 q 227 406 227 496 l 230 403 q 262 429 241 418 q 309 439 284 439 q 402 411 346 439 q 492 382 458 382 m 294 339 q 253 325 272 339 q 226 290 233 311 q 279 164 238 211 q 393 117 321 117 q 513 172 471 117 q 558 312 555 227 l 555 315 q 523 291 544 300 q 477 281 501 281 q 379 310 431 281 q 294 339 328 339 z "},"Ѵ":{"ha":885,"x_min":12,"x_max":892,"o":"m 418 268 l 436 195 l 440 195 l 458 267 l 602 785 q 690 947 634 893 q 821 1000 745 1000 q 860 997 843 1000 q 892 985 877 994 l 877 855 q 865 858 874 857 q 847 859 856 859 q 792 837 815 859 q 755 771 770 815 l 516 0 l 359 0 l 12 987 l 188 987 l 418 268 z "},"ѵ":{"ha":704,"x_min":22,"x_max":711,"o":"m 328 248 l 339 193 l 343 193 l 355 248 l 437 551 q 518 698 468 649 q 639 747 569 747 q 678 744 661 747 q 711 732 695 741 l 695 602 q 683 605 692 604 q 665 606 673 606 q 622 588 642 606 q 593 541 602 569 l 413 0 l 270 0 l 22 734 l 192 734 l 328 248 z "},"Ѷ":{"ha":885,"x_min":12,"x_max":892,"o":"m 418 268 l 436 195 l 440 195 l 458 267 l 602 785 q 690 947 634 893 q 821 1000 745 1000 q 860 997 843 1000 q 892 985 877 994 l 877 855 q 865 858 874 857 q 847 859 856 859 q 792 837 815 859 q 755 771 770 815 l 516 0 l 359 0 l 12 987 l 188 987 l 418 268 m 389 1084 l 387 1081 l 251 1081 l 52 1257 l 54 1261 l 226 1261 l 389 1084 m 596 1081 l 464 1081 l 301 1258 l 302 1261 l 467 1261 l 596 1081 z "},"ѷ":{"ha":704,"x_min":-16,"x_max":711,"o":"m 328 248 l 339 193 l 343 193 l 355 248 l 437 551 q 518 698 468 649 q 639 747 569 747 q 678 744 661 747 q 711 732 695 741 l 695 602 q 683 605 692 604 q 665 606 673 606 q 622 588 642 606 q 593 541 602 569 l 413 0 l 270 0 l 22 734 l 192 734 l 328 248 m 321 899 l 319 895 l 183 895 l -16 1072 l -14 1076 l 158 1076 l 321 899 m 528 895 l 396 895 l 233 1072 l 235 1076 l 399 1076 l 528 895 z "},"Ѹ":{"ha":1655,"x_min":71,"x_max":1643,"o":"m 880 405 q 766 105 880 224 q 471 -14 652 -14 q 182 105 294 -14 q 71 405 71 224 l 71 583 q 182 882 71 763 q 471 1002 293 1002 q 766 882 652 1002 q 880 583 880 763 l 880 405 m 715 584 q 649 787 715 707 q 471 866 583 866 q 299 787 361 866 q 236 584 236 707 l 236 405 q 299 200 236 280 q 471 121 362 121 q 649 200 584 121 q 715 405 715 279 l 715 584 m 1281 294 l 1297 221 l 1301 221 l 1462 734 l 1643 734 l 1339 -111 q 1257 -242 1310 -188 q 1107 -296 1204 -296 q 1063 -292 1086 -296 q 1018 -283 1040 -288 l 1036 -155 q 1061 -157 1045 -156 q 1086 -159 1078 -159 q 1157 -128 1131 -159 q 1201 -58 1184 -98 l 1228 9 l 962 734 l 1141 734 l 1281 294 z "},"ѹ":{"ha":1491,"x_min":56,"x_max":1478,"o":"m 56 374 q 146 643 56 538 q 392 747 236 747 q 640 643 550 747 q 730 374 730 538 l 730 359 q 640 90 730 194 q 393 -14 550 -14 q 146 90 236 -14 q 56 359 56 195 l 56 374 m 221 359 q 263 184 221 252 q 393 117 305 117 q 523 185 479 117 q 566 359 566 252 l 566 374 q 523 547 566 479 q 392 615 479 615 q 263 547 306 615 q 221 374 221 479 l 221 359 m 1117 294 l 1133 221 l 1137 221 l 1298 734 l 1478 734 l 1175 -111 q 1093 -242 1145 -188 q 943 -296 1040 -296 q 899 -292 922 -296 q 854 -283 876 -288 l 872 -155 q 897 -157 881 -156 q 922 -159 913 -159 q 993 -128 966 -159 q 1037 -58 1020 -98 l 1064 9 l 798 734 l 977 734 l 1117 294 z "},"Ѻ":{"ha":951,"x_min":71,"x_max":880,"o":"m 543 784 l 408 784 l 408 1073 l 543 1073 l 543 784 m 543 -94 l 410 -94 l 410 202 l 543 202 l 543 -94 m 880 405 q 766 105 880 224 q 471 -14 652 -14 q 182 105 294 -14 q 71 405 71 224 l 71 583 q 182 882 71 763 q 471 1002 293 1002 q 766 882 652 1002 q 880 583 880 763 l 880 405 m 715 584 q 649 787 715 707 q 471 866 583 866 q 299 787 361 866 q 236 584 236 707 l 236 405 q 299 200 236 280 q 471 121 362 121 q 649 200 584 121 q 715 405 715 279 l 715 584 z "},"ѻ":{"ha":787,"x_min":56,"x_max":730,"o":"m 462 539 l 328 539 l 328 817 l 462 817 l 462 539 m 460 -81 l 326 -81 l 326 201 l 460 201 l 460 -81 m 56 374 q 146 643 56 538 q 392 747 236 747 q 640 643 550 747 q 730 374 730 538 l 730 359 q 640 90 730 194 q 393 -14 550 -14 q 146 90 236 -14 q 56 359 56 195 l 56 374 m 221 359 q 263 184 221 252 q 393 117 305 117 q 523 185 479 117 q 566 359 566 252 l 566 374 q 523 547 566 479 q 392 615 479 615 q 263 547 306 615 q 221 374 221 479 l 221 359 z "},"Ѽ":{"ha":1321,"x_min":75,"x_max":1255,"o":"m 755 973 q 830 994 790 987 q 915 1002 870 1002 q 1160 884 1064 1002 q 1255 583 1255 767 l 1255 409 q 1157 104 1255 222 q 905 -14 1058 -14 q 768 5 827 -14 q 665 56 709 24 q 562 5 621 24 q 426 -14 502 -14 q 173 104 272 -14 q 75 409 75 222 l 75 583 q 170 884 75 767 q 415 1002 265 1002 q 499 994 459 1002 q 575 973 540 987 l 534 845 q 480 863 510 857 q 418 869 451 869 q 289 789 338 869 q 239 584 239 709 l 239 409 q 291 199 239 281 q 426 117 343 117 q 527 137 490 117 q 583 184 564 156 l 583 208 l 747 208 l 747 184 q 803 136 766 155 q 905 117 840 117 q 1039 199 987 117 q 1091 409 1091 281 l 1091 584 q 1042 789 1091 709 q 913 869 992 869 q 849 863 879 869 q 796 845 820 857 l 755 973 m 992 1284 l 992 1194 l 968 1194 q 776 1234 880 1194 q 644 1275 672 1275 q 591 1258 610 1275 q 572 1206 572 1240 l 572 1194 l 481 1194 l 481 1219 q 523 1329 481 1293 q 641 1366 564 1366 q 791 1325 689 1366 q 969 1284 893 1284 l 992 1284 m 659 988 l 604 1029 l 644 1105 l 643 1202 l 769 1202 l 769 1117 l 659 988 z "},"ѽ":{"ha":1131,"x_min":70,"x_max":1070,"o":"m 642 718 q 706 739 672 731 q 779 746 741 746 q 988 644 907 746 q 1070 382 1070 543 l 1070 345 q 985 86 1070 186 q 769 -14 901 -14 q 657 4 707 -14 q 570 54 608 22 q 483 4 532 22 q 372 -14 433 -14 q 155 86 239 -14 q 70 345 70 186 l 70 382 q 152 644 70 542 q 361 746 233 746 q 433 739 399 746 q 498 718 468 731 l 458 589 q 414 607 437 601 q 363 614 390 614 q 270 549 305 614 q 235 383 235 484 l 235 345 q 273 182 235 246 q 372 117 311 117 q 446 135 420 117 q 488 179 473 153 l 488 211 l 652 211 l 652 179 q 694 135 667 153 q 769 117 720 117 q 867 182 829 117 q 906 345 906 246 l 906 383 q 870 549 906 484 q 777 614 834 614 q 726 607 749 614 q 683 589 702 601 l 642 718 m 905 1036 l 905 945 l 881 945 q 688 985 793 945 q 556 1026 584 1026 q 504 1009 523 1026 q 486 957 486 991 l 486 945 l 394 945 l 394 970 q 435 1080 394 1044 q 554 1117 477 1117 q 704 1076 602 1117 q 882 1036 806 1036 l 905 1036 m 572 744 l 517 785 l 557 861 l 556 954 l 682 954 l 682 873 l 572 744 z "},"Ѿ":{"ha":1321,"x_min":75,"x_max":1255,"o":"m 487 1144 l 487 1058 l 366 1059 l 367 1220 l 945 1220 l 945 1058 l 823 1058 l 823 1144 l 711 1144 l 711 1058 l 589 1058 l 589 1144 l 487 1144 m 786 845 q 844 863 812 857 q 912 869 876 869 q 1041 793 991 869 q 1090 598 1090 717 l 1090 391 q 1038 194 1090 271 q 904 117 985 117 q 802 135 839 117 q 747 179 766 153 l 747 380 l 878 380 l 878 504 l 452 504 l 452 380 l 583 380 l 583 179 q 527 135 564 153 q 426 117 490 117 q 291 194 343 117 q 239 391 239 271 l 239 598 q 289 793 239 716 q 418 869 338 869 q 486 863 454 869 q 544 845 517 857 l 585 973 q 504 994 547 987 q 415 1002 461 1002 q 170 888 265 1002 q 75 597 75 775 l 75 391 q 173 99 75 212 q 426 -14 272 -14 q 561 3 502 -14 q 665 50 621 20 q 768 3 709 20 q 904 -14 827 -14 q 1156 99 1057 -14 q 1255 391 1255 212 l 1255 597 q 1160 888 1255 775 q 915 1002 1064 1002 q 825 994 868 1002 q 745 973 783 987 l 786 845 z "},"ѿ":{"ha":972,"x_min":22,"x_max":943,"o":"m 338 912 l 338 826 l 217 827 l 218 988 l 777 988 l 777 826 l 655 826 l 655 912 l 553 912 l 553 826 l 430 826 l 430 912 l 338 912 m 192 734 l 22 734 l 283 0 l 422 0 l 515 267 l 519 267 l 600 0 l 741 0 q 884 349 833 168 q 943 734 936 530 l 772 734 q 756 441 778 583 q 680 199 735 298 l 675 180 l 671 180 l 658 248 l 542 734 l 376 734 l 453 483 l 380 248 l 361 173 l 357 173 l 342 248 l 192 734 z "},"Ҁ":{"ha":888,"x_min":72,"x_max":818,"o":"m 553 -254 l 389 -254 l 389 -9 q 158 124 245 12 q 72 399 72 236 l 72 587 q 177 885 72 768 q 452 1002 281 1002 q 720 913 623 1002 q 815 669 818 824 l 814 665 l 654 665 q 604 817 654 764 q 452 869 553 869 q 294 790 351 869 q 236 589 236 710 l 236 399 q 294 197 236 277 q 452 117 351 117 l 553 117 l 553 -254 z "},"ҁ":{"ha":745,"x_min":62,"x_max":684,"o":"m 492 -254 l 327 -254 l 327 -9 q 132 114 201 13 q 62 355 62 215 l 62 378 q 150 642 62 536 q 392 747 237 747 q 603 670 521 747 q 682 475 684 593 l 680 471 l 530 471 q 492 573 530 531 q 392 615 453 615 q 268 546 308 615 q 227 378 227 477 l 227 355 q 267 185 227 254 q 393 117 307 117 l 492 117 l 492 -254 z "},"҂":{"ha":867,"x_min":74,"x_max":794,"o":"m 409 304 l 605 188 l 556 101 l 359 216 l 236 0 l 117 0 l 270 270 l 74 386 l 122 473 l 321 357 l 458 601 l 261 717 l 311 805 l 508 689 l 633 910 l 750 910 l 595 635 l 794 519 l 743 433 l 547 549 l 409 304 z "},"҃":{"ha":714,"x_min":106,"x_max":597,"o":"m 227 890 l 227 804 l 106 805 l 107 966 l 477 966 l 477 1040 l 597 1039 l 597 890 l 227 890 z "},"҄":{"ha":742,"x_min":124,"x_max":641,"o":"m 147 975 q 327 1015 224 975 q 479 1056 430 1056 q 598 1019 556 1056 q 641 909 641 983 l 641 884 l 549 884 l 549 896 q 529 948 549 930 q 477 965 509 965 q 342 924 448 965 q 149 884 237 884 l 124 884 l 124 975 l 147 975 z "}}}
